# MagicaVoxel @ Ephtracy

# group
g block-03

# material
mtllib block-03.mtl
usemtl palette

# normals
vn -1 0 0
vn 1 0 0
vn 0 0 1
vn 0 0 -1
vn 0 -1 0
vn 0 1 0

# texcoords
vt 0.412109 0.5
vt 0.447266 0.5
vt 0.541016 0.5
vt 0.544922 0.5
vt 0.556641 0.5
vt 0.591797 0.5

# verts
v -25 0 25
v -25 0 -25
v -25 50 25
v -25 50 -25
v 23 45 22
v 23 45 21
v 23 47 23
v 23 47 22
v 23 47 21
v 23 48 23
v 23 48 22
v 22 45 22
v 22 45 21
v 22 46 22
v 22 46 21
v 22 47 23
v 22 47 22
v 22 47 21
v 22 48 23
v 22 48 22
v 25 0 25
v 25 0 -25
v 25 50 25
v 25 50 -25
v -25 0 25
v -25 50 25
v 25 0 25
v 25 50 25
v 22 47 22
v 22 48 22
v 23 47 22
v 23 48 22
v 22 45 21
v 22 46 21
v 22 47 21
v 23 45 21
v 23 47 21
v 22 47 23
v 22 48 23
v 23 47 23
v 23 48 23
v 22 45 22
v 22 46 22
v 22 47 22
v 23 45 22
v 23 47 22
v -25 0 -25
v -25 50 -25
v 25 0 -25
v 25 50 -25
v -25 0 25
v 25 0 25
v -25 0 -25
v 25 0 -25
v 22 47 22
v 23 47 22
v 22 47 21
v 23 47 21
v 22 48 23
v 23 48 23
v 22 48 22
v 23 48 22
v 22 45 22
v 23 45 22
v 22 45 21
v 23 45 21
v 22 47 23
v 23 47 23
v 22 47 22
v 23 47 22
v -25 50 25
v 25 50 25
v -5 50 20
v -4 50 20
v -5 50 19
v -4 50 19
v 14 50 19
v 15 50 19
v 14 50 18
v 15 50 18
v -18 50 13
v -16 50 13
v -18 50 11
v -16 50 11
v -22 50 10
v -21 50 10
v -22 50 8
v -21 50 8
v -14 50 7
v -12 50 7
v -14 50 6
v -12 50 6
v 19 50 4
v 20 50 4
v 19 50 3
v 20 50 3
v -22 50 -2
v -19 50 -2
v -22 50 -8
v -19 50 -8
v 13 50 -8
v 16 50 -8
v 8 50 -9
v 9 50 -9
v 8 50 -10
v 9 50 -10
v 13 50 -11
v 16 50 -11
v -13 50 -14
v -6 50 -14
v 4 50 -17
v 5 50 -17
v 4 50 -18
v 5 50 -18
v -13 50 -21
v -6 50 -21
v -25 50 -25
v 25 50 -25

# faces
f 3/3/1 2/3/1 1/3/1
f 4/3/1 2/3/1 3/3/1
f 8/3/1 6/3/1 5/3/1
f 9/3/1 6/3/1 8/3/1
f 10/3/1 8/3/1 7/3/1
f 11/3/1 8/3/1 10/3/1
f 12/2/2 13/2/2 14/2/2
f 14/2/2 13/2/2 15/2/2
f 14/3/2 15/3/2 17/3/2
f 17/3/2 15/3/2 18/3/2
f 16/3/2 17/3/2 19/3/2
f 19/3/2 17/3/2 20/3/2
f 21/3/2 22/3/2 23/3/2
f 23/3/2 22/3/2 24/3/2
f 27/3/3 26/3/3 25/3/3
f 28/3/3 26/3/3 27/3/3
f 31/3/3 30/3/3 29/3/3
f 32/3/3 30/3/3 31/3/3
f 36/3/3 34/3/3 33/3/3
f 36/3/3 35/3/3 34/3/3
f 37/3/3 35/3/3 36/3/3
f 38/3/4 39/3/4 40/3/4
f 40/3/4 39/3/4 41/3/4
f 42/3/4 43/3/4 45/3/4
f 43/3/4 44/3/4 45/3/4
f 45/3/4 44/3/4 46/3/4
f 47/3/4 48/3/4 49/3/4
f 49/3/4 48/3/4 50/3/4
f 53/3/5 52/3/5 51/3/5
f 54/3/5 52/3/5 53/3/5
f 57/3/5 56/3/5 55/3/5
f 58/3/5 56/3/5 57/3/5
f 61/3/5 60/3/5 59/3/5
f 62/3/5 60/3/5 61/3/5
f 63/3/6 64/3/6 65/3/6
f 65/3/6 64/3/6 66/3/6
f 67/3/6 68/3/6 69/3/6
f 69/3/6 68/3/6 70/3/6
f 71/3/6 72/3/6 73/3/6
f 73/3/6 72/3/6 74/3/6
f 71/3/6 73/3/6 75/3/6
f 73/6/6 74/6/6 75/6/6
f 74/3/6 72/3/6 76/3/6
f 75/6/6 74/6/6 76/6/6
f 76/3/6 72/3/6 77/3/6
f 77/3/6 72/3/6 78/3/6
f 75/3/6 76/3/6 79/3/6
f 76/3/6 77/3/6 79/3/6
f 77/5/6 78/5/6 79/5/6
f 78/3/6 72/3/6 80/3/6
f 79/5/6 78/5/6 80/5/6
f 71/3/6 75/3/6 81/3/6
f 75/3/6 79/3/6 81/3/6
f 79/3/6 80/3/6 81/3/6
f 81/3/6 80/3/6 82/3/6
f 71/3/6 81/3/6 83/3/6
f 81/6/6 82/6/6 83/6/6
f 82/3/6 80/3/6 84/3/6
f 83/6/6 82/6/6 84/6/6
f 71/3/6 83/3/6 85/3/6
f 83/3/6 84/3/6 85/3/6
f 85/3/6 84/3/6 86/3/6
f 71/3/6 85/3/6 87/3/6
f 85/5/6 86/5/6 87/5/6
f 86/3/6 84/3/6 88/3/6
f 87/5/6 86/5/6 88/5/6
f 84/3/6 80/3/6 89/3/6
f 88/3/6 84/3/6 89/3/6
f 87/3/6 88/3/6 89/3/6
f 89/3/6 80/3/6 90/3/6
f 87/3/6 89/3/6 91/3/6
f 89/4/6 90/4/6 91/4/6
f 90/3/6 80/3/6 92/3/6
f 91/4/6 90/4/6 92/4/6
f 80/3/6 72/3/6 93/3/6
f 92/3/6 80/3/6 93/3/6
f 91/3/6 92/3/6 93/3/6
f 93/3/6 72/3/6 94/3/6
f 91/3/6 93/3/6 95/3/6
f 93/5/6 94/5/6 95/5/6
f 94/3/6 72/3/6 96/3/6
f 95/5/6 94/5/6 96/5/6
f 87/3/6 91/3/6 97/3/6
f 71/3/6 87/3/6 97/3/6
f 95/3/6 96/3/6 97/3/6
f 91/3/6 95/3/6 97/3/6
f 97/3/6 96/3/6 98/3/6
f 71/3/6 97/3/6 99/3/6
f 97/4/6 98/4/6 99/4/6
f 98/3/6 96/3/6 100/3/6
f 99/4/6 98/4/6 100/4/6
f 100/3/6 96/3/6 101/3/6
f 101/3/6 96/3/6 102/3/6
f 99/3/6 100/3/6 103/3/6
f 100/3/6 101/3/6 103/3/6
f 103/3/6 101/3/6 104/3/6
f 99/3/6 103/3/6 105/3/6
f 103/6/6 104/6/6 105/6/6
f 104/3/6 101/3/6 106/3/6
f 105/6/6 104/6/6 106/6/6
f 101/5/6 102/5/6 107/5/6
f 106/3/6 101/3/6 107/3/6
f 105/3/6 106/3/6 107/3/6
f 102/3/6 96/3/6 108/3/6
f 107/5/6 102/5/6 108/5/6
f 105/3/6 107/3/6 109/3/6
f 99/3/6 105/3/6 109/3/6
f 107/3/6 108/3/6 109/3/6
f 109/3/6 108/3/6 110/3/6
f 110/3/6 108/3/6 111/3/6
f 111/3/6 108/3/6 112/3/6
f 110/3/6 111/3/6 113/3/6
f 111/5/6 112/5/6 113/5/6
f 112/3/6 108/3/6 114/3/6
f 113/5/6 112/5/6 114/5/6
f 99/3/6 109/3/6 115/3/6
f 109/5/6 110/5/6 115/5/6
f 113/3/6 114/3/6 116/3/6
f 115/5/6 110/5/6 116/5/6
f 110/3/6 113/3/6 116/3/6
f 71/3/6 99/3/6 117/3/6
f 99/3/6 115/3/6 117/3/6
f 115/3/6 116/3/6 117/3/6
f 96/3/6 72/3/6 118/3/6
f 117/3/6 116/3/6 118/3/6
f 116/3/6 114/3/6 118/3/6
f 114/3/6 108/3/6 118/3/6
f 108/3/6 96/3/6 118/3/6
