# MagicaVoxel @ Ephtracy

# group
g block-07

# material
mtllib block-07.mtl
usemtl palette

# normals
vn -1 0 0
vn 1 0 0
vn 0 0 1
vn 0 0 -1
vn 0 -1 0
vn 0 1 0

# texcoords
vt 0.412109 0.5
vt 0.443359 0.5
vt 0.447266 0.5

# verts
v -25 1 5
v -25 1 -5
v -25 24 5
v -25 24 -5
v -24 0 4
v -24 0 -4
v -24 1 4
v -24 1 -4
v -24 24 4
v -24 24 -4
v -24 25 4
v -24 25 -4
v -14 14 5
v -14 14 4
v -14 15 5
v -14 15 4
v -8 11 5
v -8 11 4
v -8 12 5
v -8 12 4
v -7 14 -4
v -7 14 -5
v -7 15 -4
v -7 15 -5
v 15 14 5
v 15 14 4
v 15 15 5
v 15 15 4
v -16 14 5
v -16 14 4
v -16 15 5
v -16 15 4
v -9 11 5
v -9 11 4
v -9 12 5
v -9 12 4
v -8 14 -4
v -8 14 -5
v -8 15 -4
v -8 15 -5
v 14 14 5
v 14 14 4
v 14 15 5
v 14 15 4
v 24 0 4
v 24 0 -4
v 24 1 4
v 24 1 -4
v 24 24 4
v 24 24 -4
v 24 25 4
v 24 25 -4
v 25 1 5
v 25 1 -5
v 25 18 -3
v 25 18 -4
v 25 19 -3
v 25 19 -4
v 25 24 5
v 25 24 -5
v -25 1 5
v -25 24 5
v -23 8 5
v -23 10 5
v -19 8 5
v -19 10 5
v -16 14 5
v -16 15 5
v -14 14 5
v -14 15 5
v -9 11 5
v -9 12 5
v -8 11 5
v -8 12 5
v -3 18 5
v -3 19 5
v -2 7 5
v -2 8 5
v -2 18 5
v -2 19 5
v -1 7 5
v -1 8 5
v 14 14 5
v 14 15 5
v 15 14 5
v 15 15 5
v 25 1 5
v 25 24 5
v -24 0 4
v -24 1 4
v -24 24 4
v -24 25 4
v -16 14 4
v -16 15 4
v -14 14 4
v -14 15 4
v -9 11 4
v -9 12 4
v -8 11 4
v -8 12 4
v 14 14 4
v 14 15 4
v 15 14 4
v 15 15 4
v 24 0 4
v 24 1 4
v 24 24 4
v 24 25 4
v -24 0 -4
v -24 1 -4
v -24 24 -4
v -24 25 -4
v -8 14 -4
v -8 15 -4
v -7 14 -4
v -7 15 -4
v 24 0 -4
v 24 1 -4
v 24 24 -4
v 24 25 -4
v -25 1 -5
v -25 24 -5
v -8 5 -5
v -8 6 -5
v -8 14 -5
v -8 15 -5
v -7 5 -5
v -7 6 -5
v -7 14 -5
v -7 15 -5
v -2 6 -5
v -2 10 -5
v 2 6 -5
v 2 10 -5
v 25 1 -5
v 25 24 -5
v -24 0 4
v 24 0 4
v -24 0 -4
v 24 0 -4
v -25 1 5
v 25 1 5
v -24 1 4
v 24 1 4
v -24 1 -4
v 24 1 -4
v -25 1 -5
v 25 1 -5
v -9 12 5
v -8 12 5
v -9 12 4
v -8 12 4
v -16 15 5
v -14 15 5
v 14 15 5
v 15 15 5
v -16 15 4
v -14 15 4
v 14 15 4
v 15 15 4
v -8 15 -4
v -7 15 -4
v -8 15 -5
v -7 15 -5
v -9 11 5
v -8 11 5
v -9 11 4
v -8 11 4
v -16 14 5
v -14 14 5
v 14 14 5
v 15 14 5
v -16 14 4
v -14 14 4
v 14 14 4
v 15 14 4
v -8 14 -4
v -7 14 -4
v -8 14 -5
v -7 14 -5
v -25 24 5
v 25 24 5
v -24 24 4
v 24 24 4
v -24 24 -4
v 24 24 -4
v -25 24 -5
v 25 24 -5
v -24 25 4
v 24 25 4
v -24 25 -4
v 24 25 -4

# faces
f 3/1/1 2/1/1 1/1/1
f 4/1/1 2/1/1 3/1/1
f 7/3/1 6/3/1 5/3/1
f 8/3/1 6/3/1 7/3/1
f 11/3/1 10/3/1 9/3/1
f 12/3/1 10/3/1 11/3/1
f 15/1/1 14/1/1 13/1/1
f 16/1/1 14/1/1 15/1/1
f 19/1/1 18/1/1 17/1/1
f 20/1/1 18/1/1 19/1/1
f 23/1/1 22/1/1 21/1/1
f 24/1/1 22/1/1 23/1/1
f 27/1/1 26/1/1 25/1/1
f 28/1/1 26/1/1 27/1/1
f 29/1/2 30/1/2 31/1/2
f 31/1/2 30/1/2 32/1/2
f 33/1/2 34/1/2 35/1/2
f 35/1/2 34/1/2 36/1/2
f 37/1/2 38/1/2 39/1/2
f 39/1/2 38/1/2 40/1/2
f 41/1/2 42/1/2 43/1/2
f 43/1/2 42/1/2 44/1/2
f 45/3/2 46/3/2 47/3/2
f 47/3/2 46/3/2 48/3/2
f 49/3/2 50/3/2 51/3/2
f 51/3/2 50/3/2 52/3/2
f 53/1/2 54/1/2 55/1/2
f 55/1/2 54/1/2 56/1/2
f 53/1/2 55/1/2 57/1/2
f 55/2/2 56/2/2 57/2/2
f 56/1/2 54/1/2 58/1/2
f 57/2/2 56/2/2 58/2/2
f 53/1/2 57/1/2 59/1/2
f 57/1/2 58/1/2 59/1/2
f 58/1/2 54/1/2 60/1/2
f 59/1/2 58/1/2 60/1/2
f 63/1/3 62/1/3 61/1/3
f 64/1/3 62/1/3 63/1/3
f 65/1/3 63/1/3 61/1/3
f 65/2/3 64/2/3 63/2/3
f 66/1/3 62/1/3 64/1/3
f 66/2/3 64/2/3 65/2/3
f 67/1/3 66/1/3 65/1/3
f 67/1/3 62/1/3 66/1/3
f 68/1/3 62/1/3 67/1/3
f 69/1/3 67/1/3 65/1/3
f 70/1/3 62/1/3 68/1/3
f 71/1/3 69/1/3 65/1/3
f 71/1/3 70/1/3 69/1/3
f 72/1/3 70/1/3 71/1/3
f 73/1/3 71/1/3 65/1/3
f 74/1/3 70/1/3 72/1/3
f 75/1/3 62/1/3 70/1/3
f 75/1/3 74/1/3 73/1/3
f 75/1/3 70/1/3 74/1/3
f 76/1/3 62/1/3 75/1/3
f 77/1/3 65/1/3 61/1/3
f 77/1/3 73/1/3 65/1/3
f 77/1/3 75/1/3 73/1/3
f 78/1/3 75/1/3 77/1/3
f 79/2/3 76/2/3 75/2/3
f 79/1/3 75/1/3 78/1/3
f 80/1/3 62/1/3 76/1/3
f 80/2/3 76/2/3 79/2/3
f 81/2/3 78/2/3 77/2/3
f 81/1/3 77/1/3 61/1/3
f 82/1/3 79/1/3 78/1/3
f 82/2/3 78/2/3 81/2/3
f 82/1/3 80/1/3 79/1/3
f 83/1/3 82/1/3 81/1/3
f 83/1/3 80/1/3 82/1/3
f 84/1/3 80/1/3 83/1/3
f 85/1/3 83/1/3 81/1/3
f 86/1/3 80/1/3 84/1/3
f 87/1/3 81/1/3 61/1/3
f 87/1/3 86/1/3 85/1/3
f 87/1/3 85/1/3 81/1/3
f 88/1/3 80/1/3 86/1/3
f 88/1/3 86/1/3 87/1/3
f 88/1/3 62/1/3 80/1/3
f 95/1/3 94/1/3 93/1/3
f 96/1/3 94/1/3 95/1/3
f 99/1/3 98/1/3 97/1/3
f 100/1/3 98/1/3 99/1/3
f 103/1/3 102/1/3 101/1/3
f 104/1/3 102/1/3 103/1/3
f 105/3/3 90/3/3 89/3/3
f 106/3/3 90/3/3 105/3/3
f 107/3/3 92/3/3 91/3/3
f 108/3/3 92/3/3 107/3/3
f 113/1/4 114/1/4 115/1/4
f 115/1/4 114/1/4 116/1/4
f 109/3/4 110/3/4 117/3/4
f 117/3/4 110/3/4 118/3/4
f 111/3/4 112/3/4 119/3/4
f 119/3/4 112/3/4 120/3/4
f 121/1/4 122/1/4 123/1/4
f 123/1/4 122/1/4 124/1/4
f 124/1/4 122/1/4 125/1/4
f 125/1/4 122/1/4 126/1/4
f 121/1/4 123/1/4 127/1/4
f 123/2/4 124/2/4 127/2/4
f 124/1/4 125/1/4 128/1/4
f 127/2/4 124/2/4 128/2/4
f 128/1/4 125/1/4 129/1/4
f 126/1/4 122/1/4 130/1/4
f 128/1/4 129/1/4 131/1/4
f 129/1/4 130/1/4 131/1/4
f 127/1/4 128/1/4 131/1/4
f 131/1/4 130/1/4 132/1/4
f 127/1/4 131/1/4 133/1/4
f 131/2/4 132/2/4 133/2/4
f 132/1/4 130/1/4 134/1/4
f 133/2/4 132/2/4 134/2/4
f 121/1/4 127/1/4 135/1/4
f 127/1/4 133/1/4 135/1/4
f 133/1/4 134/1/4 135/1/4
f 130/1/4 122/1/4 136/1/4
f 135/1/4 134/1/4 136/1/4
f 134/1/4 130/1/4 136/1/4
f 139/3/5 138/3/5 137/3/5
f 140/3/5 138/3/5 139/3/5
f 143/1/5 142/1/5 141/1/5
f 144/1/5 142/1/5 143/1/5
f 145/1/5 143/1/5 141/1/5
f 146/1/5 142/1/5 144/1/5
f 147/1/5 145/1/5 141/1/5
f 147/1/5 146/1/5 145/1/5
f 148/1/5 142/1/5 146/1/5
f 148/1/5 146/1/5 147/1/5
f 151/1/5 150/1/5 149/1/5
f 152/1/5 150/1/5 151/1/5
f 157/1/5 154/1/5 153/1/5
f 158/1/5 154/1/5 157/1/5
f 159/1/5 156/1/5 155/1/5
f 160/1/5 156/1/5 159/1/5
f 163/1/5 162/1/5 161/1/5
f 164/1/5 162/1/5 163/1/5
f 165/1/6 166/1/6 167/1/6
f 167/1/6 166/1/6 168/1/6
f 169/1/6 170/1/6 173/1/6
f 173/1/6 170/1/6 174/1/6
f 171/1/6 172/1/6 175/1/6
f 175/1/6 172/1/6 176/1/6
f 177/1/6 178/1/6 179/1/6
f 179/1/6 178/1/6 180/1/6
f 181/1/6 182/1/6 183/1/6
f 183/1/6 182/1/6 184/1/6
f 181/1/6 183/1/6 185/1/6
f 184/1/6 182/1/6 186/1/6
f 181/1/6 185/1/6 187/1/6
f 185/1/6 186/1/6 187/1/6
f 186/1/6 182/1/6 188/1/6
f 187/1/6 186/1/6 188/1/6
f 189/3/6 190/3/6 191/3/6
f 191/3/6 190/3/6 192/3/6
