# MagicaVoxel @ Ephtracy

# group
g door

# material
mtllib door.mtl
usemtl palette

# normals
vn -1 0 0
vn 1 0 0
vn 0 0 1
vn 0 0 -1
vn 0 -1 0
vn 0 1 0

# texcoords
vt 0.990234 0.5
vt 0.994141 0.5

# verts
v -25 1 9
v -25 1 8
v -25 1 5
v -25 1 -9
v -25 3 8
v -25 3 5
v -25 7 2
v -25 7 1
v -25 7 -3
v -25 7 -5
v -25 8 2
v -25 8 1
v -25 10 -3
v -25 10 -5
v -25 18 8
v -25 18 7
v -25 19 8
v -25 19 7
v -25 19 4
v -25 19 3
v -25 20 4
v -25 20 3
v -25 25 -5
v -25 25 -6
v -25 26 -5
v -25 26 -6
v -25 39 3
v -25 39 2
v -25 39 -5
v -25 39 -6
v -25 40 3
v -25 40 2
v -25 40 -5
v -25 40 -6
v -25 49 9
v -25 49 -9
v -24 0 10
v -24 0 8
v -24 0 5
v -24 0 -10
v -24 1 9
v -24 1 8
v -24 1 5
v -24 1 -9
v -24 19 4
v -24 19 3
v -24 20 4
v -24 20 3
v -24 25 -5
v -24 25 -6
v -24 26 -5
v -24 26 -6
v -24 39 3
v -24 39 2
v -24 40 3
v -24 40 2
v -24 49 9
v -24 49 -9
v -24 50 10
v -24 50 -10
v -23 0 8
v -23 0 5
v -23 1 8
v -23 1 5
v -23 3 8
v -23 3 5
v 24 0 10
v 24 0 -10
v 24 1 9
v 24 1 8
v 24 1 6
v 24 1 -9
v 24 20 -3
v 24 20 -4
v 24 21 -3
v 24 21 -4
v 24 22 2
v 24 22 1
v 24 23 2
v 24 23 1
v 24 33 9
v 24 33 8
v 24 34 9
v 24 34 8
v 24 34 -9
v 24 35 -9
v 24 49 9
v 24 49 -9
v 24 50 10
v 24 50 -10
v 25 1 9
v 25 1 8
v 25 1 6
v 25 1 -9
v 25 3 8
v 25 3 6
v 25 6 1
v 25 6 -0
v 25 7 1
v 25 7 -0
v 25 11 -6
v 25 11 -8
v 25 13 -6
v 25 13 -8
v 25 20 -3
v 25 20 -4
v 25 21 -3
v 25 21 -4
v 25 22 2
v 25 22 1
v 25 23 2
v 25 23 1
v 25 32 3
v 25 32 2
v 25 33 9
v 25 33 8
v 25 33 3
v 25 33 2
v 25 34 9
v 25 34 8
v 25 34 -8
v 25 34 -9
v 25 35 -8
v 25 35 -9
v 25 43 -5
v 25 43 -7
v 25 45 -5
v 25 45 -7
v 25 49 9
v 25 49 -9
v -24 0 10
v -24 50 10
v 24 0 10
v 24 50 10
v -25 1 9
v -25 49 9
v -24 1 9
v -24 49 9
v 24 1 9
v 24 33 9
v 24 34 9
v 24 49 9
v 25 1 9
v 25 33 9
v 25 34 9
v 25 49 9
v 24 33 8
v 24 34 8
v 25 33 8
v 25 34 8
v -25 1 5
v -25 3 5
v -24 0 5
v -24 1 5
v -23 0 5
v -23 1 5
v -23 3 5
v -25 19 3
v -25 20 3
v -24 19 3
v -24 20 3
v -25 39 2
v -25 40 2
v -24 39 2
v -24 40 2
v 24 22 1
v 24 23 1
v 25 22 1
v 25 23 1
v 24 20 -4
v 24 21 -4
v 25 20 -4
v 25 21 -4
v -25 25 -6
v -25 26 -6
v -24 25 -6
v -24 26 -6
v -25 1 8
v -25 3 8
v -24 0 8
v -24 1 8
v -23 0 8
v -23 1 8
v -23 3 8
v -25 19 4
v -25 20 4
v -24 19 4
v -24 20 4
v -25 39 3
v -25 40 3
v -24 39 3
v -24 40 3
v 24 22 2
v 24 23 2
v 25 22 2
v 25 23 2
v 24 20 -3
v 24 21 -3
v 25 20 -3
v 25 21 -3
v -25 25 -5
v -25 26 -5
v -24 25 -5
v -24 26 -5
v -25 1 -9
v -25 49 -9
v -24 1 -9
v -24 49 -9
v 24 1 -9
v 24 34 -9
v 24 35 -9
v 24 49 -9
v 25 1 -9
v 25 34 -9
v 25 35 -9
v 25 49 -9
v -24 0 -10
v -24 50 -10
v 24 0 -10
v 24 50 -10
v -24 0 10
v 24 0 10
v -24 0 8
v -23 0 8
v -24 0 5
v -23 0 5
v -24 0 -10
v 24 0 -10
v -25 1 9
v -24 1 9
v 24 1 9
v 25 1 9
v -25 1 8
v -24 1 8
v 24 1 8
v 25 1 8
v 24 1 6
v 25 1 6
v -25 1 5
v -24 1 5
v -25 1 -9
v -24 1 -9
v 24 1 -9
v 25 1 -9
v -25 3 8
v -23 3 8
v -25 3 5
v -23 3 5
v -25 20 4
v -24 20 4
v -25 20 3
v -24 20 3
v 24 21 -3
v 25 21 -3
v 24 21 -4
v 25 21 -4
v 24 23 2
v 25 23 2
v 24 23 1
v 25 23 1
v -25 26 -5
v -24 26 -5
v -25 26 -6
v -24 26 -6
v 24 34 9
v 25 34 9
v 24 34 8
v 25 34 8
v -25 40 3
v -24 40 3
v -25 40 2
v -24 40 2
v -25 19 4
v -24 19 4
v -25 19 3
v -24 19 3
v 24 20 -3
v 25 20 -3
v 24 20 -4
v 25 20 -4
v 24 22 2
v 25 22 2
v 24 22 1
v 25 22 1
v -25 25 -5
v -24 25 -5
v -25 25 -6
v -24 25 -6
v 24 33 9
v 25 33 9
v 24 33 8
v 25 33 8
v -25 39 3
v -24 39 3
v -25 39 2
v -24 39 2
v -25 49 9
v -24 49 9
v 24 49 9
v 25 49 9
v -25 49 -9
v -24 49 -9
v 24 49 -9
v 25 49 -9
v -24 50 10
v 24 50 10
v -24 50 -10
v 24 50 -10

# faces
f 5/1/1 2/1/1 1/1/1
f 6/1/1 4/1/1 3/1/1
f 7/1/1 4/1/1 6/1/1
f 7/1/1 6/1/1 5/1/1
f 8/1/1 4/1/1 7/1/1
f 9/1/1 4/1/1 8/1/1
f 10/1/1 4/1/1 9/1/1
f 11/1/1 7/1/1 5/1/1
f 11/2/1 8/2/1 7/2/1
f 12/1/1 9/1/1 8/1/1
f 12/2/1 8/2/1 11/2/1
f 13/2/1 10/2/1 9/2/1
f 13/1/1 9/1/1 12/1/1
f 13/1/1 12/1/1 11/1/1
f 14/1/1 4/1/1 10/1/1
f 14/2/1 10/2/1 13/2/1
f 15/1/1 5/1/1 1/1/1
f 15/1/1 13/1/1 11/1/1
f 15/1/1 14/1/1 13/1/1
f 15/1/1 11/1/1 5/1/1
f 16/1/1 14/1/1 15/1/1
f 17/1/1 15/1/1 1/1/1
f 17/2/1 16/2/1 15/2/1
f 18/1/1 14/1/1 16/1/1
f 18/2/1 16/2/1 17/2/1
f 19/1/1 14/1/1 18/1/1
f 20/1/1 14/1/1 19/1/1
f 21/1/1 18/1/1 17/1/1
f 21/1/1 19/1/1 18/1/1
f 22/1/1 14/1/1 20/1/1
f 23/1/1 4/1/1 14/1/1
f 23/1/1 22/1/1 21/1/1
f 23/1/1 14/1/1 22/1/1
f 24/1/1 4/1/1 23/1/1
f 25/1/1 23/1/1 21/1/1
f 26/1/1 4/1/1 24/1/1
f 27/1/1 25/1/1 21/1/1
f 27/1/1 26/1/1 25/1/1
f 28/1/1 26/1/1 27/1/1
f 29/1/1 26/1/1 28/1/1
f 30/1/1 4/1/1 26/1/1
f 30/1/1 26/1/1 29/1/1
f 31/1/1 27/1/1 21/1/1
f 32/1/1 29/1/1 28/1/1
f 33/2/1 30/2/1 29/2/1
f 33/1/1 29/1/1 32/1/1
f 34/1/1 4/1/1 30/1/1
f 34/2/1 30/2/1 33/2/1
f 35/1/1 17/1/1 1/1/1
f 35/1/1 21/1/1 17/1/1
f 35/1/1 34/1/1 33/1/1
f 35/1/1 31/1/1 21/1/1
f 35/1/1 32/1/1 31/1/1
f 35/1/1 33/1/1 32/1/1
f 36/1/1 4/1/1 34/1/1
f 36/1/1 34/1/1 35/1/1
f 41/2/1 38/2/1 37/2/1
f 42/2/1 38/2/1 41/2/1
f 43/2/1 40/2/1 39/2/1
f 44/2/1 40/2/1 43/2/1
f 47/1/1 46/1/1 45/1/1
f 48/1/1 46/1/1 47/1/1
f 51/1/1 50/1/1 49/1/1
f 52/1/1 50/1/1 51/1/1
f 55/1/1 54/1/1 53/1/1
f 56/1/1 54/1/1 55/1/1
f 57/2/1 41/2/1 37/2/1
f 58/2/1 40/2/1 44/2/1
f 59/2/1 57/2/1 37/2/1
f 59/2/1 58/2/1 57/2/1
f 60/2/1 40/2/1 58/2/1
f 60/2/1 58/2/1 59/2/1
f 63/2/1 62/2/1 61/2/1
f 64/2/1 62/2/1 63/2/1
f 65/2/1 64/2/1 63/2/1
f 66/2/1 64/2/1 65/2/1
f 67/2/2 68/2/2 69/2/2
f 69/2/2 68/2/2 70/2/2
f 70/2/2 68/2/2 71/2/2
f 71/2/2 68/2/2 72/2/2
f 73/1/2 74/1/2 75/1/2
f 75/1/2 74/1/2 76/1/2
f 77/1/2 78/1/2 79/1/2
f 79/1/2 78/1/2 80/1/2
f 67/2/2 69/2/2 81/2/2
f 67/2/2 81/2/2 83/2/2
f 81/1/2 82/1/2 83/1/2
f 83/1/2 82/1/2 84/1/2
f 72/2/2 68/2/2 85/2/2
f 85/2/2 68/2/2 86/2/2
f 67/2/2 83/2/2 87/2/2
f 86/2/2 68/2/2 88/2/2
f 67/2/2 87/2/2 89/2/2
f 87/2/2 88/2/2 89/2/2
f 88/2/2 68/2/2 90/2/2
f 89/2/2 88/2/2 90/2/2
f 91/1/2 92/1/2 95/1/2
f 92/2/2 93/2/2 95/2/2
f 93/1/2 94/1/2 96/1/2
f 95/2/2 93/2/2 96/2/2
f 95/1/2 96/1/2 97/1/2
f 96/1/2 94/1/2 97/1/2
f 97/1/2 94/1/2 98/1/2
f 95/1/2 97/1/2 99/1/2
f 97/2/2 98/2/2 99/2/2
f 98/1/2 94/1/2 100/1/2
f 99/2/2 98/2/2 100/2/2
f 99/1/2 100/1/2 101/1/2
f 100/1/2 94/1/2 101/1/2
f 101/1/2 94/1/2 102/1/2
f 99/1/2 101/1/2 103/1/2
f 101/2/2 102/2/2 103/2/2
f 102/1/2 94/1/2 104/1/2
f 103/2/2 102/2/2 104/2/2
f 99/1/2 103/1/2 105/1/2
f 103/1/2 104/1/2 105/1/2
f 105/1/2 104/1/2 106/1/2
f 99/1/2 105/1/2 107/1/2
f 106/1/2 104/1/2 108/1/2
f 95/1/2 99/1/2 109/1/2
f 107/1/2 108/1/2 109/1/2
f 99/1/2 107/1/2 109/1/2
f 109/1/2 108/1/2 110/1/2
f 95/1/2 109/1/2 111/1/2
f 110/1/2 108/1/2 112/1/2
f 95/1/2 111/1/2 113/1/2
f 111/1/2 112/1/2 113/1/2
f 113/1/2 112/1/2 114/1/2
f 91/1/2 95/1/2 115/1/2
f 95/1/2 113/1/2 115/1/2
f 115/1/2 113/1/2 116/1/2
f 113/2/2 114/2/2 117/2/2
f 116/1/2 113/1/2 117/1/2
f 114/1/2 112/1/2 118/1/2
f 117/2/2 114/2/2 118/2/2
f 116/1/2 117/1/2 120/1/2
f 117/1/2 118/1/2 120/1/2
f 108/1/2 104/1/2 121/1/2
f 104/1/2 94/1/2 121/1/2
f 120/1/2 118/1/2 121/1/2
f 112/1/2 108/1/2 121/1/2
f 118/1/2 112/1/2 121/1/2
f 121/1/2 94/1/2 122/1/2
f 119/1/2 120/1/2 123/1/2
f 120/1/2 121/1/2 123/1/2
f 121/2/2 122/2/2 123/2/2
f 123/2/2 122/2/2 124/2/2
f 119/1/2 123/1/2 125/1/2
f 123/1/2 124/1/2 125/1/2
f 125/1/2 124/1/2 126/1/2
f 119/1/2 125/1/2 127/1/2
f 125/2/2 126/2/2 127/2/2
f 126/1/2 124/1/2 128/1/2
f 127/2/2 126/2/2 128/2/2
f 119/1/2 127/1/2 129/1/2
f 127/1/2 128/1/2 129/1/2
f 128/1/2 124/1/2 130/1/2
f 129/1/2 128/1/2 130/1/2
f 133/2/3 132/2/3 131/2/3
f 134/2/3 132/2/3 133/2/3
f 137/1/3 136/1/3 135/1/3
f 138/1/3 136/1/3 137/1/3
f 143/1/3 140/1/3 139/1/3
f 144/1/3 140/1/3 143/1/3
f 145/1/3 142/1/3 141/1/3
f 146/1/3 142/1/3 145/1/3
f 149/1/3 148/1/3 147/1/3
f 150/1/3 148/1/3 149/1/3
f 154/1/3 152/1/3 151/1/3
f 155/2/3 154/2/3 153/2/3
f 156/1/3 152/1/3 154/1/3
f 156/2/3 154/2/3 155/2/3
f 157/1/3 152/1/3 156/1/3
f 160/1/3 159/1/3 158/1/3
f 161/1/3 159/1/3 160/1/3
f 164/1/3 163/1/3 162/1/3
f 165/1/3 163/1/3 164/1/3
f 168/1/3 167/1/3 166/1/3
f 169/1/3 167/1/3 168/1/3
f 172/1/3 171/1/3 170/1/3
f 173/1/3 171/1/3 172/1/3
f 176/1/3 175/1/3 174/1/3
f 177/1/3 175/1/3 176/1/3
f 178/1/4 179/1/4 181/1/4
f 180/2/4 181/2/4 182/2/4
f 181/1/4 179/1/4 183/1/4
f 182/2/4 181/2/4 183/2/4
f 183/1/4 179/1/4 184/1/4
f 185/1/4 186/1/4 187/1/4
f 187/1/4 186/1/4 188/1/4
f 189/1/4 190/1/4 191/1/4
f 191/1/4 190/1/4 192/1/4
f 193/1/4 194/1/4 195/1/4
f 195/1/4 194/1/4 196/1/4
f 197/1/4 198/1/4 199/1/4
f 199/1/4 198/1/4 200/1/4
f 201/1/4 202/1/4 203/1/4
f 203/1/4 202/1/4 204/1/4
f 205/1/4 206/1/4 207/1/4
f 207/1/4 206/1/4 208/1/4
f 209/1/4 210/1/4 213/1/4
f 210/2/4 211/2/4 214/2/4
f 213/1/4 210/1/4 214/1/4
f 211/1/4 212/1/4 215/1/4
f 214/2/4 211/2/4 215/2/4
f 215/1/4 212/1/4 216/1/4
f 217/2/4 218/2/4 219/2/4
f 219/2/4 218/2/4 220/2/4
f 223/2/5 222/2/5 221/2/5
f 224/2/5 222/2/5 223/2/5
f 226/2/5 222/2/5 224/2/5
f 227/2/5 226/2/5 225/2/5
f 228/2/5 222/2/5 226/2/5
f 228/2/5 226/2/5 227/2/5
f 233/1/5 230/1/5 229/1/5
f 234/1/5 230/1/5 233/1/5
f 235/1/5 232/1/5 231/1/5
f 236/1/5 232/1/5 235/1/5
f 237/2/5 236/2/5 235/2/5
f 238/2/5 236/2/5 237/2/5
f 241/1/5 240/1/5 239/1/5
f 242/1/5 240/1/5 241/1/5
f 243/1/5 238/1/5 237/1/5
f 244/1/5 238/1/5 243/1/5
f 247/1/5 246/1/5 245/1/5
f 248/1/5 246/1/5 247/1/5
f 251/1/5 250/1/5 249/1/5
f 252/1/5 250/1/5 251/1/5
f 255/1/5 254/1/5 253/1/5
f 256/1/5 254/1/5 255/1/5
f 259/1/5 258/1/5 257/1/5
f 260/1/5 258/1/5 259/1/5
f 263/1/5 262/1/5 261/1/5
f 264/1/5 262/1/5 263/1/5
f 267/1/5 266/1/5 265/1/5
f 268/1/5 266/1/5 267/1/5
f 271/1/5 270/1/5 269/1/5
f 272/1/5 270/1/5 271/1/5
f 273/1/6 274/1/6 275/1/6
f 275/1/6 274/1/6 276/1/6
f 277/1/6 278/1/6 279/1/6
f 279/1/6 278/1/6 280/1/6
f 281/1/6 282/1/6 283/1/6
f 283/1/6 282/1/6 284/1/6
f 285/1/6 286/1/6 287/1/6
f 287/1/6 286/1/6 288/1/6
f 289/1/6 290/1/6 291/1/6
f 291/1/6 290/1/6 292/1/6
f 293/1/6 294/1/6 295/1/6
f 295/1/6 294/1/6 296/1/6
f 297/1/6 298/1/6 301/1/6
f 301/1/6 298/1/6 302/1/6
f 299/1/6 300/1/6 303/1/6
f 303/1/6 300/1/6 304/1/6
f 305/2/6 306/2/6 307/2/6
f 307/2/6 306/2/6 308/2/6
