# MagicaVoxel @ Ephtracy

# group
g floor-02

# material
mtllib floor-02.mtl
usemtl palette

# normals
vn -1 0 0
vn 1 0 0
vn 0 0 1
vn 0 0 -1
vn 0 -1 0
vn 0 1 0

# texcoords
vt 0.951172 0.5
vt 0.990234 0.5
vt 0.994141 0.5

# verts
v -25 0 12.5
v -25 0 -12.5
v -25 25 12.5
v -25 25 -12.5
v -20 24 -6.5
v -20 24 -7.5
v -20 25 -6.5
v -20 25 -7.5
v -12 24 -2.5
v -12 24 -3.5
v -12 25 -2.5
v -12 25 -3.5
v 4 24 7.5
v 4 24 6.5
v 4 25 7.5
v 4 25 6.5
v 5 24 6.5
v 5 24 4.5
v 5 25 6.5
v 5 25 4.5
v 12 24 0.5
v 12 24 -0.5
v 12 25 0.5
v 12 25 -0.5
v -21 24 -6.5
v -21 24 -7.5
v -21 25 -6.5
v -21 25 -7.5
v -13 24 -2.5
v -13 24 -3.5
v -13 25 -2.5
v -13 25 -3.5
v 3 24 7.5
v 3 24 4.5
v 3 25 7.5
v 3 25 4.5
v 11 24 0.5
v 11 24 -0.5
v 11 25 0.5
v 11 25 -0.5
v 24 0 12.5
v 24 0 -12.5
v 24 1 11.5
v 24 1 -11.5
v 24 3 -5.5
v 24 3 -6.5
v 24 4 -5.5
v 24 4 -6.5
v 24 7 5.5
v 24 7 4.5
v 24 8 5.5
v 24 8 4.5
v 24 14 -5.5
v 24 14 -6.5
v 24 15 6.5
v 24 15 4.5
v 24 15 -5.5
v 24 15 -6.5
v 24 16 8.5
v 24 16 7.5
v 24 17 8.5
v 24 17 7.5
v 24 17 6.5
v 24 17 4.5
v 24 21 11.5
v 24 22 11.5
v 24 22 -6.5
v 24 22 -7.5
v 24 23 -6.5
v 24 23 -7.5
v 24 24 11.5
v 24 24 -11.5
v 24 25 12.5
v 24 25 -12.5
v 25 1 11.5
v 25 1 -11.5
v 25 3 -5.5
v 25 3 -6.5
v 25 4 -5.5
v 25 4 -6.5
v 25 7 5.5
v 25 7 4.5
v 25 8 5.5
v 25 8 4.5
v 25 14 -5.5
v 25 14 -6.5
v 25 14 -9.5
v 25 14 -10.5
v 25 15 6.5
v 25 15 4.5
v 25 15 -5.5
v 25 15 -6.5
v 25 15 -9.5
v 25 15 -10.5
v 25 16 8.5
v 25 16 7.5
v 25 17 8.5
v 25 17 7.5
v 25 17 6.5
v 25 17 4.5
v 25 17 0.5
v 25 17 -0.5
v 25 18 0.5
v 25 18 -0.5
v 25 19 0.5
v 25 19 -0.5
v 25 21 11.5
v 25 21 10.5
v 25 22 11.5
v 25 22 10.5
v 25 22 -6.5
v 25 22 -7.5
v 25 23 -6.5
v 25 23 -7.5
v 25 24 11.5
v 25 24 -11.5
v -25 0 12.5
v -25 25 12.5
v 24 0 12.5
v 24 25 12.5
v 24 1 11.5
v 24 21 11.5
v 24 22 11.5
v 24 24 11.5
v 25 1 11.5
v 25 21 11.5
v 25 22 11.5
v 25 24 11.5
v 24 16 7.5
v 24 17 7.5
v 25 16 7.5
v 25 17 7.5
v 3 24 4.5
v 3 25 4.5
v 5 24 4.5
v 5 25 4.5
v 24 7 4.5
v 24 8 4.5
v 24 15 4.5
v 24 17 4.5
v 25 7 4.5
v 25 8 4.5
v 25 15 4.5
v 25 17 4.5
v 11 24 -0.5
v 11 25 -0.5
v 12 24 -0.5
v 12 25 -0.5
v -13 24 -3.5
v -13 25 -3.5
v -12 24 -3.5
v -12 25 -3.5
v 24 3 -6.5
v 24 4 -6.5
v 24 14 -6.5
v 24 15 -6.5
v 25 3 -6.5
v 25 4 -6.5
v 25 14 -6.5
v 25 15 -6.5
v -21 24 -7.5
v -21 25 -7.5
v -20 24 -7.5
v -20 25 -7.5
v 24 22 -7.5
v 24 23 -7.5
v 25 22 -7.5
v 25 23 -7.5
v 24 16 8.5
v 24 17 8.5
v 25 16 8.5
v 25 17 8.5
v 3 24 7.5
v 3 25 7.5
v 4 24 7.5
v 4 25 7.5
v 4 24 6.5
v 4 25 6.5
v 5 24 6.5
v 5 25 6.5
v 24 15 6.5
v 24 17 6.5
v 25 15 6.5
v 25 17 6.5
v 24 7 5.5
v 24 8 5.5
v 25 7 5.5
v 25 8 5.5
v 11 24 0.5
v 11 25 0.5
v 12 24 0.5
v 12 25 0.5
v -13 24 -2.5
v -13 25 -2.5
v -12 24 -2.5
v -12 25 -2.5
v 24 3 -5.5
v 24 4 -5.5
v 24 14 -5.5
v 24 15 -5.5
v 25 3 -5.5
v 25 4 -5.5
v 25 14 -5.5
v 25 15 -5.5
v -21 24 -6.5
v -21 25 -6.5
v -20 24 -6.5
v -20 25 -6.5
v 24 22 -6.5
v 24 23 -6.5
v 25 22 -6.5
v 25 23 -6.5
v 24 1 -11.5
v 24 24 -11.5
v 25 1 -11.5
v 25 24 -11.5
v -25 0 -12.5
v -25 25 -12.5
v 24 0 -12.5
v 24 25 -12.5
v -25 0 12.5
v 24 0 12.5
v -25 0 -12.5
v 24 0 -12.5
v 24 1 11.5
v 25 1 11.5
v 24 1 -11.5
v 25 1 -11.5
v 24 4 -5.5
v 25 4 -5.5
v 24 4 -6.5
v 25 4 -6.5
v 24 8 5.5
v 25 8 5.5
v 24 8 4.5
v 25 8 4.5
v 24 15 -5.5
v 25 15 -5.5
v 24 15 -6.5
v 25 15 -6.5
v 24 17 8.5
v 25 17 8.5
v 24 17 7.5
v 25 17 7.5
v 24 17 6.5
v 25 17 6.5
v 24 17 4.5
v 25 17 4.5
v 24 23 -6.5
v 25 23 -6.5
v 24 23 -7.5
v 25 23 -7.5
v 24 3 -5.5
v 25 3 -5.5
v 24 3 -6.5
v 25 3 -6.5
v 24 7 5.5
v 25 7 5.5
v 24 7 4.5
v 25 7 4.5
v 24 14 -5.5
v 25 14 -5.5
v 24 14 -6.5
v 25 14 -6.5
v 24 15 6.5
v 25 15 6.5
v 24 15 4.5
v 25 15 4.5
v 24 16 8.5
v 25 16 8.5
v 24 16 7.5
v 25 16 7.5
v 24 22 -6.5
v 25 22 -6.5
v 24 22 -7.5
v 25 22 -7.5
v 24 24 11.5
v 25 24 11.5
v 3 24 7.5
v 4 24 7.5
v 4 24 6.5
v 5 24 6.5
v 3 24 4.5
v 5 24 4.5
v 11 24 0.5
v 12 24 0.5
v 11 24 -0.5
v 12 24 -0.5
v -13 24 -2.5
v -12 24 -2.5
v -13 24 -3.5
v -12 24 -3.5
v -21 24 -6.5
v -20 24 -6.5
v -21 24 -7.5
v -20 24 -7.5
v 24 24 -11.5
v 25 24 -11.5
v -25 25 12.5
v 24 25 12.5
v 20 25 11.5
v 22 25 11.5
v 20 25 10.5
v 22 25 10.5
v 3 25 7.5
v 4 25 7.5
v 4 25 6.5
v 5 25 6.5
v 3 25 4.5
v 5 25 4.5
v -14 25 3.5
v -13 25 3.5
v -14 25 2.5
v -13 25 2.5
v 11 25 0.5
v 12 25 0.5
v 11 25 -0.5
v 12 25 -0.5
v -13 25 -2.5
v -12 25 -2.5
v -13 25 -3.5
v -12 25 -3.5
v 4 25 -5.5
v 7 25 -5.5
v -21 25 -6.5
v -20 25 -6.5
v 14 25 -6.5
v 15 25 -6.5
v -21 25 -7.5
v -20 25 -7.5
v 4 25 -7.5
v 7 25 -7.5
v 14 25 -7.5
v 15 25 -7.5
v -25 25 -12.5
v 24 25 -12.5

# faces
f 3/3/1 2/3/1 1/3/1
f 4/3/1 2/3/1 3/3/1
f 7/3/1 6/3/1 5/3/1
f 8/3/1 6/3/1 7/3/1
f 11/3/1 10/3/1 9/3/1
f 12/3/1 10/3/1 11/3/1
f 15/3/1 14/3/1 13/3/1
f 16/3/1 14/3/1 15/3/1
f 19/3/1 18/3/1 17/3/1
f 20/3/1 18/3/1 19/3/1
f 23/3/1 22/3/1 21/3/1
f 24/3/1 22/3/1 23/3/1
f 25/3/2 26/3/2 27/3/2
f 27/3/2 26/3/2 28/3/2
f 29/3/2 30/3/2 31/3/2
f 31/3/2 30/3/2 32/3/2
f 33/3/2 34/3/2 35/3/2
f 35/3/2 34/3/2 36/3/2
f 37/3/2 38/3/2 39/3/2
f 39/3/2 38/3/2 40/3/2
f 41/3/2 42/3/2 43/3/2
f 43/3/2 42/3/2 44/3/2
f 45/3/2 46/3/2 47/3/2
f 47/3/2 46/3/2 48/3/2
f 49/3/2 50/3/2 51/3/2
f 51/3/2 50/3/2 52/3/2
f 53/3/2 54/3/2 57/3/2
f 57/3/2 54/3/2 58/3/2
f 59/3/2 60/3/2 61/3/2
f 61/3/2 60/3/2 62/3/2
f 55/3/2 56/3/2 63/3/2
f 63/3/2 56/3/2 64/3/2
f 41/3/2 43/3/2 65/3/2
f 41/3/2 65/3/2 66/3/2
f 67/3/2 68/3/2 69/3/2
f 69/3/2 68/3/2 70/3/2
f 41/3/2 66/3/2 71/3/2
f 44/3/2 42/3/2 72/3/2
f 41/3/2 71/3/2 73/3/2
f 71/3/2 72/3/2 73/3/2
f 72/3/2 42/3/2 74/3/2
f 73/3/2 72/3/2 74/3/2
f 75/2/2 76/2/2 77/2/2
f 77/2/2 76/2/2 78/2/2
f 75/2/2 77/2/2 79/2/2
f 78/2/2 76/2/2 80/2/2
f 75/2/2 79/2/2 81/2/2
f 79/2/2 80/2/2 81/2/2
f 81/2/2 80/2/2 82/2/2
f 75/2/2 81/2/2 83/2/2
f 82/2/2 80/2/2 84/2/2
f 84/2/2 80/2/2 85/2/2
f 83/2/2 84/2/2 85/2/2
f 80/2/2 76/2/2 86/2/2
f 85/2/2 80/2/2 86/2/2
f 86/2/2 76/2/2 87/2/2
f 87/2/2 76/2/2 88/2/2
f 83/2/2 85/2/2 89/2/2
f 75/2/2 83/2/2 89/2/2
f 89/2/2 85/2/2 90/2/2
f 90/2/2 85/2/2 91/2/2
f 86/2/2 87/2/2 92/2/2
f 87/1/2 88/1/2 93/1/2
f 92/2/2 87/2/2 93/2/2
f 88/2/2 76/2/2 94/2/2
f 93/1/2 88/1/2 94/1/2
f 75/2/2 89/2/2 95/2/2
f 95/2/2 89/2/2 96/2/2
f 75/2/2 95/2/2 97/2/2
f 96/2/2 89/2/2 98/2/2
f 98/2/2 89/2/2 99/2/2
f 92/2/2 93/2/2 100/2/2
f 91/2/2 92/2/2 100/2/2
f 90/2/2 91/2/2 100/2/2
f 93/2/2 94/2/2 100/2/2
f 100/2/2 94/2/2 101/2/2
f 101/2/2 94/2/2 102/2/2
f 98/2/2 99/2/2 103/2/2
f 97/2/2 98/2/2 103/2/2
f 101/3/2 102/3/2 103/3/2
f 100/2/2 101/2/2 103/2/2
f 99/2/2 100/2/2 103/2/2
f 102/2/2 94/2/2 104/2/2
f 103/3/2 102/3/2 104/3/2
f 97/2/2 103/2/2 105/2/2
f 103/1/2 104/1/2 105/1/2
f 104/2/2 94/2/2 106/2/2
f 105/1/2 104/1/2 106/1/2
f 97/2/2 105/2/2 107/2/2
f 75/2/2 97/2/2 107/2/2
f 105/2/2 106/2/2 107/2/2
f 107/2/2 106/2/2 108/2/2
f 107/1/2 108/1/2 109/1/2
f 108/2/2 106/2/2 110/2/2
f 109/1/2 108/1/2 110/1/2
f 106/2/2 94/2/2 111/2/2
f 110/2/2 106/2/2 111/2/2
f 111/2/2 94/2/2 112/2/2
f 109/2/2 110/2/2 113/2/2
f 110/2/2 111/2/2 113/2/2
f 112/2/2 94/2/2 114/2/2
f 109/2/2 113/2/2 115/2/2
f 113/2/2 114/2/2 115/2/2
f 114/2/2 94/2/2 116/2/2
f 115/2/2 114/2/2 116/2/2
f 94/2/2 76/2/2 116/2/2
f 119/3/3 118/3/3 117/3/3
f 120/3/3 118/3/3 119/3/3
f 125/2/3 122/2/3 121/2/3
f 126/1/3 123/1/3 122/1/3
f 126/2/3 122/2/3 125/2/3
f 127/2/3 124/2/3 123/2/3
f 127/1/3 123/1/3 126/1/3
f 128/2/3 124/2/3 127/2/3
f 131/2/3 130/2/3 129/2/3
f 132/2/3 130/2/3 131/2/3
f 135/3/3 134/3/3 133/3/3
f 136/3/3 134/3/3 135/3/3
f 141/2/3 138/2/3 137/2/3
f 142/2/3 138/2/3 141/2/3
f 143/2/3 140/2/3 139/2/3
f 144/2/3 140/2/3 143/2/3
f 147/3/3 146/3/3 145/3/3
f 148/3/3 146/3/3 147/3/3
f 151/3/3 150/3/3 149/3/3
f 152/3/3 150/3/3 151/3/3
f 157/2/3 154/2/3 153/2/3
f 158/2/3 154/2/3 157/2/3
f 159/2/3 156/2/3 155/2/3
f 160/2/3 156/2/3 159/2/3
f 163/3/3 162/3/3 161/3/3
f 164/3/3 162/3/3 163/3/3
f 167/2/3 166/2/3 165/2/3
f 168/2/3 166/2/3 167/2/3
f 169/2/4 170/2/4 171/2/4
f 171/2/4 170/2/4 172/2/4
f 173/3/4 174/3/4 175/3/4
f 175/3/4 174/3/4 176/3/4
f 177/3/4 178/3/4 179/3/4
f 179/3/4 178/3/4 180/3/4
f 181/2/4 182/2/4 183/2/4
f 183/2/4 182/2/4 184/2/4
f 185/2/4 186/2/4 187/2/4
f 187/2/4 186/2/4 188/2/4
f 189/3/4 190/3/4 191/3/4
f 191/3/4 190/3/4 192/3/4
f 193/3/4 194/3/4 195/3/4
f 195/3/4 194/3/4 196/3/4
f 197/2/4 198/2/4 201/2/4
f 201/2/4 198/2/4 202/2/4
f 199/2/4 200/2/4 203/2/4
f 203/2/4 200/2/4 204/2/4
f 205/3/4 206/3/4 207/3/4
f 207/3/4 206/3/4 208/3/4
f 209/2/4 210/2/4 211/2/4
f 211/2/4 210/2/4 212/2/4
f 213/2/4 214/2/4 215/2/4
f 215/2/4 214/2/4 216/2/4
f 217/3/4 218/3/4 219/3/4
f 219/3/4 218/3/4 220/3/4
f 223/3/5 222/3/5 221/3/5
f 224/3/5 222/3/5 223/3/5
f 227/2/5 226/2/5 225/2/5
f 228/2/5 226/2/5 227/2/5
f 231/2/5 230/2/5 229/2/5
f 232/2/5 230/2/5 231/2/5
f 235/2/5 234/2/5 233/2/5
f 236/2/5 234/2/5 235/2/5
f 239/2/5 238/2/5 237/2/5
f 240/2/5 238/2/5 239/2/5
f 243/2/5 242/2/5 241/2/5
f 244/2/5 242/2/5 243/2/5
f 247/2/5 246/2/5 245/2/5
f 248/2/5 246/2/5 247/2/5
f 251/2/5 250/2/5 249/2/5
f 252/2/5 250/2/5 251/2/5
f 253/2/6 254/2/6 255/2/6
f 255/2/6 254/2/6 256/2/6
f 257/2/6 258/2/6 259/2/6
f 259/2/6 258/2/6 260/2/6
f 261/2/6 262/2/6 263/2/6
f 263/2/6 262/2/6 264/2/6
f 265/2/6 266/2/6 267/2/6
f 267/2/6 266/2/6 268/2/6
f 269/2/6 270/2/6 271/2/6
f 271/2/6 270/2/6 272/2/6
f 273/2/6 274/2/6 275/2/6
f 275/2/6 274/2/6 276/2/6
f 279/3/6 280/3/6 281/3/6
f 279/3/6 281/3/6 283/3/6
f 281/3/6 282/3/6 283/3/6
f 283/3/6 282/3/6 284/3/6
f 285/3/6 286/3/6 287/3/6
f 287/3/6 286/3/6 288/3/6
f 289/3/6 290/3/6 291/3/6
f 291/3/6 290/3/6 292/3/6
f 293/3/6 294/3/6 295/3/6
f 295/3/6 294/3/6 296/3/6
f 277/2/6 278/2/6 297/2/6
f 297/2/6 278/2/6 298/2/6
f 299/3/6 300/3/6 301/3/6
f 301/3/6 300/3/6 302/3/6
f 299/3/6 301/3/6 303/3/6
f 301/2/6 302/2/6 303/2/6
f 302/3/6 300/3/6 304/3/6
f 303/2/6 302/2/6 304/2/6
f 299/3/6 303/3/6 305/3/6
f 303/3/6 304/3/6 305/3/6
f 305/3/6 304/3/6 306/3/6
f 306/3/6 304/3/6 307/3/6
f 307/3/6 304/3/6 308/3/6
f 299/3/6 305/3/6 309/3/6
f 308/3/6 304/3/6 310/3/6
f 299/3/6 309/3/6 311/3/6
f 309/3/6 310/3/6 311/3/6
f 311/3/6 310/3/6 312/3/6
f 299/3/6 311/3/6 313/3/6
f 311/2/6 312/2/6 313/2/6
f 312/3/6 310/3/6 314/3/6
f 313/2/6 312/2/6 314/2/6
f 310/3/6 304/3/6 315/3/6
f 314/3/6 310/3/6 315/3/6
f 313/3/6 314/3/6 315/3/6
f 315/3/6 304/3/6 316/3/6
f 313/3/6 315/3/6 317/3/6
f 316/3/6 304/3/6 318/3/6
f 313/3/6 317/3/6 319/3/6
f 317/3/6 318/3/6 319/3/6
f 319/3/6 318/3/6 320/3/6
f 313/3/6 319/3/6 321/3/6
f 320/3/6 318/3/6 322/3/6
f 322/3/6 318/3/6 323/3/6
f 321/3/6 322/3/6 323/3/6
f 323/3/6 318/3/6 324/3/6
f 299/3/6 313/3/6 325/3/6
f 313/3/6 321/3/6 325/3/6
f 321/3/6 323/3/6 325/3/6
f 325/3/6 323/3/6 326/3/6
f 324/3/6 318/3/6 327/3/6
f 318/3/6 304/3/6 327/3/6
f 327/3/6 304/3/6 328/3/6
f 299/3/6 325/3/6 329/3/6
f 326/3/6 323/3/6 330/3/6
f 323/2/6 324/2/6 331/2/6
f 330/3/6 323/3/6 331/3/6
f 324/3/6 327/3/6 332/3/6
f 331/2/6 324/2/6 332/2/6
f 327/2/6 328/2/6 333/2/6
f 332/3/6 327/3/6 333/3/6
f 328/3/6 304/3/6 334/3/6
f 333/2/6 328/2/6 334/2/6
f 299/3/6 329/3/6 335/3/6
f 332/3/6 333/3/6 335/3/6
f 333/3/6 334/3/6 335/3/6
f 329/3/6 330/3/6 335/3/6
f 330/3/6 331/3/6 335/3/6
f 331/3/6 332/3/6 335/3/6
f 304/3/6 300/3/6 336/3/6
f 335/3/6 334/3/6 336/3/6
f 334/3/6 304/3/6 336/3/6
