# MagicaVoxel @ Ephtracy

# group
g floor-01

# material
mtllib floor-01.mtl
usemtl palette

# normals
vn -1 0 0
vn 1 0 0
vn 0 0 1
vn 0 0 -1
vn 0 -1 0
vn 0 1 0

# texcoords
vt 0.955078 0.5
vt 0.990234 0.5
vt 0.994141 0.5

# verts
v -25 0 25
v -25 0 -25
v -25 50 25
v -25 50 -25
v -17 49 17
v -17 49 16
v -17 49 -1
v -17 49 -2
v -17 50 17
v -17 50 16
v -17 50 -1
v -17 50 -2
v 13 49 7
v 13 49 6
v 13 50 7
v 13 50 6
v -18 49 17
v -18 49 16
v -18 49 -1
v -18 49 -2
v -18 50 17
v -18 50 16
v -18 50 -1
v -18 50 -2
v 12 49 7
v 12 49 6
v 12 50 7
v 12 50 6
v 25 0 25
v 25 0 -25
v 25 50 25
v 25 50 -25
v -25 0 25
v -25 50 25
v 25 0 25
v 25 50 25
v -18 49 16
v -18 50 16
v -17 49 16
v -17 50 16
v 12 49 6
v 12 50 6
v 13 49 6
v 13 50 6
v -18 49 -2
v -18 50 -2
v -17 49 -2
v -17 50 -2
v -18 49 17
v -18 50 17
v -17 49 17
v -17 50 17
v 12 49 7
v 12 50 7
v 13 49 7
v 13 50 7
v -18 49 -1
v -18 50 -1
v -17 49 -1
v -17 50 -1
v -25 0 -25
v -25 50 -25
v 25 0 -25
v 25 50 -25
v -25 0 25
v 25 0 25
v -25 0 -25
v 25 0 -25
v -18 49 17
v -17 49 17
v -18 49 16
v -17 49 16
v 12 49 7
v 13 49 7
v 12 49 6
v 13 49 6
v -18 49 -1
v -17 49 -1
v -18 49 -2
v -17 49 -2
v -25 50 25
v 25 50 25
v -18 50 17
v -17 50 17
v -18 50 16
v -17 50 16
v 2 50 16
v 4 50 16
v 19 50 14
v 20 50 14
v -15 50 13
v -14 50 13
v 2 50 13
v 4 50 13
v 19 50 13
v 20 50 13
v -15 50 12
v -14 50 12
v -4 50 12
v -3 50 12
v -4 50 11
v -3 50 11
v 12 50 7
v 13 50 7
v 12 50 6
v 13 50 6
v -18 50 -1
v -17 50 -1
v -18 50 -2
v -17 50 -2
v -16 50 -5
v -15 50 -5
v -16 50 -6
v -15 50 -6
v -7 50 -8
v -6 50 -8
v -7 50 -9
v -6 50 -9
v 16 50 -9
v 18 50 -9
v 16 50 -12
v 18 50 -12
v 13 50 -15
v 15 50 -15
v 13 50 -17
v 15 50 -17
v 16 50 -17
v 17 50 -17
v 16 50 -18
v 17 50 -18
v -23 50 -21
v -22 50 -21
v -23 50 -22
v -22 50 -22
v -25 50 -25
v 25 50 -25

# faces
f 3/3/1 2/3/1 1/3/1
f 4/3/1 2/3/1 3/3/1
f 9/3/1 6/3/1 5/3/1
f 10/3/1 6/3/1 9/3/1
f 11/3/1 8/3/1 7/3/1
f 12/3/1 8/3/1 11/3/1
f 15/3/1 14/3/1 13/3/1
f 16/3/1 14/3/1 15/3/1
f 17/3/2 18/3/2 21/3/2
f 21/3/2 18/3/2 22/3/2
f 19/3/2 20/3/2 23/3/2
f 23/3/2 20/3/2 24/3/2
f 25/3/2 26/3/2 27/3/2
f 27/3/2 26/3/2 28/3/2
f 29/3/2 30/3/2 31/3/2
f 31/3/2 30/3/2 32/3/2
f 35/3/3 34/3/3 33/3/3
f 36/3/3 34/3/3 35/3/3
f 39/3/3 38/3/3 37/3/3
f 40/3/3 38/3/3 39/3/3
f 43/3/3 42/3/3 41/3/3
f 44/3/3 42/3/3 43/3/3
f 47/3/3 46/3/3 45/3/3
f 48/3/3 46/3/3 47/3/3
f 49/3/4 50/3/4 51/3/4
f 51/3/4 50/3/4 52/3/4
f 53/3/4 54/3/4 55/3/4
f 55/3/4 54/3/4 56/3/4
f 57/3/4 58/3/4 59/3/4
f 59/3/4 58/3/4 60/3/4
f 61/3/4 62/3/4 63/3/4
f 63/3/4 62/3/4 64/3/4
f 67/3/5 66/3/5 65/3/5
f 68/3/5 66/3/5 67/3/5
f 69/3/6 70/3/6 71/3/6
f 71/3/6 70/3/6 72/3/6
f 73/3/6 74/3/6 75/3/6
f 75/3/6 74/3/6 76/3/6
f 77/3/6 78/3/6 79/3/6
f 79/3/6 78/3/6 80/3/6
f 81/3/6 82/3/6 83/3/6
f 83/3/6 82/3/6 84/3/6
f 81/3/6 83/3/6 85/3/6
f 84/3/6 82/3/6 86/3/6
f 86/3/6 82/3/6 87/3/6
f 87/3/6 82/3/6 88/3/6
f 88/3/6 82/3/6 89/3/6
f 89/3/6 82/3/6 90/3/6
f 85/3/6 86/3/6 91/3/6
f 86/3/6 87/3/6 91/3/6
f 91/3/6 87/3/6 92/3/6
f 87/2/6 88/2/6 93/2/6
f 92/3/6 87/3/6 93/3/6
f 88/3/6 89/3/6 94/3/6
f 93/2/6 88/2/6 94/2/6
f 89/2/6 90/2/6 95/2/6
f 94/3/6 89/3/6 95/3/6
f 90/3/6 82/3/6 96/3/6
f 95/2/6 90/2/6 96/2/6
f 91/1/6 92/1/6 97/1/6
f 85/3/6 91/3/6 97/3/6
f 94/3/6 95/3/6 98/3/6
f 97/1/6 92/1/6 98/1/6
f 93/3/6 94/3/6 98/3/6
f 95/3/6 96/3/6 98/3/6
f 92/3/6 93/3/6 98/3/6
f 98/3/6 96/3/6 99/3/6
f 99/3/6 96/3/6 100/3/6
f 97/3/6 98/3/6 101/3/6
f 98/3/6 99/3/6 101/3/6
f 99/2/6 100/2/6 101/2/6
f 100/3/6 96/3/6 102/3/6
f 101/2/6 100/2/6 102/2/6
f 101/3/6 102/3/6 103/3/6
f 102/3/6 96/3/6 103/3/6
f 103/3/6 96/3/6 104/3/6
f 101/3/6 103/3/6 105/3/6
f 104/3/6 96/3/6 106/3/6
f 81/3/6 85/3/6 107/3/6
f 105/3/6 106/3/6 107/3/6
f 85/3/6 97/3/6 107/3/6
f 97/3/6 101/3/6 107/3/6
f 101/3/6 105/3/6 107/3/6
f 107/3/6 106/3/6 108/3/6
f 81/3/6 107/3/6 109/3/6
f 108/3/6 106/3/6 110/3/6
f 110/3/6 106/3/6 111/3/6
f 109/3/6 110/3/6 111/3/6
f 111/3/6 106/3/6 112/3/6
f 109/3/6 111/3/6 113/3/6
f 111/2/6 112/2/6 113/2/6
f 112/3/6 106/3/6 114/3/6
f 113/2/6 112/2/6 114/2/6
f 113/3/6 114/3/6 115/3/6
f 114/3/6 106/3/6 115/3/6
f 115/3/6 106/3/6 116/3/6
f 113/3/6 115/3/6 117/3/6
f 115/1/6 116/1/6 117/1/6
f 116/3/6 106/3/6 118/3/6
f 117/1/6 116/1/6 118/1/6
f 106/3/6 96/3/6 119/3/6
f 118/3/6 106/3/6 119/3/6
f 119/3/6 96/3/6 120/3/6
f 117/3/6 118/3/6 121/3/6
f 118/3/6 119/3/6 121/3/6
f 119/2/6 120/2/6 121/2/6
f 120/3/6 96/3/6 122/3/6
f 121/2/6 120/2/6 122/2/6
f 117/3/6 121/3/6 123/3/6
f 121/3/6 122/3/6 123/3/6
f 123/3/6 122/3/6 124/3/6
f 117/3/6 123/3/6 125/3/6
f 123/1/6 124/1/6 125/1/6
f 124/3/6 122/3/6 126/3/6
f 125/1/6 124/1/6 126/1/6
f 126/3/6 122/3/6 127/3/6
f 127/3/6 122/3/6 128/3/6
f 125/3/6 126/3/6 129/3/6
f 126/3/6 127/3/6 129/3/6
f 127/2/6 128/2/6 129/2/6
f 128/3/6 122/3/6 130/3/6
f 129/2/6 128/2/6 130/2/6
f 81/3/6 109/3/6 131/3/6
f 109/3/6 113/3/6 131/3/6
f 129/3/6 130/3/6 131/3/6
f 125/3/6 129/3/6 131/3/6
f 117/3/6 125/3/6 131/3/6
f 113/3/6 117/3/6 131/3/6
f 131/3/6 130/3/6 132/3/6
f 81/3/6 131/3/6 133/3/6
f 131/2/6 132/2/6 133/2/6
f 132/3/6 130/3/6 134/3/6
f 133/2/6 132/2/6 134/2/6
f 81/3/6 133/3/6 135/3/6
f 133/3/6 134/3/6 135/3/6
f 122/3/6 96/3/6 136/3/6
f 135/3/6 134/3/6 136/3/6
f 96/3/6 82/3/6 136/3/6
f 134/3/6 130/3/6 136/3/6
f 130/3/6 122/3/6 136/3/6
