# MagicaVoxel @ Ephtracy

# group
g floor-04

# material
mtllib floor-04.mtl
usemtl palette

# normals
vn -1 0 0
vn 1 0 0
vn 0 0 1
vn 0 0 -1
vn 0 -1 0
vn 0 1 0

# texcoords
vt 0.919922 0.5
vt 0.923828 0.5
vt 0.927734 0.5
vt 0.931641 0.5
vt 0.939453 0.5

# verts
v -25 0 25
v -25 0 -25
v -25 48 1
v -25 48 -1
v -25 48 -14
v -25 48 -23
v -25 49 25
v -25 49 1
v -25 49 -1
v -25 49 -14
v -25 49 -23
v -25 49 -25
v -24 49 24
v -24 49 4
v -24 49 1
v -24 49 -1
v -24 49 -14
v -24 49 -23
v -24 49 -24
v -24 50 24
v -24 50 4
v -24 50 1
v -24 50 -1
v -24 50 -24
v -13 49 18
v -13 49 16
v -13 49 -5
v -13 49 -6
v -13 50 18
v -13 50 16
v -13 50 -5
v -13 50 -6
v 1 49 24
v 1 49 4
v 1 49 3
v 1 49 1
v 1 49 -1
v 1 49 -4
v 1 49 -6
v 1 49 -10
v 1 49 -24
v 1 50 24
v 1 50 4
v 1 50 3
v 1 50 1
v 1 50 -1
v 1 50 -4
v 1 50 -6
v 1 50 -10
v 1 50 -24
v 3 49 4
v 3 49 3
v 3 50 4
v 3 50 3
v 4 49 20
v 4 49 19
v 4 50 20
v 4 50 19
v 8 49 -5
v 8 49 -6
v 8 50 -5
v 8 50 -6
v 17 49 10
v 17 49 9
v 17 50 10
v 17 50 9
v 23 49 4
v 23 49 2
v 23 50 4
v 23 50 2
v -15 49 18
v -15 49 16
v -15 50 18
v -15 50 16
v -14 49 -5
v -14 49 -6
v -14 50 -5
v -14 50 -6
v -2 49 -23
v -2 49 -24
v -2 50 -23
v -2 50 -24
v -1 49 24
v -1 49 1
v -1 49 -1
v -1 49 -23
v -1 50 24
v -1 50 1
v -1 50 -1
v -1 50 -23
v 3 49 20
v 3 49 19
v 3 50 20
v 3 50 19
v 7 49 -5
v 7 49 -6
v 7 50 -5
v 7 50 -6
v 16 49 10
v 16 49 9
v 16 50 10
v 16 50 9
v 21 49 4
v 21 49 2
v 21 50 4
v 21 50 2
v 24 49 24
v 24 49 1
v 24 49 -1
v 24 49 -24
v 24 50 24
v 24 50 1
v 24 50 -1
v 24 50 -24
v 25 0 25
v 25 0 -25
v 25 49 25
v 25 49 -25
v -25 0 25
v -25 49 25
v 25 0 25
v 25 49 25
v -24 49 24
v -24 50 24
v -1 49 24
v -1 50 24
v 1 49 24
v 1 50 24
v 24 49 24
v 24 50 24
v 3 49 19
v 3 50 19
v 4 49 19
v 4 50 19
v -15 49 16
v -15 50 16
v -13 49 16
v -13 50 16
v 16 49 9
v 16 50 9
v 17 49 9
v 17 50 9
v 1 49 3
v 1 50 3
v 3 49 3
v 3 50 3
v 21 49 2
v 21 50 2
v 23 49 2
v 23 50 2
v -24 49 -1
v -24 50 -1
v -16 49 -1
v -1 49 -1
v -1 50 -1
v 1 49 -1
v 1 50 -1
v 4 49 -1
v 4 50 -1
v 6 49 -1
v 6 50 -1
v 24 49 -1
v 24 50 -1
v -14 49 -6
v -14 50 -6
v -13 49 -6
v -13 50 -6
v 7 49 -6
v 7 50 -6
v 8 49 -6
v 8 50 -6
v 3 49 20
v 3 50 20
v 4 49 20
v 4 50 20
v -15 49 18
v -15 50 18
v -13 49 18
v -13 50 18
v 16 49 10
v 16 50 10
v 17 49 10
v 17 50 10
v 1 49 4
v 1 50 4
v 3 49 4
v 3 50 4
v 21 49 4
v 21 50 4
v 23 49 4
v 23 50 4
v -24 49 1
v -24 50 1
v -20 49 1
v -20 50 1
v -16 49 1
v -1 49 1
v -1 50 1
v 1 49 1
v 1 50 1
v 24 49 1
v 24 50 1
v -14 49 -5
v -14 50 -5
v -13 49 -5
v -13 50 -5
v 7 49 -5
v 7 50 -5
v 8 49 -5
v 8 50 -5
v -2 49 -23
v -2 50 -23
v -1 49 -23
v -1 50 -23
v -24 49 -24
v -24 50 -24
v -2 49 -24
v -2 50 -24
v 1 49 -24
v 1 50 -24
v 24 49 -24
v 24 50 -24
v -25 0 -25
v -25 49 -25
v -2 48 -25
v -2 49 -25
v 1 48 -25
v 1 49 -25
v 25 0 -25
v 25 49 -25
v -25 0 25
v 25 0 25
v -25 0 -25
v 25 0 -25
v -25 49 25
v 25 49 25
v -24 49 24
v -1 49 24
v 1 49 24
v 24 49 24
v 3 49 20
v 4 49 20
v 3 49 19
v 4 49 19
v -15 49 18
v -13 49 18
v -15 49 16
v -13 49 16
v 16 49 10
v 17 49 10
v 16 49 9
v 17 49 9
v -24 49 4
v 1 49 4
v 3 49 4
v 21 49 4
v 23 49 4
v 1 49 3
v 3 49 3
v 21 49 2
v 23 49 2
v -25 49 1
v -24 49 1
v -20 49 1
v -16 49 1
v -1 49 1
v 1 49 1
v 24 49 1
v 4 49 -0
v 6 49 -0
v -25 49 -1
v -24 49 -1
v -16 49 -1
v -1 49 -1
v 1 49 -1
v 4 49 -1
v 6 49 -1
v 24 49 -1
v 1 49 -4
v -14 49 -5
v -13 49 -5
v 7 49 -5
v 8 49 -5
v -14 49 -6
v -13 49 -6
v 1 49 -6
v 7 49 -6
v 8 49 -6
v 1 49 -10
v -25 49 -14
v -24 49 -14
v -25 49 -23
v -24 49 -23
v -2 49 -23
v -1 49 -23
v -24 49 -24
v -2 49 -24
v 1 49 -24
v 24 49 -24
v -25 49 -25
v -2 49 -25
v 1 49 -25
v 25 49 -25
v -24 50 24
v -1 50 24
v 1 50 24
v 24 50 24
v 3 50 20
v 4 50 20
v 3 50 19
v 4 50 19
v 11 50 19
v 15 50 19
v -23 50 18
v -20 50 18
v -15 50 18
v -13 50 18
v -23 50 17
v -20 50 17
v -15 50 16
v -13 50 16
v 11 50 15
v 15 50 15
v 16 50 10
v 17 50 10
v 16 50 9
v 17 50 9
v 4 50 8
v 7 50 8
v 4 50 6
v 7 50 6
v -24 50 4
v -20 50 4
v 1 50 4
v 3 50 4
v 21 50 4
v 23 50 4
v 1 50 3
v 3 50 3
v 21 50 2
v 23 50 2
v -24 50 1
v -20 50 1
v -1 50 1
v 1 50 1
v 24 50 1
v -24 50 -1
v -1 50 -1
v 1 50 -1
v 4 50 -1
v 6 50 -1
v 24 50 -1
v 4 50 -2
v 6 50 -2
v 1 50 -4
v 5 50 -4
v -14 50 -5
v -13 50 -5
v 7 50 -5
v 8 50 -5
v -14 50 -6
v -13 50 -6
v 1 50 -6
v 2 50 -6
v 7 50 -6
v 8 50 -6
v 2 50 -9
v 3 50 -9
v 5 50 -9
v -8 50 -10
v -6 50 -10
v 1 50 -10
v 3 50 -10
v -20 50 -12
v -17 50 -12
v -8 50 -12
v -6 50 -12
v 16 50 -12
v 19 50 -12
v -16 50 -13
v -15 50 -13
v -16 50 -14
v -15 50 -14
v -20 50 -15
v -17 50 -15
v 9 50 -15
v 10 50 -15
v 16 50 -15
v 19 50 -15
v 9 50 -16
v 10 50 -16
v 9 50 -18
v 10 50 -18
v 9 50 -19
v 10 50 -19
v -7 50 -20
v -3 50 -20
v -13 50 -21
v -12 50 -21
v -13 50 -22
v -12 50 -22
v -7 50 -22
v -3 50 -22
v -2 50 -23
v -1 50 -23
v -24 50 -24
v -2 50 -24
v 1 50 -24
v 24 50 -24

# faces
f 3/4/1 2/4/1 1/4/1
f 4/4/1 2/4/1 3/4/1
f 5/4/1 2/4/1 4/4/1
f 6/4/1 2/4/1 5/4/1
f 7/4/1 3/4/1 1/4/1
f 8/5/1 4/5/1 3/5/1
f 8/4/1 3/4/1 7/4/1
f 9/4/1 5/4/1 4/4/1
f 9/5/1 4/5/1 8/5/1
f 10/5/1 6/5/1 5/5/1
f 10/4/1 5/4/1 9/4/1
f 11/4/1 2/4/1 6/4/1
f 11/5/1 6/5/1 10/5/1
f 12/4/1 2/4/1 11/4/1
f 20/1/1 14/1/1 13/1/1
f 21/3/1 15/3/1 14/3/1
f 21/1/1 14/1/1 20/1/1
f 22/3/1 15/3/1 21/3/1
f 23/1/1 19/1/1 18/1/1
f 23/1/1 17/1/1 16/1/1
f 23/1/1 18/1/1 17/1/1
f 24/1/1 19/1/1 23/1/1
f 29/1/1 26/1/1 25/1/1
f 30/1/1 26/1/1 29/1/1
f 31/1/1 28/1/1 27/1/1
f 32/1/1 28/1/1 31/1/1
f 42/1/1 34/1/1 33/1/1
f 43/1/1 34/1/1 42/1/1
f 44/1/1 36/1/1 35/1/1
f 45/1/1 36/1/1 44/1/1
f 46/1/1 38/1/1 37/1/1
f 47/2/1 39/2/1 38/2/1
f 47/1/1 38/1/1 46/1/1
f 48/3/1 40/3/1 39/3/1
f 48/2/1 39/2/1 47/2/1
f 49/1/1 41/1/1 40/1/1
f 49/3/1 40/3/1 48/3/1
f 50/1/1 41/1/1 49/1/1
f 53/1/1 52/1/1 51/1/1
f 54/1/1 52/1/1 53/1/1
f 57/1/1 56/1/1 55/1/1
f 58/1/1 56/1/1 57/1/1
f 61/1/1 60/1/1 59/1/1
f 62/1/1 60/1/1 61/1/1
f 65/1/1 64/1/1 63/1/1
f 66/1/1 64/1/1 65/1/1
f 69/1/1 68/1/1 67/1/1
f 70/1/1 68/1/1 69/1/1
f 71/1/2 72/1/2 73/1/2
f 73/1/2 72/1/2 74/1/2
f 75/1/2 76/1/2 77/1/2
f 77/1/2 76/1/2 78/1/2
f 79/1/2 80/1/2 81/1/2
f 81/1/2 80/1/2 82/1/2
f 83/1/2 84/1/2 87/1/2
f 87/1/2 84/1/2 88/1/2
f 85/1/2 86/1/2 89/1/2
f 89/1/2 86/1/2 90/1/2
f 91/1/2 92/1/2 93/1/2
f 93/1/2 92/1/2 94/1/2
f 95/1/2 96/1/2 97/1/2
f 97/1/2 96/1/2 98/1/2
f 99/1/2 100/1/2 101/1/2
f 101/1/2 100/1/2 102/1/2
f 103/1/2 104/1/2 105/1/2
f 105/1/2 104/1/2 106/1/2
f 107/1/2 108/1/2 111/1/2
f 111/1/2 108/1/2 112/1/2
f 109/1/2 110/1/2 113/1/2
f 113/1/2 110/1/2 114/1/2
f 115/4/2 116/4/2 117/4/2
f 117/4/2 116/4/2 118/4/2
f 121/4/3 120/4/3 119/4/3
f 122/4/3 120/4/3 121/4/3
f 125/1/3 124/1/3 123/1/3
f 126/1/3 124/1/3 125/1/3
f 129/1/3 128/1/3 127/1/3
f 130/1/3 128/1/3 129/1/3
f 133/1/3 132/1/3 131/1/3
f 134/1/3 132/1/3 133/1/3
f 137/1/3 136/1/3 135/1/3
f 138/1/3 136/1/3 137/1/3
f 141/1/3 140/1/3 139/1/3
f 142/1/3 140/1/3 141/1/3
f 145/1/3 144/1/3 143/1/3
f 146/1/3 144/1/3 145/1/3
f 149/1/3 148/1/3 147/1/3
f 150/1/3 148/1/3 149/1/3
f 153/1/3 152/1/3 151/1/3
f 154/1/3 152/1/3 153/1/3
f 155/1/3 152/1/3 154/1/3
f 158/1/3 157/1/3 156/1/3
f 159/1/3 157/1/3 158/1/3
f 160/2/3 159/2/3 158/2/3
f 161/2/3 159/2/3 160/2/3
f 162/1/3 161/1/3 160/1/3
f 163/1/3 161/1/3 162/1/3
f 166/1/3 165/1/3 164/1/3
f 167/1/3 165/1/3 166/1/3
f 170/1/3 169/1/3 168/1/3
f 171/1/3 169/1/3 170/1/3
f 172/1/4 173/1/4 174/1/4
f 174/1/4 173/1/4 175/1/4
f 176/1/4 177/1/4 178/1/4
f 178/1/4 177/1/4 179/1/4
f 180/1/4 181/1/4 182/1/4
f 182/1/4 181/1/4 183/1/4
f 184/1/4 185/1/4 186/1/4
f 186/1/4 185/1/4 187/1/4
f 188/1/4 189/1/4 190/1/4
f 190/1/4 189/1/4 191/1/4
f 192/3/4 193/3/4 194/3/4
f 194/3/4 193/3/4 195/3/4
f 194/1/4 195/1/4 196/1/4
f 196/1/4 195/1/4 197/1/4
f 197/1/4 195/1/4 198/1/4
f 199/1/4 200/1/4 201/1/4
f 201/1/4 200/1/4 202/1/4
f 203/1/4 204/1/4 205/1/4
f 205/1/4 204/1/4 206/1/4
f 207/1/4 208/1/4 209/1/4
f 209/1/4 208/1/4 210/1/4
f 211/1/4 212/1/4 213/1/4
f 213/1/4 212/1/4 214/1/4
f 215/1/4 216/1/4 217/1/4
f 217/1/4 216/1/4 218/1/4
f 219/1/4 220/1/4 221/1/4
f 221/1/4 220/1/4 222/1/4
f 223/4/4 224/4/4 225/4/4
f 225/4/4 224/4/4 226/4/4
f 223/4/4 225/4/4 227/4/4
f 225/5/4 226/5/4 227/5/4
f 227/5/4 226/5/4 228/5/4
f 223/4/4 227/4/4 229/4/4
f 227/4/4 228/4/4 229/4/4
f 229/4/4 228/4/4 230/4/4
f 233/4/5 232/4/5 231/4/5
f 234/4/5 232/4/5 233/4/5
f 235/4/6 236/4/6 237/4/6
f 237/4/6 236/4/6 238/4/6
f 238/4/6 236/4/6 239/4/6
f 239/4/6 236/4/6 240/4/6
f 241/4/6 242/4/6 243/4/6
f 243/4/6 242/4/6 244/4/6
f 245/4/6 246/4/6 247/4/6
f 247/4/6 246/4/6 248/4/6
f 249/4/6 250/4/6 251/4/6
f 251/4/6 250/4/6 252/4/6
f 235/4/6 237/4/6 253/4/6
f 238/4/6 239/4/6 254/4/6
f 254/4/6 255/4/6 258/4/6
f 238/4/6 254/4/6 258/4/6
f 258/4/6 255/4/6 259/4/6
f 256/4/6 257/4/6 260/4/6
f 260/4/6 257/4/6 261/4/6
f 235/4/6 253/4/6 262/4/6
f 262/4/6 253/4/6 263/4/6
f 238/4/6 258/4/6 266/4/6
f 266/4/6 258/4/6 267/4/6
f 240/4/6 236/4/6 268/4/6
f 267/4/6 268/4/6 269/4/6
f 269/4/6 268/4/6 270/4/6
f 264/5/6 265/5/6 271/5/6
f 262/5/6 263/5/6 271/5/6
f 263/5/6 264/5/6 271/5/6
f 271/5/6 265/5/6 272/5/6
f 265/4/6 266/4/6 273/4/6
f 272/5/6 265/5/6 273/5/6
f 266/5/6 267/5/6 274/5/6
f 273/4/6 266/4/6 274/4/6
f 267/4/6 269/4/6 275/4/6
f 274/5/6 267/5/6 275/5/6
f 269/2/6 270/2/6 276/2/6
f 275/4/6 269/4/6 276/4/6
f 270/4/6 268/4/6 277/4/6
f 276/2/6 270/2/6 277/2/6
f 268/4/6 236/4/6 278/4/6
f 277/4/6 268/4/6 278/4/6
f 274/5/6 275/5/6 279/5/6
f 280/4/6 281/4/6 284/4/6
f 284/4/6 281/4/6 285/4/6
f 274/5/6 279/5/6 286/5/6
f 282/4/6 283/4/6 287/4/6
f 287/4/6 283/4/6 288/4/6
f 274/5/6 286/5/6 289/5/6
f 271/4/6 272/4/6 290/4/6
f 290/4/6 272/4/6 291/4/6
f 290/5/6 291/5/6 292/5/6
f 292/5/6 291/5/6 293/5/6
f 274/5/6 289/5/6 295/5/6
f 292/4/6 293/4/6 296/4/6
f 294/5/6 295/5/6 297/5/6
f 295/5/6 289/5/6 298/5/6
f 297/5/6 295/5/6 298/5/6
f 278/4/6 236/4/6 299/4/6
f 296/4/6 297/4/6 300/4/6
f 292/4/6 296/4/6 300/4/6
f 297/5/6 298/5/6 301/5/6
f 300/4/6 297/4/6 301/4/6
f 298/4/6 299/4/6 302/4/6
f 301/5/6 298/5/6 302/5/6
f 299/4/6 236/4/6 303/4/6
f 302/4/6 299/4/6 303/4/6
f 306/1/6 307/1/6 308/1/6
f 308/1/6 307/1/6 309/1/6
f 306/1/6 308/1/6 310/1/6
f 309/1/6 307/1/6 311/1/6
f 311/1/6 307/1/6 312/1/6
f 312/1/6 307/1/6 313/1/6
f 304/1/6 305/1/6 314/1/6
f 314/1/6 305/1/6 315/1/6
f 315/1/6 305/1/6 316/1/6
f 316/1/6 305/1/6 317/1/6
f 304/1/6 314/1/6 318/1/6
f 314/3/6 315/3/6 318/3/6
f 315/1/6 316/1/6 319/1/6
f 318/3/6 315/3/6 319/3/6
f 318/1/6 319/1/6 320/1/6
f 319/1/6 316/1/6 320/1/6
f 317/1/6 305/1/6 321/1/6
f 310/1/6 311/1/6 322/1/6
f 311/1/6 312/1/6 322/1/6
f 312/2/6 313/2/6 322/2/6
f 313/1/6 307/1/6 323/1/6
f 322/2/6 313/2/6 323/2/6
f 322/1/6 323/1/6 324/1/6
f 323/1/6 307/1/6 324/1/6
f 324/1/6 307/1/6 325/1/6
f 322/1/6 324/1/6 326/1/6
f 325/1/6 307/1/6 327/1/6
f 310/1/6 322/1/6 328/1/6
f 326/1/6 327/1/6 328/1/6
f 322/1/6 326/1/6 328/1/6
f 328/1/6 327/1/6 329/1/6
f 310/1/6 328/1/6 330/1/6
f 328/2/6 329/2/6 330/2/6
f 329/1/6 327/1/6 331/1/6
f 330/2/6 329/2/6 331/2/6
f 320/1/6 321/1/6 332/1/6
f 318/1/6 320/1/6 332/1/6
f 304/1/6 318/1/6 332/1/6
f 332/1/6 321/1/6 333/1/6
f 306/1/6 310/1/6 334/1/6
f 330/1/6 331/1/6 334/1/6
f 310/1/6 330/1/6 334/1/6
f 334/1/6 331/1/6 335/1/6
f 327/1/6 307/1/6 336/1/6
f 335/1/6 331/1/6 336/1/6
f 331/1/6 327/1/6 336/1/6
f 336/1/6 307/1/6 337/1/6
f 335/1/6 336/1/6 339/1/6
f 339/1/6 336/1/6 340/1/6
f 338/1/6 339/1/6 340/1/6
f 337/1/6 307/1/6 341/1/6
f 332/3/6 333/3/6 342/3/6
f 333/1/6 321/1/6 343/1/6
f 342/3/6 333/3/6 343/3/6
f 321/1/6 305/1/6 344/1/6
f 343/1/6 321/1/6 344/1/6
f 338/1/6 340/1/6 345/1/6
f 340/1/6 341/1/6 345/1/6
f 341/1/6 307/1/6 346/1/6
f 345/1/6 341/1/6 346/1/6
f 349/1/6 350/1/6 353/1/6
f 350/2/6 351/2/6 353/2/6
f 351/1/6 352/1/6 354/1/6
f 353/2/6 351/2/6 354/2/6
f 349/1/6 353/1/6 355/1/6
f 353/1/6 354/1/6 355/1/6
f 355/1/6 354/1/6 356/1/6
f 347/1/6 348/1/6 357/1/6
f 357/1/6 348/1/6 358/1/6
f 356/1/6 354/1/6 359/1/6
f 354/1/6 352/1/6 359/1/6
f 359/1/6 352/1/6 360/1/6
f 347/1/6 357/1/6 361/1/6
f 358/1/6 348/1/6 362/1/6
f 355/2/6 356/2/6 363/2/6
f 363/2/6 356/2/6 364/2/6
f 356/1/6 359/1/6 365/1/6
f 360/1/6 352/1/6 366/1/6
f 364/2/6 356/2/6 367/2/6
f 363/3/6 364/3/6 367/3/6
f 367/2/6 356/2/6 368/2/6
f 356/1/6 365/1/6 369/1/6
f 368/2/6 356/2/6 369/2/6
f 365/1/6 366/1/6 369/1/6
f 361/1/6 362/1/6 370/1/6
f 362/1/6 348/1/6 370/1/6
f 370/1/6 348/1/6 371/1/6
f 367/3/6 368/3/6 372/3/6
f 363/3/6 367/3/6 372/3/6
f 368/1/6 369/1/6 373/1/6
f 372/3/6 368/3/6 373/3/6
f 347/1/6 361/1/6 374/1/6
f 361/1/6 370/1/6 374/1/6
f 374/1/6 370/1/6 375/1/6
f 370/3/6 371/3/6 376/3/6
f 375/1/6 370/1/6 376/1/6
f 371/1/6 348/1/6 377/1/6
f 376/3/6 371/3/6 377/3/6
f 373/1/6 369/1/6 378/1/6
f 369/1/6 366/1/6 378/1/6
f 366/1/6 352/1/6 378/1/6
f 372/1/6 373/1/6 378/1/6
f 378/1/6 352/1/6 379/1/6
f 375/1/6 376/1/6 380/1/6
f 376/1/6 377/1/6 380/1/6
f 380/1/6 377/1/6 381/1/6
f 375/1/6 380/1/6 382/1/6
f 380/3/6 381/3/6 382/3/6
f 381/1/6 377/1/6 383/1/6
f 382/3/6 381/3/6 383/3/6
f 374/3/6 375/3/6 384/3/6
f 347/1/6 374/1/6 384/1/6
f 382/1/6 383/1/6 385/1/6
f 384/3/6 375/3/6 385/3/6
f 375/1/6 382/1/6 385/1/6
f 372/1/6 378/1/6 386/1/6
f 386/1/6 378/1/6 387/1/6
f 378/3/6 379/3/6 388/3/6
f 387/1/6 378/1/6 388/1/6
f 379/1/6 352/1/6 389/1/6
f 388/3/6 379/3/6 389/3/6
f 386/3/6 387/3/6 390/3/6
f 372/1/6 386/1/6 390/1/6
f 387/1/6 388/1/6 391/1/6
f 390/3/6 387/3/6 391/3/6
f 388/1/6 389/1/6 391/1/6
f 372/1/6 390/1/6 392/1/6
f 390/1/6 391/1/6 392/1/6
f 391/1/6 389/1/6 393/1/6
f 392/1/6 391/1/6 393/1/6
f 372/1/6 392/1/6 394/1/6
f 392/3/6 393/3/6 394/3/6
f 393/1/6 389/1/6 395/1/6
f 394/3/6 393/3/6 395/3/6
f 383/1/6 377/1/6 396/1/6
f 385/1/6 383/1/6 396/1/6
f 384/1/6 385/1/6 396/1/6
f 377/1/6 348/1/6 397/1/6
f 396/1/6 377/1/6 397/1/6
f 384/1/6 396/1/6 398/1/6
f 398/1/6 396/1/6 399/1/6
f 384/1/6 398/1/6 400/1/6
f 398/2/6 399/2/6 400/2/6
f 399/1/6 396/1/6 401/1/6
f 400/2/6 399/2/6 401/2/6
f 396/2/6 397/2/6 402/2/6
f 401/1/6 396/1/6 402/1/6
f 397/1/6 348/1/6 403/1/6
f 402/2/6 397/2/6 403/2/6
f 401/1/6 402/1/6 404/1/6
f 403/1/6 348/1/6 404/1/6
f 402/1/6 403/1/6 404/1/6
f 400/1/6 401/1/6 404/1/6
f 404/1/6 348/1/6 405/1/6
f 384/1/6 400/1/6 406/1/6
f 347/1/6 384/1/6 406/1/6
f 400/1/6 404/1/6 406/1/6
f 406/1/6 404/1/6 407/1/6
f 372/1/6 394/1/6 408/1/6
f 394/1/6 395/1/6 408/1/6
f 389/1/6 352/1/6 409/1/6
f 408/1/6 395/1/6 409/1/6
f 395/1/6 389/1/6 409/1/6
