# MagicaVoxel @ Ephtracy

# group
g floor-03

# material
mtllib floor-03.mtl
usemtl palette

# normals
vn -1 0 0
vn 1 0 0
vn 0 0 1
vn 0 0 -1
vn 0 -1 0
vn 0 1 0

# texcoords
vt 0.951172 0.5
vt 0.955078 0.5
vt 0.990234 0.5
vt 0.994141 0.5

# verts
v -25 0 25
v -25 0 -25
v -25 49 25
v -25 49 -25
v -24 49 24
v -24 49 1
v -24 49 -1
v -24 49 -24
v -24 50 24
v -24 50 1
v -24 50 -1
v -24 50 -24
v -22 49 9
v -22 49 8
v -22 50 9
v -22 50 8
v -16 49 -8
v -16 49 -9
v -16 50 -8
v -16 50 -9
v -9 49 20
v -9 49 19
v -9 50 20
v -9 50 19
v 1 49 24
v 1 49 1
v 1 49 -1
v 1 49 -6
v 1 49 -7
v 1 49 -20
v 1 49 -23
v 1 49 -24
v 1 50 24
v 1 50 1
v 1 50 -1
v 1 50 -6
v 1 50 -7
v 1 50 -20
v 1 50 -23
v 1 50 -24
v 4 49 -12
v 4 49 -13
v 4 50 -12
v 4 50 -13
v 5 49 -20
v 5 49 -23
v 5 50 -20
v 5 50 -23
v 8 49 24
v 8 49 21
v 8 49 -14
v 8 49 -15
v 8 50 24
v 8 50 21
v 8 50 -14
v 8 50 -15
v -23 49 9
v -23 49 8
v -23 50 9
v -23 50 8
v -17 49 -8
v -17 49 -9
v -17 50 -8
v -17 50 -9
v -10 49 20
v -10 49 19
v -10 50 20
v -10 50 19
v -1 49 24
v -1 49 1
v -1 49 -1
v -1 49 -24
v -1 50 24
v -1 50 1
v -1 50 -1
v -1 50 -24
v 3 49 -12
v 3 49 -13
v 3 50 -12
v 3 50 -13
v 6 49 24
v 6 49 21
v 6 50 24
v 6 50 21
v 7 49 -14
v 7 49 -15
v 7 50 -14
v 7 50 -15
v 22 49 20
v 22 49 18
v 22 50 20
v 22 50 18
v 24 49 24
v 24 49 20
v 24 49 18
v 24 49 1
v 24 49 -1
v 24 49 -24
v 24 50 24
v 24 50 20
v 24 50 18
v 24 50 1
v 24 50 -1
v 24 50 -24
v 25 0 25
v 25 0 -25
v 25 49 25
v 25 49 -25
v -25 0 25
v -25 49 25
v 25 0 25
v 25 49 25
v -24 49 24
v -24 50 24
v -1 49 24
v -1 50 24
v 1 49 24
v 1 50 24
v 6 49 24
v 6 50 24
v 8 49 24
v 8 50 24
v 24 49 24
v 24 50 24
v 6 49 21
v 6 50 21
v 8 49 21
v 8 50 21
v -10 49 19
v -10 50 19
v -9 49 19
v -9 50 19
v 22 49 18
v 22 50 18
v 24 49 18
v 24 50 18
v -23 49 8
v -23 50 8
v -22 49 8
v -22 50 8
v -24 49 -1
v -24 50 -1
v -1 49 -1
v -1 50 -1
v 1 49 -1
v 1 50 -1
v 24 49 -1
v 24 50 -1
v -17 49 -9
v -17 50 -9
v -16 49 -9
v -16 50 -9
v 3 49 -13
v 3 50 -13
v 4 49 -13
v 4 50 -13
v 7 49 -15
v 7 50 -15
v 8 49 -15
v 8 50 -15
v 1 49 -23
v 1 50 -23
v 5 49 -23
v 5 50 -23
v -10 49 20
v -10 50 20
v -9 49 20
v -9 50 20
v 22 49 20
v 22 50 20
v 24 49 20
v 24 50 20
v -23 49 9
v -23 50 9
v -22 49 9
v -22 50 9
v -24 49 1
v -24 50 1
v -11 49 1
v -11 50 1
v -10 49 1
v -10 50 1
v -1 49 1
v -1 50 1
v 1 49 1
v 1 50 1
v 24 49 1
v 24 50 1
v -17 49 -8
v -17 50 -8
v -16 49 -8
v -16 50 -8
v 3 49 -12
v 3 50 -12
v 4 49 -12
v 4 50 -12
v 7 49 -14
v 7 50 -14
v 8 49 -14
v 8 50 -14
v 1 49 -20
v 1 50 -20
v 5 49 -20
v 5 50 -20
v -24 49 -24
v -24 50 -24
v -1 49 -24
v -1 50 -24
v 1 49 -24
v 1 50 -24
v 24 49 -24
v 24 50 -24
v -25 0 -25
v -25 49 -25
v 25 0 -25
v 25 49 -25
v -25 0 25
v 25 0 25
v -25 0 -25
v 25 0 -25
v -25 49 25
v 25 49 25
v -24 49 24
v -1 49 24
v 1 49 24
v 6 49 24
v 8 49 24
v 24 49 24
v 6 49 21
v 8 49 21
v -10 49 20
v -9 49 20
v 22 49 20
v 24 49 20
v -10 49 19
v -9 49 19
v 22 49 18
v 24 49 18
v -23 49 9
v -22 49 9
v -23 49 8
v -22 49 8
v -24 49 1
v -11 49 1
v -10 49 1
v -1 49 1
v 1 49 1
v 24 49 1
v -24 49 -1
v -1 49 -1
v 1 49 -1
v 24 49 -1
v 1 49 -6
v 1 49 -7
v -17 49 -8
v -16 49 -8
v -17 49 -9
v -16 49 -9
v 3 49 -12
v 4 49 -12
v 3 49 -13
v 4 49 -13
v 7 49 -14
v 8 49 -14
v 7 49 -15
v 8 49 -15
v 1 49 -20
v 5 49 -20
v 1 49 -23
v 5 49 -23
v -24 49 -24
v -1 49 -24
v 1 49 -24
v 24 49 -24
v -25 49 -25
v 25 49 -25
v -24 50 24
v -1 50 24
v 1 50 24
v 6 50 24
v 8 50 24
v 24 50 24
v 20 50 23
v 21 50 23
v 20 50 22
v 21 50 22
v -12 50 21
v -11 50 21
v 6 50 21
v 8 50 21
v -12 50 20
v -11 50 20
v -10 50 20
v -9 50 20
v 22 50 20
v 24 50 20
v -10 50 19
v -9 50 19
v 22 50 18
v 24 50 18
v -15 50 17
v -13 50 17
v -15 50 15
v -13 50 15
v -23 50 9
v -22 50 9
v -23 50 8
v -22 50 8
v 11 50 8
v 12 50 8
v 11 50 7
v 12 50 7
v -11 50 2
v -10 50 2
v -24 50 1
v -11 50 1
v -10 50 1
v -1 50 1
v 1 50 1
v 24 50 1
v -24 50 -1
v -1 50 -1
v 1 50 -1
v 24 50 -1
v 6 50 -3
v 7 50 -3
v 6 50 -4
v 7 50 -4
v -13 50 -6
v -12 50 -6
v 1 50 -6
v 2 50 -6
v -13 50 -7
v -12 50 -7
v 1 50 -7
v 2 50 -7
v -17 50 -8
v -16 50 -8
v -17 50 -9
v -16 50 -9
v -10 50 -10
v -8 50 -10
v -20 50 -12
v -19 50 -12
v 3 50 -12
v 4 50 -12
v -20 50 -13
v -19 50 -13
v -10 50 -13
v -8 50 -13
v 3 50 -13
v 4 50 -13
v 7 50 -14
v 8 50 -14
v 7 50 -15
v 8 50 -15
v 1 50 -20
v 5 50 -20
v 1 50 -23
v 5 50 -23
v -24 50 -24
v -1 50 -24
v 1 50 -24
v 24 50 -24

# faces
f 3/4/1 2/4/1 1/4/1
f 4/4/1 2/4/1 3/4/1
f 9/3/1 6/3/1 5/3/1
f 10/3/1 6/3/1 9/3/1
f 11/3/1 8/3/1 7/3/1
f 12/3/1 8/3/1 11/3/1
f 15/3/1 14/3/1 13/3/1
f 16/3/1 14/3/1 15/3/1
f 19/3/1 18/3/1 17/3/1
f 20/3/1 18/3/1 19/3/1
f 23/3/1 22/3/1 21/3/1
f 24/3/1 22/3/1 23/3/1
f 33/3/1 26/3/1 25/3/1
f 34/3/1 26/3/1 33/3/1
f 35/3/1 28/3/1 27/3/1
f 36/1/1 29/1/1 28/1/1
f 36/3/1 28/3/1 35/3/1
f 37/3/1 30/3/1 29/3/1
f 37/1/1 29/1/1 36/1/1
f 38/3/1 30/3/1 37/3/1
f 39/3/1 32/3/1 31/3/1
f 40/3/1 32/3/1 39/3/1
f 43/3/1 42/3/1 41/3/1
f 44/3/1 42/3/1 43/3/1
f 47/3/1 46/3/1 45/3/1
f 48/3/1 46/3/1 47/3/1
f 53/3/1 50/3/1 49/3/1
f 54/3/1 50/3/1 53/3/1
f 55/3/1 52/3/1 51/3/1
f 56/3/1 52/3/1 55/3/1
f 57/3/2 58/3/2 59/3/2
f 59/3/2 58/3/2 60/3/2
f 61/3/2 62/3/2 63/3/2
f 63/3/2 62/3/2 64/3/2
f 65/3/2 66/3/2 67/3/2
f 67/3/2 66/3/2 68/3/2
f 69/3/2 70/3/2 73/3/2
f 73/3/2 70/3/2 74/3/2
f 71/3/2 72/3/2 75/3/2
f 75/3/2 72/3/2 76/3/2
f 77/3/2 78/3/2 79/3/2
f 79/3/2 78/3/2 80/3/2
f 81/3/2 82/3/2 83/3/2
f 83/3/2 82/3/2 84/3/2
f 85/3/2 86/3/2 87/3/2
f 87/3/2 86/3/2 88/3/2
f 89/3/2 90/3/2 91/3/2
f 91/3/2 90/3/2 92/3/2
f 93/3/2 94/3/2 99/3/2
f 99/3/2 94/3/2 100/3/2
f 95/3/2 96/3/2 101/3/2
f 101/3/2 96/3/2 102/3/2
f 97/3/2 98/3/2 103/3/2
f 103/3/2 98/3/2 104/3/2
f 105/4/2 106/4/2 107/4/2
f 107/4/2 106/4/2 108/4/2
f 111/4/3 110/4/3 109/4/3
f 112/4/3 110/4/3 111/4/3
f 115/3/3 114/3/3 113/3/3
f 116/3/3 114/3/3 115/3/3
f 119/3/3 118/3/3 117/3/3
f 120/3/3 118/3/3 119/3/3
f 123/3/3 122/3/3 121/3/3
f 124/3/3 122/3/3 123/3/3
f 127/3/3 126/3/3 125/3/3
f 128/3/3 126/3/3 127/3/3
f 131/3/3 130/3/3 129/3/3
f 132/3/3 130/3/3 131/3/3
f 135/3/3 134/3/3 133/3/3
f 136/3/3 134/3/3 135/3/3
f 139/3/3 138/3/3 137/3/3
f 140/3/3 138/3/3 139/3/3
f 143/3/3 142/3/3 141/3/3
f 144/3/3 142/3/3 143/3/3
f 147/3/3 146/3/3 145/3/3
f 148/3/3 146/3/3 147/3/3
f 151/3/3 150/3/3 149/3/3
f 152/3/3 150/3/3 151/3/3
f 155/3/3 154/3/3 153/3/3
f 156/3/3 154/3/3 155/3/3
f 159/3/3 158/3/3 157/3/3
f 160/3/3 158/3/3 159/3/3
f 163/3/3 162/3/3 161/3/3
f 164/3/3 162/3/3 163/3/3
f 165/3/4 166/3/4 167/3/4
f 167/3/4 166/3/4 168/3/4
f 169/3/4 170/3/4 171/3/4
f 171/3/4 170/3/4 172/3/4
f 173/3/4 174/3/4 175/3/4
f 175/3/4 174/3/4 176/3/4
f 177/3/4 178/3/4 179/3/4
f 179/3/4 178/3/4 180/3/4
f 179/4/4 180/4/4 181/4/4
f 181/4/4 180/4/4 182/4/4
f 181/3/4 182/3/4 183/3/4
f 183/3/4 182/3/4 184/3/4
f 185/3/4 186/3/4 187/3/4
f 187/3/4 186/3/4 188/3/4
f 189/3/4 190/3/4 191/3/4
f 191/3/4 190/3/4 192/3/4
f 193/3/4 194/3/4 195/3/4
f 195/3/4 194/3/4 196/3/4
f 197/3/4 198/3/4 199/3/4
f 199/3/4 198/3/4 200/3/4
f 201/3/4 202/3/4 203/3/4
f 203/3/4 202/3/4 204/3/4
f 205/3/4 206/3/4 207/3/4
f 207/3/4 206/3/4 208/3/4
f 209/3/4 210/3/4 211/3/4
f 211/3/4 210/3/4 212/3/4
f 213/4/4 214/4/4 215/4/4
f 215/4/4 214/4/4 216/4/4
f 219/4/5 218/4/5 217/4/5
f 220/4/5 218/4/5 219/4/5
f 221/4/6 222/4/6 223/4/6
f 223/4/6 222/4/6 224/4/6
f 224/4/6 222/4/6 225/4/6
f 225/4/6 222/4/6 226/4/6
f 226/4/6 222/4/6 227/4/6
f 227/4/6 222/4/6 228/4/6
f 226/4/6 227/4/6 229/4/6
f 229/4/6 227/4/6 230/4/6
f 228/4/6 222/4/6 234/4/6
f 231/4/6 232/4/6 235/4/6
f 235/4/6 232/4/6 236/4/6
f 233/4/6 234/4/6 237/4/6
f 234/4/6 222/4/6 238/4/6
f 237/4/6 234/4/6 238/4/6
f 239/4/6 240/4/6 241/4/6
f 241/4/6 240/4/6 242/4/6
f 221/4/6 223/4/6 243/4/6
f 224/4/6 225/4/6 246/4/6
f 246/4/6 225/4/6 247/4/6
f 238/4/6 222/4/6 248/4/6
f 221/4/6 243/4/6 249/4/6
f 247/4/6 248/4/6 249/4/6
f 244/4/6 245/4/6 249/4/6
f 246/4/6 247/4/6 249/4/6
f 245/4/6 246/4/6 249/4/6
f 243/4/6 244/4/6 249/4/6
f 249/4/6 248/4/6 250/4/6
f 250/4/6 248/4/6 251/4/6
f 248/4/6 222/4/6 252/4/6
f 251/4/6 248/4/6 252/4/6
f 250/4/6 251/4/6 253/4/6
f 250/4/6 253/4/6 254/4/6
f 255/4/6 256/4/6 257/4/6
f 257/4/6 256/4/6 258/4/6
f 259/4/6 260/4/6 261/4/6
f 261/4/6 260/4/6 262/4/6
f 263/4/6 264/4/6 265/4/6
f 265/4/6 264/4/6 266/4/6
f 250/4/6 254/4/6 267/4/6
f 250/4/6 267/4/6 269/4/6
f 267/4/6 268/4/6 269/4/6
f 269/4/6 268/4/6 270/4/6
f 221/4/6 249/4/6 271/4/6
f 250/4/6 269/4/6 272/4/6
f 272/4/6 269/4/6 273/4/6
f 252/4/6 222/4/6 274/4/6
f 272/4/6 273/4/6 275/4/6
f 273/4/6 274/4/6 275/4/6
f 271/4/6 272/4/6 275/4/6
f 221/4/6 271/4/6 275/4/6
f 274/4/6 222/4/6 276/4/6
f 275/4/6 274/4/6 276/4/6
f 281/3/6 282/3/6 283/3/6
f 283/3/6 282/3/6 284/3/6
f 281/3/6 283/3/6 285/3/6
f 283/4/6 284/4/6 285/4/6
f 284/3/6 282/3/6 286/3/6
f 285/4/6 284/4/6 286/4/6
f 277/3/6 278/3/6 287/3/6
f 287/3/6 278/3/6 288/3/6
f 279/3/6 280/3/6 289/3/6
f 281/3/6 285/3/6 290/3/6
f 285/3/6 286/3/6 290/3/6
f 287/2/6 288/2/6 291/2/6
f 277/3/6 287/3/6 291/3/6
f 288/3/6 278/3/6 292/3/6
f 291/2/6 288/2/6 292/2/6
f 292/3/6 278/3/6 293/3/6
f 293/3/6 278/3/6 294/3/6
f 286/3/6 282/3/6 295/3/6
f 289/3/6 290/3/6 295/3/6
f 290/3/6 286/3/6 295/3/6
f 295/3/6 282/3/6 296/3/6
f 292/3/6 293/3/6 297/3/6
f 291/3/6 292/3/6 297/3/6
f 294/3/6 278/3/6 298/3/6
f 289/3/6 295/3/6 299/3/6
f 291/3/6 297/3/6 301/3/6
f 277/3/6 291/3/6 301/3/6
f 297/3/6 298/3/6 301/3/6
f 301/3/6 298/3/6 302/3/6
f 277/3/6 301/3/6 303/3/6
f 301/4/6 302/4/6 303/4/6
f 302/3/6 298/3/6 304/3/6
f 303/4/6 302/4/6 304/4/6
f 277/3/6 303/3/6 305/3/6
f 303/3/6 304/3/6 305/3/6
f 305/3/6 304/3/6 306/3/6
f 277/3/6 305/3/6 307/3/6
f 306/3/6 304/3/6 308/3/6
f 299/3/6 300/3/6 309/3/6
f 289/3/6 299/3/6 309/3/6
f 309/3/6 300/3/6 310/3/6
f 289/3/6 309/3/6 311/3/6
f 309/4/6 310/4/6 311/4/6
f 310/3/6 300/3/6 312/3/6
f 311/4/6 310/4/6 312/4/6
f 307/3/6 308/3/6 313/3/6
f 308/3/6 304/3/6 313/3/6
f 304/3/6 298/3/6 313/3/6
f 313/3/6 298/3/6 314/3/6
f 277/3/6 307/3/6 315/3/6
f 307/3/6 313/3/6 315/3/6
f 313/4/6 314/4/6 316/4/6
f 315/3/6 313/3/6 316/3/6
f 314/3/6 298/3/6 317/3/6
f 316/4/6 314/4/6 317/4/6
f 298/3/6 278/3/6 318/3/6
f 317/3/6 298/3/6 318/3/6
f 311/3/6 312/3/6 319/3/6
f 279/3/6 289/3/6 319/3/6
f 289/3/6 311/3/6 319/3/6
f 312/3/6 300/3/6 320/3/6
f 319/3/6 312/3/6 320/3/6
f 323/3/6 324/3/6 325/3/6
f 325/3/6 324/3/6 326/3/6
f 323/3/6 325/3/6 327/3/6
f 325/1/6 326/1/6 327/1/6
f 326/3/6 324/3/6 328/3/6
f 327/1/6 326/1/6 328/1/6
f 321/3/6 322/3/6 329/3/6
f 329/3/6 322/3/6 330/3/6
f 323/3/6 327/3/6 331/3/6
f 327/3/6 328/3/6 331/3/6
f 331/3/6 328/3/6 332/3/6
f 329/2/6 330/2/6 333/2/6
f 321/3/6 329/3/6 333/3/6
f 330/3/6 322/3/6 334/3/6
f 333/2/6 330/2/6 334/2/6
f 331/1/6 332/1/6 335/1/6
f 332/3/6 328/3/6 336/3/6
f 335/1/6 332/1/6 336/1/6
f 321/3/6 333/3/6 337/3/6
f 333/3/6 334/3/6 337/3/6
f 337/3/6 334/3/6 338/3/6
f 321/3/6 337/3/6 339/3/6
f 338/3/6 334/3/6 340/3/6
f 334/3/6 322/3/6 341/3/6
f 339/3/6 340/3/6 341/3/6
f 340/3/6 334/3/6 341/3/6
f 341/3/6 322/3/6 342/3/6
f 321/3/6 339/3/6 343/3/6
f 339/3/6 341/3/6 343/3/6
f 343/3/6 341/3/6 344/3/6
f 336/3/6 328/3/6 345/3/6
f 335/3/6 336/3/6 345/3/6
f 345/3/6 328/3/6 346/3/6
f 343/1/6 344/1/6 347/1/6
f 321/3/6 343/3/6 347/3/6
f 344/3/6 341/3/6 348/3/6
f 347/1/6 344/1/6 348/1/6
f 341/2/6 342/2/6 349/2/6
f 348/3/6 341/3/6 349/3/6
f 342/3/6 322/3/6 350/3/6
f 349/2/6 342/2/6 350/2/6
f 335/3/6 345/3/6 351/3/6
f 346/3/6 328/3/6 352/3/6
f 328/3/6 324/3/6 353/3/6
f 351/3/6 352/3/6 353/3/6
f 352/3/6 328/3/6 353/3/6
f 353/3/6 324/3/6 354/3/6
f 351/3/6 353/3/6 355/3/6
f 354/3/6 324/3/6 356/3/6
f 335/3/6 351/3/6 357/3/6
f 355/3/6 356/3/6 357/3/6
f 351/3/6 355/3/6 357/3/6
f 357/3/6 356/3/6 358/3/6
f 358/3/6 356/3/6 360/3/6
f 321/3/6 347/3/6 361/3/6
f 348/3/6 349/3/6 361/3/6
f 347/3/6 348/3/6 361/3/6
f 349/3/6 350/3/6 361/3/6
f 350/3/6 322/3/6 362/3/6
f 361/3/6 350/3/6 362/3/6
f 359/3/6 360/3/6 363/3/6
f 356/3/6 324/3/6 364/3/6
f 363/3/6 360/3/6 364/3/6
f 360/3/6 356/3/6 364/3/6
