# MagicaVoxel @ Ephtracy

# group
g healthfiller

# material
mtllib healthfiller.mtl
usemtl palette

# normals
vn -1 0 0
vn 1 0 0
vn 0 0 1
vn 0 0 -1
vn 0 -1 0
vn 0 1 0

# texcoords
vt 0.919922 0.5
vt 0.935547 0.5
vt 0.974609 0.5

# verts
v -10 0 10
v -10 0 -10
v -10 34 10
v -10 34 -10
v -2 33 -5
v -2 33 -8
v -2 35 -5
v -2 35 -8
v -1 35 -6
v -1 35 -7
v -1 39 -5
v -1 39 -6
v -1 40 -5
v -1 40 -7
v 7 30 8
v 7 30 -1
v 7 32 9
v 7 32 8
v 7 33 9
v 7 33 -1
v 9 22 10
v 9 22 9
v 9 24 10
v 9 24 9
v 9 25 10
v 9 25 9
v 9 33 9
v 9 33 -9
v 9 34 10
v 9 34 -9
v -9 22 10
v -9 22 9
v -9 24 10
v -9 24 9
v -9 25 10
v -9 25 9
v -9 33 9
v -9 33 -9
v -9 34 10
v -9 34 -9
v -7 30 8
v -7 30 -1
v -7 32 9
v -7 32 8
v -7 33 9
v -7 33 -1
v 1 35 -6
v 1 35 -7
v 1 39 -5
v 1 39 -6
v 1 40 -5
v 1 40 -7
v 2 33 -5
v 2 33 -8
v 2 35 -5
v 2 35 -8
v 10 0 10
v 10 0 -10
v 10 34 10
v 10 34 -10
v -10 0 10
v -10 34 10
v -9 22 10
v -9 24 10
v -9 25 10
v -9 34 10
v 9 22 10
v 9 24 10
v 9 25 10
v 9 34 10
v 10 0 10
v 10 34 10
v -9 22 9
v -9 24 9
v -9 25 9
v -9 33 9
v -7 32 9
v -7 33 9
v 7 32 9
v 7 33 9
v 9 22 9
v 9 24 9
v 9 25 9
v 9 33 9
v -7 30 -1
v -7 33 -1
v 7 30 -1
v 7 33 -1
v -2 33 -5
v -2 35 -5
v -1 39 -5
v -1 40 -5
v 1 39 -5
v 1 40 -5
v 2 33 -5
v 2 35 -5
v -1 35 -6
v -1 39 -6
v 1 35 -6
v 1 39 -6
v -9 33 -9
v -9 34 -9
v 9 33 -9
v 9 34 -9
v -7 30 8
v -7 32 8
v 7 30 8
v 7 32 8
v -1 35 -7
v -1 40 -7
v 1 35 -7
v 1 40 -7
v -2 33 -8
v -2 35 -8
v 2 33 -8
v 2 35 -8
v -10 0 -10
v -10 34 -10
v -9 0 -10
v -9 33 -10
v 9 0 -10
v 9 33 -10
v 10 0 -10
v 10 34 -10
v -10 0 10
v 10 0 10
v -9 0 9
v 9 0 9
v -10 0 -10
v -9 0 -10
v 9 0 -10
v 10 0 -10
v -9 24 10
v 9 24 10
v -9 24 9
v 9 24 9
v -1 39 -5
v 1 39 -5
v -1 39 -6
v 1 39 -6
v -9 22 10
v 9 22 10
v -9 22 9
v 9 22 9
v -9 25 10
v 9 25 10
v -9 25 9
v 9 25 9
v -7 30 8
v 7 30 8
v -7 30 -1
v 7 30 -1
v -7 32 9
v 7 32 9
v -7 32 8
v 7 32 8
v -9 33 9
v -7 33 9
v 7 33 9
v 9 33 9
v -7 33 -1
v 7 33 -1
v -2 33 -5
v 2 33 -5
v -2 33 -8
v 2 33 -8
v -9 33 -9
v 9 33 -9
v -10 34 10
v -9 34 10
v 9 34 10
v 10 34 10
v -9 34 -9
v 9 34 -9
v -10 34 -10
v 10 34 -10
v -2 35 -5
v 2 35 -5
v -1 35 -6
v 1 35 -6
v -1 35 -7
v 1 35 -7
v -2 35 -8
v 2 35 -8
v -1 40 -5
v 1 40 -5
v -1 40 -7
v 1 40 -7

# faces
f 3/3/1 2/3/1 1/3/1
f 4/3/1 2/3/1 3/3/1
f 7/1/1 6/1/1 5/1/1
f 8/1/1 6/1/1 7/1/1
f 12/1/1 10/1/1 9/1/1
f 13/1/1 12/1/1 11/1/1
f 14/1/1 10/1/1 12/1/1
f 14/1/1 12/1/1 13/1/1
f 18/2/1 16/2/1 15/2/1
f 19/2/1 18/2/1 17/2/1
f 20/2/1 16/2/1 18/2/1
f 20/2/1 18/2/1 19/2/1
f 23/3/1 22/3/1 21/3/1
f 24/3/1 22/3/1 23/3/1
f 27/3/1 26/3/1 25/3/1
f 29/3/1 27/3/1 25/3/1
f 29/3/1 28/3/1 27/3/1
f 30/3/1 28/3/1 29/3/1
f 31/3/2 32/3/2 33/3/2
f 33/3/2 32/3/2 34/3/2
f 35/3/2 36/3/2 37/3/2
f 35/3/2 37/3/2 39/3/2
f 37/3/2 38/3/2 39/3/2
f 39/3/2 38/3/2 40/3/2
f 41/2/2 42/2/2 44/2/2
f 43/2/2 44/2/2 45/2/2
f 44/2/2 42/2/2 46/2/2
f 45/2/2 44/2/2 46/2/2
f 47/1/2 48/1/2 50/1/2
f 49/1/2 50/1/2 51/1/2
f 50/1/2 48/1/2 52/1/2
f 51/1/2 50/1/2 52/1/2
f 53/1/2 54/1/2 55/1/2
f 55/1/2 54/1/2 56/1/2
f 57/3/2 58/3/2 59/3/2
f 59/3/2 58/3/2 60/3/2
f 63/3/3 62/3/3 61/3/3
f 64/3/3 62/3/3 63/3/3
f 65/3/3 62/3/3 64/3/3
f 66/3/3 62/3/3 65/3/3
f 67/3/3 63/3/3 61/3/3
f 68/3/3 65/3/3 64/3/3
f 69/3/3 65/3/3 68/3/3
f 71/3/3 67/3/3 61/3/3
f 71/3/3 70/3/3 69/3/3
f 71/3/3 69/3/3 68/3/3
f 71/3/3 68/3/3 67/3/3
f 72/3/3 70/3/3 71/3/3
f 77/2/3 76/2/3 75/2/3
f 78/2/3 76/2/3 77/2/3
f 79/2/3 77/2/3 75/2/3
f 81/2/3 74/2/3 73/2/3
f 82/2/3 74/2/3 81/2/3
f 83/2/3 80/2/3 79/2/3
f 83/2/3 79/2/3 75/2/3
f 84/2/3 80/2/3 83/2/3
f 87/2/3 86/2/3 85/2/3
f 88/2/3 86/2/3 87/2/3
f 93/1/3 92/1/3 91/1/3
f 94/1/3 92/1/3 93/1/3
f 95/1/3 90/1/3 89/1/3
f 96/1/3 90/1/3 95/1/3
f 99/1/3 98/1/3 97/1/3
f 100/1/3 98/1/3 99/1/3
f 103/3/3 102/3/3 101/3/3
f 104/3/3 102/3/3 103/3/3
f 105/2/4 106/2/4 107/2/4
f 107/2/4 106/2/4 108/2/4
f 109/1/4 110/1/4 111/1/4
f 111/1/4 110/1/4 112/1/4
f 113/1/4 114/1/4 115/1/4
f 115/1/4 114/1/4 116/1/4
f 117/3/4 118/3/4 119/3/4
f 119/3/4 118/3/4 120/3/4
f 119/1/4 120/1/4 121/1/4
f 120/3/4 118/3/4 122/3/4
f 121/1/4 120/1/4 122/1/4
f 121/3/4 122/3/4 123/3/4
f 122/3/4 118/3/4 124/3/4
f 123/3/4 122/3/4 124/3/4
f 127/3/5 126/3/5 125/3/5
f 128/3/5 126/3/5 127/3/5
f 129/3/5 127/3/5 125/3/5
f 130/1/5 128/1/5 127/1/5
f 130/3/5 127/3/5 129/3/5
f 131/3/5 126/3/5 128/3/5
f 131/1/5 128/1/5 130/1/5
f 132/3/5 126/3/5 131/3/5
f 135/3/5 134/3/5 133/3/5
f 136/3/5 134/3/5 135/3/5
f 139/1/5 138/1/5 137/1/5
f 140/1/5 138/1/5 139/1/5
f 141/3/6 142/3/6 143/3/6
f 143/3/6 142/3/6 144/3/6
f 145/3/6 146/3/6 147/3/6
f 147/3/6 146/3/6 148/3/6
f 149/2/6 150/2/6 151/2/6
f 151/2/6 150/2/6 152/2/6
f 153/2/6 154/2/6 155/2/6
f 155/2/6 154/2/6 156/2/6
f 157/2/6 158/2/6 161/2/6
f 159/2/6 160/2/6 162/2/6
f 161/2/6 162/2/6 163/2/6
f 163/2/6 162/2/6 164/2/6
f 161/2/6 163/2/6 165/2/6
f 164/2/6 162/2/6 166/2/6
f 157/2/6 161/2/6 167/2/6
f 165/2/6 166/2/6 167/2/6
f 161/2/6 165/2/6 167/2/6
f 166/2/6 162/2/6 168/2/6
f 167/2/6 166/2/6 168/2/6
f 162/2/6 160/2/6 168/2/6
f 169/3/6 170/3/6 173/3/6
f 171/3/6 172/3/6 174/3/6
f 169/3/6 173/3/6 175/3/6
f 173/3/6 174/3/6 175/3/6
f 174/3/6 172/3/6 176/3/6
f 175/3/6 174/3/6 176/3/6
f 177/1/6 178/1/6 179/1/6
f 179/1/6 178/1/6 180/1/6
f 177/1/6 179/1/6 181/1/6
f 180/1/6 178/1/6 182/1/6
f 177/1/6 181/1/6 183/1/6
f 181/1/6 182/1/6 183/1/6
f 182/1/6 178/1/6 184/1/6
f 183/1/6 182/1/6 184/1/6
f 185/1/6 186/1/6 187/1/6
f 187/1/6 186/1/6 188/1/6
