# MagicaVoxel @ Ephtracy

# group
g lightpole-01-1

# material
mtllib lightpole-01-1.mtl
usemtl palette

# normals
vn -1 0 0
vn 1 0 0
vn 0 0 1
vn 0 0 -1
vn 0 -1 0
vn 0 1 0

# texcoords
vt 0.951172 0.5
vt 0.990234 0.5
vt 0.994141 0.5

# verts
v -5.5 50 0.5
v -5.5 50 -0.5
v -5.5 51 0.5
v -5.5 51 -0.5
v -5.5 54 0.5
v -5.5 54 -0.5
v -3.5 65 3.5
v -3.5 65 -3.5
v -3.5 68 3.5
v -3.5 68 -3.5
v -2.5 0 2.5
v -2.5 0 -2.5
v -2.5 2 2.5
v -2.5 2 -2.5
v -2.5 5 0.5
v -2.5 5 -0.5
v -2.5 6 0.5
v -2.5 6 -0.5
v -2.5 10 0.5
v -2.5 10 -0.5
v -2.5 11 0.5
v -2.5 11 -0.5
v -2.5 20 2.5
v -2.5 20 -2.5
v -2.5 40 2.5
v -2.5 40 -2.5
v -2.5 41 2.5
v -2.5 41 -2.5
v -2.5 52 0.5
v -2.5 52 -0.5
v -2.5 53 0.5
v -2.5 53 -0.5
v -2.5 64 2.5
v -2.5 64 -2.5
v -2.5 65 2.5
v -2.5 65 -2.5
v -2.5 68 2.5
v -2.5 68 -2.5
v -2.5 69 2.5
v -2.5 69 -2.5
v -1.5 20 1.5
v -1.5 20 -1.5
v -1.5 28 0.5
v -1.5 28 -0.5
v -1.5 29 0.5
v -1.5 29 -0.5
v -1.5 40 1.5
v -1.5 40 -1.5
v -1.5 41 1.5
v -1.5 41 -1.5
v -1.5 45 -0.5
v -1.5 45 -1.5
v -1.5 46 -0.5
v -1.5 46 -1.5
v -1.5 52 0.5
v -1.5 52 -0.5
v -1.5 54 1.5
v -1.5 54 0.5
v -1.5 54 -0.5
v -1.5 54 -1.5
v -0.5 54 0.5
v -0.5 54 -0.5
v -0.5 55 0.5
v -0.5 55 -0.5
v -0.5 69 0.5
v -0.5 69 -0.5
v -0.5 70 0.5
v -0.5 70 -0.5
v -4.5 50 0.5
v -4.5 50 -0.5
v -4.5 51 0.5
v -4.5 51 -0.5
v -4.5 53 0.5
v -4.5 53 -0.5
v 0.5 54 0.5
v 0.5 54 -0.5
v 0.5 55 0.5
v 0.5 55 -0.5
v 0.5 69 0.5
v 0.5 69 -0.5
v 0.5 70 0.5
v 0.5 70 -0.5
v 1.5 20 1.5
v 1.5 20 -1.5
v 1.5 40 1.5
v 1.5 40 -1.5
v 1.5 41 1.5
v 1.5 41 -1.5
v 1.5 49 0.5
v 1.5 49 -1.5
v 1.5 51 0.5
v 1.5 51 -1.5
v 1.5 54 1.5
v 1.5 54 -1.5
v 2.5 0 2.5
v 2.5 0 -2.5
v 2.5 2 2.5
v 2.5 2 -2.5
v 2.5 20 2.5
v 2.5 20 -2.5
v 2.5 40 2.5
v 2.5 40 -2.5
v 2.5 41 2.5
v 2.5 41 -2.5
v 2.5 64 2.5
v 2.5 64 -2.5
v 2.5 65 2.5
v 2.5 65 -2.5
v 2.5 68 2.5
v 2.5 68 -2.5
v 2.5 69 2.5
v 2.5 69 -2.5
v 3.5 65 3.5
v 3.5 65 -3.5
v 3.5 68 3.5
v 3.5 68 -3.5
v -3.5 65 3.5
v -3.5 68 3.5
v 3.5 65 3.5
v 3.5 68 3.5
v -2.5 0 2.5
v -2.5 2 2.5
v -2.5 20 2.5
v -2.5 40 2.5
v -2.5 41 2.5
v -2.5 64 2.5
v -2.5 65 2.5
v -2.5 68 2.5
v -2.5 69 2.5
v -0.5 16 2.5
v -0.5 19 2.5
v 0.5 4 2.5
v 0.5 5 2.5
v 0.5 16 2.5
v 0.5 19 2.5
v 1.5 4 2.5
v 1.5 5 2.5
v 2.5 0 2.5
v 2.5 2 2.5
v 2.5 20 2.5
v 2.5 40 2.5
v 2.5 41 2.5
v 2.5 64 2.5
v 2.5 65 2.5
v 2.5 68 2.5
v 2.5 69 2.5
v -1.5 20 1.5
v -1.5 40 1.5
v -1.5 41 1.5
v -1.5 54 1.5
v 1.5 20 1.5
v 1.5 40 1.5
v 1.5 41 1.5
v 1.5 54 1.5
v -5.5 50 0.5
v -5.5 51 0.5
v -5.5 54 0.5
v -4.5 50 0.5
v -4.5 51 0.5
v -4.5 53 0.5
v -2.5 52 0.5
v -2.5 53 0.5
v -1.5 52 0.5
v -1.5 54 0.5
v -0.5 54 0.5
v -0.5 55 0.5
v -0.5 69 0.5
v -0.5 70 0.5
v 0.5 54 0.5
v 0.5 55 0.5
v 0.5 69 0.5
v 0.5 70 0.5
v -5.5 50 -0.5
v -5.5 51 -0.5
v -5.5 54 -0.5
v -4.5 50 -0.5
v -4.5 51 -0.5
v -4.5 53 -0.5
v -2.5 52 -0.5
v -2.5 53 -0.5
v -1.5 52 -0.5
v -1.5 54 -0.5
v -0.5 54 -0.5
v -0.5 55 -0.5
v -0.5 69 -0.5
v -0.5 70 -0.5
v 0.5 54 -0.5
v 0.5 55 -0.5
v 0.5 69 -0.5
v 0.5 70 -0.5
v -1.5 20 -1.5
v -1.5 40 -1.5
v -1.5 41 -1.5
v -1.5 45 -1.5
v -1.5 46 -1.5
v -1.5 54 -1.5
v -0.5 45 -1.5
v -0.5 46 -1.5
v 0.5 49 -1.5
v 0.5 51 -1.5
v 1.5 20 -1.5
v 1.5 40 -1.5
v 1.5 41 -1.5
v 1.5 49 -1.5
v 1.5 51 -1.5
v 1.5 54 -1.5
v -2.5 0 -2.5
v -2.5 2 -2.5
v -2.5 20 -2.5
v -2.5 40 -2.5
v -2.5 41 -2.5
v -2.5 64 -2.5
v -2.5 65 -2.5
v -2.5 68 -2.5
v -2.5 69 -2.5
v 2.5 0 -2.5
v 2.5 2 -2.5
v 2.5 20 -2.5
v 2.5 40 -2.5
v 2.5 41 -2.5
v 2.5 64 -2.5
v 2.5 65 -2.5
v 2.5 68 -2.5
v 2.5 69 -2.5
v -3.5 65 -3.5
v -3.5 68 -3.5
v 3.5 65 -3.5
v 3.5 68 -3.5
v -2.5 0 2.5
v 2.5 0 2.5
v -1.5 0 1.5
v 1.5 0 1.5
v -1.5 0 -1.5
v 1.5 0 -1.5
v -2.5 0 -2.5
v 2.5 0 -2.5
v -2.5 40 2.5
v 2.5 40 2.5
v -1.5 40 1.5
v 1.5 40 1.5
v -1.5 40 -1.5
v 1.5 40 -1.5
v -2.5 40 -2.5
v 2.5 40 -2.5
v -5.5 50 0.5
v -4.5 50 0.5
v -5.5 50 -0.5
v -4.5 50 -0.5
v -2.5 52 0.5
v -1.5 52 0.5
v -2.5 52 -0.5
v -1.5 52 -0.5
v -4.5 53 0.5
v -2.5 53 0.5
v -4.5 53 -0.5
v -2.5 53 -0.5
v -2.5 64 2.5
v 2.5 64 2.5
v -2.5 64 -2.5
v 2.5 64 -2.5
v -3.5 65 3.5
v 3.5 65 3.5
v -2.5 65 2.5
v 2.5 65 2.5
v -2.5 65 -2.5
v 2.5 65 -2.5
v -3.5 65 -3.5
v 3.5 65 -3.5
v -2.5 20 2.5
v 2.5 20 2.5
v -1.5 20 1.5
v 1.5 20 1.5
v -1.5 20 -1.5
v 1.5 20 -1.5
v -2.5 20 -2.5
v 2.5 20 -2.5
v -2.5 41 2.5
v 2.5 41 2.5
v -1.5 41 1.5
v 1.5 41 1.5
v -1.5 41 -1.5
v 1.5 41 -1.5
v -2.5 41 -2.5
v 2.5 41 -2.5
v -1.5 54 1.5
v 1.5 54 1.5
v -5.5 54 0.5
v -1.5 54 0.5
v -0.5 54 0.5
v 0.5 54 0.5
v -5.5 54 -0.5
v -1.5 54 -0.5
v -0.5 54 -0.5
v 0.5 54 -0.5
v -1.5 54 -1.5
v 1.5 54 -1.5
v -0.5 55 0.5
v 0.5 55 0.5
v -0.5 55 -0.5
v 0.5 55 -0.5
v -3.5 68 3.5
v 3.5 68 3.5
v -2.5 68 2.5
v 2.5 68 2.5
v -2.5 68 -2.5
v 2.5 68 -2.5
v -3.5 68 -3.5
v 3.5 68 -3.5
v -2.5 69 2.5
v 2.5 69 2.5
v -0.5 69 0.5
v 0.5 69 0.5
v -0.5 69 -0.5
v 0.5 69 -0.5
v -2.5 69 -2.5
v 2.5 69 -2.5
v -0.5 70 0.5
v 0.5 70 0.5
v -0.5 70 -0.5
v 0.5 70 -0.5

# faces
f 3/3/1 2/3/1 1/3/1
f 4/3/1 2/3/1 3/3/1
f 5/2/1 4/2/1 3/2/1
f 6/2/1 4/2/1 5/2/1
f 9/2/1 8/2/1 7/2/1
f 10/2/1 8/2/1 9/2/1
f 13/3/1 12/3/1 11/3/1
f 14/3/1 12/3/1 13/3/1
f 15/2/1 14/2/1 13/2/1
f 16/2/1 14/2/1 15/2/1
f 17/2/1 15/2/1 13/2/1
f 17/1/1 16/1/1 15/1/1
f 18/2/1 14/2/1 16/2/1
f 18/1/1 16/1/1 17/1/1
f 19/2/1 17/2/1 13/2/1
f 19/2/1 18/2/1 17/2/1
f 20/2/1 14/2/1 18/2/1
f 20/2/1 18/2/1 19/2/1
f 21/2/1 19/2/1 13/2/1
f 21/1/1 20/1/1 19/1/1
f 22/2/1 14/2/1 20/2/1
f 22/1/1 20/1/1 21/1/1
f 23/2/1 21/2/1 13/2/1
f 23/2/1 22/2/1 21/2/1
f 24/2/1 14/2/1 22/2/1
f 24/2/1 22/2/1 23/2/1
f 27/3/1 26/3/1 25/3/1
f 28/3/1 26/3/1 27/3/1
f 31/2/1 30/2/1 29/2/1
f 32/2/1 30/2/1 31/2/1
f 35/3/1 34/3/1 33/3/1
f 36/3/1 34/3/1 35/3/1
f 39/2/1 38/2/1 37/2/1
f 40/2/1 38/2/1 39/2/1
f 43/2/1 42/2/1 41/2/1
f 44/2/1 42/2/1 43/2/1
f 45/2/1 43/2/1 41/2/1
f 45/1/1 44/1/1 43/1/1
f 46/2/1 42/2/1 44/2/1
f 46/1/1 44/1/1 45/1/1
f 47/2/1 45/2/1 41/2/1
f 47/2/1 46/2/1 45/2/1
f 48/2/1 42/2/1 46/2/1
f 48/2/1 46/2/1 47/2/1
f 51/2/1 50/2/1 49/2/1
f 52/2/1 50/2/1 51/2/1
f 53/2/1 51/2/1 49/2/1
f 53/1/1 52/1/1 51/1/1
f 54/1/1 52/1/1 53/1/1
f 55/2/1 53/2/1 49/2/1
f 55/2/1 54/2/1 53/2/1
f 56/2/1 54/2/1 55/2/1
f 57/2/1 55/2/1 49/2/1
f 58/2/1 55/2/1 57/2/1
f 59/2/1 54/2/1 56/2/1
f 60/2/1 54/2/1 59/2/1
f 63/3/1 62/3/1 61/3/1
f 64/3/1 62/3/1 63/3/1
f 67/2/1 66/2/1 65/2/1
f 68/2/1 66/2/1 67/2/1
f 69/3/2 70/3/2 71/3/2
f 71/3/2 70/3/2 72/3/2
f 71/2/2 72/2/2 73/2/2
f 73/2/2 72/2/2 74/2/2
f 75/3/2 76/3/2 77/3/2
f 77/3/2 76/3/2 78/3/2
f 79/2/2 80/2/2 81/2/2
f 81/2/2 80/2/2 82/2/2
f 83/2/2 84/2/2 85/2/2
f 85/2/2 84/2/2 86/2/2
f 87/2/2 88/2/2 89/2/2
f 89/2/2 88/2/2 90/2/2
f 87/2/2 89/2/2 91/2/2
f 89/1/2 90/1/2 91/1/2
f 91/1/2 90/1/2 92/1/2
f 87/2/2 91/2/2 93/2/2
f 91/2/2 92/2/2 93/2/2
f 93/2/2 92/2/2 94/2/2
f 95/3/2 96/3/2 97/3/2
f 97/3/2 96/3/2 98/3/2
f 97/2/2 98/2/2 99/2/2
f 99/2/2 98/2/2 100/2/2
f 101/3/2 102/3/2 103/3/2
f 103/3/2 102/3/2 104/3/2
f 105/3/2 106/3/2 107/3/2
f 107/3/2 106/3/2 108/3/2
f 109/2/2 110/2/2 111/2/2
f 111/2/2 110/2/2 112/2/2
f 113/2/2 114/2/2 115/2/2
f 115/2/2 114/2/2 116/2/2
f 119/2/3 118/2/3 117/2/3
f 120/2/3 118/2/3 119/2/3
f 130/2/3 123/2/3 122/2/3
f 131/2/3 123/2/3 130/2/3
f 132/2/3 130/2/3 122/2/3
f 133/2/3 130/2/3 132/2/3
f 134/1/3 131/1/3 130/1/3
f 134/2/3 130/2/3 133/2/3
f 135/2/3 123/2/3 131/2/3
f 135/1/3 131/1/3 134/1/3
f 136/3/3 133/3/3 132/3/3
f 136/2/3 132/2/3 122/2/3
f 137/2/3 134/2/3 133/2/3
f 137/3/3 133/3/3 136/3/3
f 137/2/3 135/2/3 134/2/3
f 138/3/3 122/3/3 121/3/3
f 139/2/3 136/2/3 122/2/3
f 139/3/3 122/3/3 138/3/3
f 139/2/3 137/2/3 136/2/3
f 140/2/3 135/2/3 137/2/3
f 140/2/3 137/2/3 139/2/3
f 140/2/3 123/2/3 135/2/3
f 141/3/3 125/3/3 124/3/3
f 142/3/3 125/3/3 141/3/3
f 143/3/3 127/3/3 126/3/3
f 144/3/3 127/3/3 143/3/3
f 145/2/3 129/2/3 128/2/3
f 146/2/3 129/2/3 145/2/3
f 151/2/3 148/2/3 147/2/3
f 152/2/3 148/2/3 151/2/3
f 153/2/3 150/2/3 149/2/3
f 154/2/3 150/2/3 153/2/3
f 158/3/3 156/3/3 155/3/3
f 159/2/3 157/2/3 156/2/3
f 159/3/3 156/3/3 158/3/3
f 160/2/3 157/2/3 159/2/3
f 162/2/3 157/2/3 160/2/3
f 163/2/3 162/2/3 161/2/3
f 164/2/3 157/2/3 162/2/3
f 164/2/3 162/2/3 163/2/3
f 169/3/3 166/3/3 165/3/3
f 170/3/3 166/3/3 169/3/3
f 171/2/3 168/2/3 167/2/3
f 172/2/3 168/2/3 171/2/3
f 173/3/4 174/3/4 176/3/4
f 174/2/4 175/2/4 177/2/4
f 176/3/4 174/3/4 177/3/4
f 177/2/4 175/2/4 178/2/4
f 178/2/4 175/2/4 180/2/4
f 179/2/4 180/2/4 181/2/4
f 180/2/4 175/2/4 182/2/4
f 181/2/4 180/2/4 182/2/4
f 183/3/4 184/3/4 187/3/4
f 187/3/4 184/3/4 188/3/4
f 185/2/4 186/2/4 189/2/4
f 189/2/4 186/2/4 190/2/4
f 193/2/4 194/2/4 197/2/4
f 194/1/4 195/1/4 197/1/4
f 195/2/4 196/2/4 198/2/4
f 197/1/4 195/1/4 198/1/4
f 197/2/4 198/2/4 199/2/4
f 198/2/4 196/2/4 199/2/4
f 199/2/4 196/2/4 200/2/4
f 191/2/4 192/2/4 201/2/4
f 201/2/4 192/2/4 202/2/4
f 193/2/4 197/2/4 203/2/4
f 197/2/4 199/2/4 203/2/4
f 199/1/4 200/1/4 204/1/4
f 203/2/4 199/2/4 204/2/4
f 200/2/4 196/2/4 205/2/4
f 204/1/4 200/1/4 205/1/4
f 205/2/4 196/2/4 206/2/4
f 207/3/4 208/3/4 216/3/4
f 208/2/4 209/2/4 217/2/4
f 216/3/4 208/3/4 217/3/4
f 217/2/4 209/2/4 218/2/4
f 210/3/4 211/3/4 219/3/4
f 219/3/4 211/3/4 220/3/4
f 212/3/4 213/3/4 221/3/4
f 221/3/4 213/3/4 222/3/4
f 214/2/4 215/2/4 223/2/4
f 223/2/4 215/2/4 224/2/4
f 225/2/4 226/2/4 227/2/4
f 227/2/4 226/2/4 228/2/4
f 231/3/5 230/3/5 229/3/5
f 232/3/5 230/3/5 231/3/5
f 233/3/5 231/3/5 229/3/5
f 233/2/5 232/2/5 231/2/5
f 234/3/5 230/3/5 232/3/5
f 234/2/5 232/2/5 233/2/5
f 235/3/5 233/3/5 229/3/5
f 235/3/5 234/3/5 233/3/5
f 236/3/5 230/3/5 234/3/5
f 236/3/5 234/3/5 235/3/5
f 239/3/5 238/3/5 237/3/5
f 240/3/5 238/3/5 239/3/5
f 241/3/5 239/3/5 237/3/5
f 242/3/5 238/3/5 240/3/5
f 243/3/5 241/3/5 237/3/5
f 243/3/5 242/3/5 241/3/5
f 244/3/5 238/3/5 242/3/5
f 244/3/5 242/3/5 243/3/5
f 247/3/5 246/3/5 245/3/5
f 248/3/5 246/3/5 247/3/5
f 251/2/5 250/2/5 249/2/5
f 252/2/5 250/2/5 251/2/5
f 255/2/5 254/2/5 253/2/5
f 256/2/5 254/2/5 255/2/5
f 259/3/5 258/3/5 257/3/5
f 260/3/5 258/3/5 259/3/5
f 263/2/5 262/2/5 261/2/5
f 264/2/5 262/2/5 263/2/5
f 265/2/5 263/2/5 261/2/5
f 266/2/5 262/2/5 264/2/5
f 267/2/5 265/2/5 261/2/5
f 267/2/5 266/2/5 265/2/5
f 268/2/5 262/2/5 266/2/5
f 268/2/5 266/2/5 267/2/5
f 269/2/6 270/2/6 271/2/6
f 271/2/6 270/2/6 272/2/6
f 269/2/6 271/2/6 273/2/6
f 272/2/6 270/2/6 274/2/6
f 269/2/6 273/2/6 275/2/6
f 273/2/6 274/2/6 275/2/6
f 274/2/6 270/2/6 276/2/6
f 275/2/6 274/2/6 276/2/6
f 277/3/6 278/3/6 279/3/6
f 279/3/6 278/3/6 280/3/6
f 277/3/6 279/3/6 281/3/6
f 280/3/6 278/3/6 282/3/6
f 277/3/6 281/3/6 283/3/6
f 281/3/6 282/3/6 283/3/6
f 282/3/6 278/3/6 284/3/6
f 283/3/6 282/3/6 284/3/6
f 285/2/6 286/2/6 288/2/6
f 288/2/6 286/2/6 289/2/6
f 289/2/6 286/2/6 290/2/6
f 287/2/6 288/2/6 291/2/6
f 288/2/6 289/2/6 291/2/6
f 291/2/6 289/2/6 292/2/6
f 292/2/6 289/2/6 293/2/6
f 290/2/6 286/2/6 294/2/6
f 292/2/6 293/2/6 295/2/6
f 293/2/6 294/2/6 295/2/6
f 294/2/6 286/2/6 296/2/6
f 295/2/6 294/2/6 296/2/6
f 297/3/6 298/3/6 299/3/6
f 299/3/6 298/3/6 300/3/6
f 301/2/6 302/2/6 303/2/6
f 303/2/6 302/2/6 304/2/6
f 301/2/6 303/2/6 305/2/6
f 304/2/6 302/2/6 306/2/6
f 301/2/6 305/2/6 307/2/6
f 305/2/6 306/2/6 307/2/6
f 306/2/6 302/2/6 308/2/6
f 307/2/6 306/2/6 308/2/6
f 309/2/6 310/2/6 311/2/6
f 311/2/6 310/2/6 312/2/6
f 309/2/6 311/2/6 313/2/6
f 312/2/6 310/2/6 314/2/6
f 309/2/6 313/2/6 315/2/6
f 313/2/6 314/2/6 315/2/6
f 314/2/6 310/2/6 316/2/6
f 315/2/6 314/2/6 316/2/6
f 317/2/6 318/2/6 319/2/6
f 319/2/6 318/2/6 320/2/6
