# MagicaVoxel @ Ephtracy

# group
g map

# material
mtllib map.mtl
usemtl palette

# normals
vn -1 0 0
vn 1 0 0
vn 0 0 1
vn 0 0 -1
vn 0 -1 0
vn 0 1 0

# texcoords
vt 0.279297 0.5
vt 0.298828 0.5
vt 0.357422 0.5
vt 0.955078 0.5

# verts
v -30 0 5
v -30 0 3
v -30 0 -3
v -30 0 -5
v -30 19 3
v -30 19 -3
v -30 60 5
v -30 60 -5
v 28 0 5
v 28 0 3
v 28 0 -3
v 28 0 -5
v 28 19 5
v 28 19 3
v 28 19 -3
v 28 19 -5
v 29 20 5
v 29 20 4
v 29 59 5
v 29 59 4
v -29 20 5
v -29 20 4
v -29 59 5
v -29 59 4
v -28 0 5
v -28 0 3
v -28 0 -3
v -28 0 -5
v -28 19 5
v -28 19 3
v -28 19 -3
v -28 19 -5
v 30 0 5
v 30 0 3
v 30 0 -3
v 30 0 -5
v 30 19 3
v 30 19 -3
v 30 60 5
v 30 60 -5
v -30 0 5
v -30 60 5
v -29 20 5
v -29 59 5
v -28 0 5
v -28 19 5
v 28 0 5
v 28 19 5
v 29 20 5
v 29 59 5
v 30 0 5
v 30 60 5
v -29 20 4
v -29 59 4
v -28 20 4
v -28 24 4
v -26 20 4
v -26 24 4
v -25 45 4
v -25 47 4
v -23 45 4
v -23 47 4
v -21 22 4
v -21 25 4
v -21 26 4
v -21 27 4
v -21 56 4
v -21 57 4
v -20 26 4
v -20 27 4
v -20 34 4
v -20 35 4
v -20 46 4
v -20 47 4
v -20 56 4
v -20 57 4
v -19 21 4
v -19 22 4
v -19 25 4
v -19 34 4
v -19 35 4
v -19 36 4
v -19 45 4
v -19 46 4
v -19 47 4
v -18 21 4
v -18 22 4
v -18 35 4
v -18 36 4
v -18 45 4
v -18 46 4
v -16 40 4
v -16 41 4
v -15 40 4
v -15 41 4
v -13 27 4
v -13 28 4
v -13 35 4
v -13 36 4
v -13 45 4
v -13 46 4
v -13 53 4
v -13 54 4
v -12 27 4
v -12 28 4
v -12 29 4
v -12 34 4
v -12 35 4
v -12 36 4
v -12 45 4
v -12 46 4
v -12 47 4
v -12 52 4
v -12 53 4
v -12 54 4
v -11 28 4
v -11 29 4
v -11 34 4
v -11 35 4
v -11 46 4
v -11 47 4
v -11 52 4
v -11 53 4
v -9 31 4
v -9 32 4
v -9 49 4
v -9 50 4
v -8 31 4
v -8 32 4
v -8 49 4
v -8 50 4
v -6 28 4
v -6 29 4
v -6 34 4
v -6 35 4
v -6 46 4
v -6 47 4
v -6 52 4
v -6 53 4
v -5 27 4
v -5 28 4
v -5 29 4
v -5 34 4
v -5 35 4
v -5 36 4
v -5 45 4
v -5 46 4
v -5 47 4
v -5 52 4
v -5 53 4
v -5 54 4
v -4 27 4
v -4 28 4
v -4 35 4
v -4 36 4
v -4 45 4
v -4 46 4
v -4 53 4
v -4 54 4
v -4 55 4
v -3 54 4
v -3 55 4
v -1 39 4
v -1 42 4
v 2 39 4
v 2 42 4
v 2 55 4
v 2 56 4
v 3 55 4
v 3 56 4
v 5 27 4
v 5 28 4
v 5 35 4
v 5 36 4
v 5 45 4
v 5 46 4
v 5 53 4
v 5 54 4
v 6 27 4
v 6 28 4
v 6 29 4
v 6 34 4
v 6 35 4
v 6 36 4
v 6 45 4
v 6 46 4
v 6 47 4
v 6 52 4
v 6 53 4
v 6 54 4
v 7 28 4
v 7 29 4
v 7 34 4
v 7 35 4
v 7 46 4
v 7 47 4
v 7 52 4
v 7 53 4
v 9 31 4
v 9 32 4
v 9 49 4
v 9 50 4
v 10 31 4
v 10 32 4
v 10 49 4
v 10 50 4
v 12 28 4
v 12 29 4
v 12 34 4
v 12 35 4
v 12 46 4
v 12 47 4
v 12 52 4
v 12 53 4
v 13 27 4
v 13 28 4
v 13 29 4
v 13 34 4
v 13 35 4
v 13 36 4
v 13 45 4
v 13 46 4
v 13 47 4
v 13 52 4
v 13 53 4
v 13 54 4
v 14 27 4
v 14 28 4
v 14 35 4
v 14 36 4
v 14 45 4
v 14 46 4
v 14 53 4
v 14 54 4
v 15 21 4
v 15 23 4
v 15 33 4
v 15 35 4
v 16 40 4
v 16 41 4
v 17 40 4
v 17 41 4
v 18 21 4
v 18 23 4
v 18 33 4
v 18 35 4
v 19 27 4
v 19 28 4
v 19 35 4
v 19 36 4
v 19 45 4
v 19 46 4
v 20 27 4
v 20 28 4
v 20 34 4
v 20 35 4
v 20 36 4
v 20 45 4
v 20 46 4
v 20 47 4
v 21 34 4
v 21 35 4
v 21 43 4
v 21 44 4
v 21 46 4
v 21 47 4
v 22 43 4
v 22 44 4
v 22 47 4
v 22 48 4
v 23 20 4
v 23 23 4
v 23 47 4
v 23 48 4
v 24 55 4
v 24 57 4
v 26 24 4
v 26 25 4
v 26 52 4
v 26 53 4
v 27 24 4
v 27 25 4
v 27 52 4
v 27 53 4
v 27 55 4
v 27 57 4
v 28 20 4
v 28 23 4
v 29 20 4
v 29 59 4
v -30 0 -3
v -30 19 -3
v -28 0 -3
v -28 19 -3
v 28 0 -3
v 28 19 -3
v 30 0 -3
v 30 19 -3
v -30 0 3
v -30 19 3
v -28 0 3
v -28 19 3
v 28 0 3
v 28 19 3
v 30 0 3
v 30 19 3
v -30 0 -5
v -30 60 -5
v -28 0 -5
v -28 19 -5
v 28 0 -5
v 28 19 -5
v 30 0 -5
v 30 60 -5
v -30 0 5
v -28 0 5
v 28 0 5
v 30 0 5
v -30 0 3
v -28 0 3
v 28 0 3
v 30 0 3
v -30 0 -3
v -28 0 -3
v 28 0 -3
v 30 0 -3
v -30 0 -5
v -28 0 -5
v 28 0 -5
v 30 0 -5
v -28 19 5
v 28 19 5
v -30 19 3
v -28 19 3
v 28 19 3
v 30 19 3
v -30 19 -3
v -28 19 -3
v 28 19 -3
v 30 19 -3
v -28 19 -5
v 28 19 -5
v -29 59 5
v 29 59 5
v -29 59 4
v 29 59 4
v -29 20 5
v 29 20 5
v -29 20 4
v -28 20 4
v -26 20 4
v 23 20 4
v 28 20 4
v 29 20 4
v -30 60 5
v 30 60 5
v -30 60 -5
v 30 60 -5

# faces
f 5/4/1 2/4/1 1/4/1
f 6/4/1 4/4/1 3/4/1
f 7/4/1 5/4/1 1/4/1
f 7/4/1 6/4/1 5/4/1
f 8/4/1 4/4/1 6/4/1
f 8/4/1 6/4/1 7/4/1
f 13/4/1 10/4/1 9/4/1
f 14/4/1 10/4/1 13/4/1
f 15/4/1 12/4/1 11/4/1
f 16/4/1 12/4/1 15/4/1
f 19/4/1 18/4/1 17/4/1
f 20/4/1 18/4/1 19/4/1
f 21/4/2 22/4/2 23/4/2
f 23/4/2 22/4/2 24/4/2
f 25/4/2 26/4/2 29/4/2
f 29/4/2 26/4/2 30/4/2
f 27/4/2 28/4/2 31/4/2
f 31/4/2 28/4/2 32/4/2
f 33/4/2 34/4/2 37/4/2
f 35/4/2 36/4/2 38/4/2
f 33/4/2 37/4/2 39/4/2
f 37/4/2 38/4/2 39/4/2
f 38/4/2 36/4/2 40/4/2
f 39/4/2 38/4/2 40/4/2
f 43/4/3 42/4/3 41/4/3
f 44/4/3 42/4/3 43/4/3
f 45/4/3 43/4/3 41/4/3
f 46/4/3 43/4/3 45/4/3
f 48/4/3 43/4/3 46/4/3
f 49/4/3 43/4/3 48/4/3
f 49/4/3 48/4/3 47/4/3
f 50/4/3 42/4/3 44/4/3
f 51/4/3 49/4/3 47/4/3
f 51/4/3 50/4/3 49/4/3
f 52/4/3 42/4/3 50/4/3
f 52/4/3 50/4/3 51/4/3
f 55/3/3 54/3/3 53/3/3
f 56/3/3 54/3/3 55/3/3
f 57/2/3 56/2/3 55/2/3
f 58/3/3 54/3/3 56/3/3
f 58/2/3 56/2/3 57/2/3
f 59/3/3 58/3/3 57/3/3
f 59/3/3 54/3/3 58/3/3
f 60/3/3 54/3/3 59/3/3
f 61/3/3 59/3/3 57/3/3
f 61/2/3 60/2/3 59/2/3
f 62/3/3 54/3/3 60/3/3
f 62/2/3 60/2/3 61/2/3
f 63/3/3 61/3/3 57/3/3
f 63/3/3 62/3/3 61/3/3
f 64/3/3 62/3/3 63/3/3
f 65/3/3 62/3/3 64/3/3
f 66/3/3 62/3/3 65/3/3
f 67/3/3 54/3/3 62/3/3
f 67/3/3 62/3/3 66/3/3
f 68/3/3 54/3/3 67/3/3
f 69/2/3 66/2/3 65/2/3
f 69/3/3 65/3/3 64/3/3
f 70/3/3 67/3/3 66/3/3
f 70/2/3 66/2/3 69/2/3
f 71/3/3 67/3/3 70/3/3
f 72/3/3 67/3/3 71/3/3
f 73/3/3 67/3/3 72/3/3
f 74/3/3 67/3/3 73/3/3
f 75/2/3 68/2/3 67/2/3
f 75/3/3 67/3/3 74/3/3
f 76/3/3 54/3/3 68/3/3
f 76/2/3 68/2/3 75/2/3
f 77/3/3 63/3/3 57/3/3
f 78/2/3 64/2/3 63/2/3
f 78/3/3 63/3/3 77/3/3
f 79/3/3 69/3/3 64/3/3
f 79/2/3 64/2/3 78/2/3
f 79/3/3 70/3/3 69/3/3
f 79/3/3 71/3/3 70/3/3
f 80/1/3 72/1/3 71/1/3
f 80/3/3 71/3/3 79/3/3
f 81/3/3 73/3/3 72/3/3
f 81/1/3 72/1/3 80/1/3
f 82/3/3 73/3/3 81/3/3
f 83/3/3 73/3/3 82/3/3
f 84/1/3 74/1/3 73/1/3
f 84/3/3 73/3/3 83/3/3
f 85/3/3 75/3/3 74/3/3
f 85/1/3 74/1/3 84/1/3
f 85/3/3 76/3/3 75/3/3
f 86/3/3 77/3/3 57/3/3
f 86/2/3 78/2/3 77/2/3
f 87/3/3 80/3/3 79/3/3
f 87/2/3 78/2/3 86/2/3
f 87/3/3 79/3/3 78/3/3
f 87/3/3 81/3/3 80/3/3
f 88/1/3 82/1/3 81/1/3
f 88/3/3 81/3/3 87/3/3
f 89/3/3 83/3/3 82/3/3
f 89/1/3 82/1/3 88/1/3
f 90/1/3 84/1/3 83/1/3
f 90/3/3 83/3/3 89/3/3
f 91/3/3 85/3/3 84/3/3
f 91/1/3 84/1/3 90/1/3
f 92/1/3 90/1/3 89/1/3
f 93/1/3 90/1/3 92/1/3
f 94/1/3 92/1/3 89/1/3
f 94/2/3 93/2/3 92/2/3
f 95/1/3 90/1/3 93/1/3
f 95/2/3 93/2/3 94/2/3
f 96/3/3 89/3/3 88/3/3
f 96/3/3 88/3/3 87/3/3
f 96/3/3 87/3/3 86/3/3
f 97/3/3 89/3/3 96/3/3
f 98/3/3 89/3/3 97/3/3
f 99/1/3 95/1/3 94/1/3
f 99/3/3 89/3/3 98/3/3
f 99/1/3 94/1/3 89/1/3
f 100/1/3 90/1/3 95/1/3
f 100/1/3 95/1/3 99/1/3
f 100/3/3 91/3/3 90/3/3
f 101/3/3 85/3/3 91/3/3
f 101/3/3 91/3/3 100/3/3
f 102/3/3 76/3/3 85/3/3
f 102/3/3 85/3/3 101/3/3
f 103/3/3 76/3/3 102/3/3
f 104/1/3 97/1/3 96/1/3
f 104/3/3 96/3/3 86/3/3
f 105/3/3 98/3/3 97/3/3
f 105/1/3 97/1/3 104/1/3
f 106/3/3 98/3/3 105/3/3
f 107/3/3 98/3/3 106/3/3
f 108/1/3 99/1/3 98/1/3
f 108/3/3 98/3/3 107/3/3
f 109/3/3 100/3/3 99/3/3
f 109/1/3 99/1/3 108/1/3
f 110/1/3 101/1/3 100/1/3
f 110/3/3 100/3/3 109/3/3
f 111/3/3 102/3/3 101/3/3
f 111/1/3 101/1/3 110/1/3
f 112/3/3 102/3/3 111/3/3
f 113/3/3 102/3/3 112/3/3
f 114/1/3 103/1/3 102/1/3
f 114/3/3 102/3/3 113/3/3
f 115/3/3 76/3/3 103/3/3
f 115/1/3 103/1/3 114/1/3
f 116/3/3 105/3/3 104/3/3
f 116/1/3 106/1/3 105/1/3
f 117/3/3 107/3/3 106/3/3
f 117/1/3 106/1/3 116/1/3
f 118/1/3 108/1/3 107/1/3
f 118/3/3 107/3/3 117/3/3
f 119/3/3 109/3/3 108/3/3
f 119/1/3 108/1/3 118/1/3
f 119/3/3 110/3/3 109/3/3
f 119/3/3 111/3/3 110/3/3
f 120/1/3 112/1/3 111/1/3
f 120/3/3 111/3/3 119/3/3
f 121/3/3 113/3/3 112/3/3
f 121/1/3 112/1/3 120/1/3
f 122/1/3 114/1/3 113/1/3
f 122/3/3 113/3/3 121/3/3
f 123/3/3 115/3/3 114/3/3
f 123/1/3 114/1/3 122/1/3
f 124/1/3 118/1/3 117/1/3
f 125/1/3 118/1/3 124/1/3
f 126/1/3 122/1/3 121/1/3
f 127/1/3 122/1/3 126/1/3
f 128/1/3 124/1/3 117/1/3
f 128/2/3 125/2/3 124/2/3
f 129/1/3 118/1/3 125/1/3
f 129/2/3 125/2/3 128/2/3
f 130/2/3 127/2/3 126/2/3
f 130/1/3 126/1/3 121/1/3
f 131/1/3 122/1/3 127/1/3
f 131/2/3 127/2/3 130/2/3
f 132/3/3 116/3/3 104/3/3
f 132/3/3 117/3/3 116/3/3
f 133/1/3 128/1/3 117/1/3
f 133/3/3 117/3/3 132/3/3
f 133/1/3 129/1/3 128/1/3
f 134/3/3 121/3/3 120/3/3
f 134/1/3 129/1/3 133/1/3
f 134/3/3 120/3/3 119/3/3
f 134/1/3 118/1/3 129/1/3
f 134/3/3 119/3/3 118/3/3
f 135/3/3 121/3/3 134/3/3
f 136/3/3 121/3/3 135/3/3
f 137/1/3 131/1/3 130/1/3
f 137/3/3 121/3/3 136/3/3
f 137/1/3 130/1/3 121/1/3
f 138/1/3 122/1/3 131/1/3
f 138/1/3 131/1/3 137/1/3
f 138/3/3 123/3/3 122/3/3
f 139/3/3 115/3/3 123/3/3
f 139/3/3 123/3/3 138/3/3
f 140/3/3 104/3/3 86/3/3
f 140/3/3 132/3/3 104/3/3
f 141/1/3 133/1/3 132/1/3
f 141/3/3 132/3/3 140/3/3
f 142/3/3 134/3/3 133/3/3
f 142/1/3 133/1/3 141/1/3
f 143/1/3 135/1/3 134/1/3
f 143/3/3 134/3/3 142/3/3
f 144/3/3 136/3/3 135/3/3
f 144/1/3 135/1/3 143/1/3
f 145/3/3 136/3/3 144/3/3
f 146/3/3 136/3/3 145/3/3
f 147/1/3 137/1/3 136/1/3
f 147/3/3 136/3/3 146/3/3
f 148/3/3 138/3/3 137/3/3
f 148/1/3 137/1/3 147/1/3
f 149/1/3 139/1/3 138/1/3
f 149/3/3 138/3/3 148/3/3
f 150/3/3 115/3/3 139/3/3
f 150/1/3 139/1/3 149/1/3
f 151/3/3 76/3/3 115/3/3
f 151/3/3 115/3/3 150/3/3
f 152/3/3 140/3/3 86/3/3
f 152/1/3 141/1/3 140/1/3
f 153/3/3 143/3/3 142/3/3
f 153/1/3 141/1/3 152/1/3
f 153/3/3 142/3/3 141/3/3
f 153/3/3 144/3/3 143/3/3
f 154/1/3 145/1/3 144/1/3
f 154/3/3 144/3/3 153/3/3
f 155/3/3 146/3/3 145/3/3
f 155/1/3 145/1/3 154/1/3
f 156/1/3 147/1/3 146/1/3
f 156/3/3 146/3/3 155/3/3
f 157/3/3 149/3/3 148/3/3
f 157/1/3 147/1/3 156/1/3
f 157/3/3 150/3/3 149/3/3
f 157/3/3 148/3/3 147/3/3
f 158/1/3 151/1/3 150/1/3
f 158/3/3 150/3/3 157/3/3
f 159/3/3 76/3/3 151/3/3
f 159/1/3 151/1/3 158/1/3
f 160/3/3 76/3/3 159/3/3
f 161/3/3 158/3/3 157/3/3
f 161/3/3 157/3/3 156/3/3
f 161/2/3 160/2/3 159/2/3
f 161/3/3 159/3/3 158/3/3
f 162/3/3 76/3/3 160/3/3
f 162/2/3 160/2/3 161/2/3
f 163/1/3 156/1/3 155/1/3
f 164/1/3 156/1/3 163/1/3
f 165/1/3 163/1/3 155/1/3
f 165/2/3 164/2/3 163/2/3
f 166/1/3 156/1/3 164/1/3
f 166/2/3 164/2/3 165/2/3
f 167/3/3 76/3/3 162/3/3
f 167/3/3 162/3/3 161/3/3
f 168/3/3 76/3/3 167/3/3
f 169/3/3 167/3/3 161/3/3
f 169/2/3 168/2/3 167/2/3
f 170/3/3 76/3/3 168/3/3
f 170/2/3 168/2/3 169/2/3
f 171/3/3 154/3/3 153/3/3
f 171/3/3 155/3/3 154/3/3
f 171/3/3 152/3/3 86/3/3
f 171/3/3 153/3/3 152/3/3
f 172/3/3 155/3/3 171/3/3
f 173/3/3 155/3/3 172/3/3
f 174/1/3 165/1/3 155/1/3
f 174/3/3 155/3/3 173/3/3
f 174/1/3 166/1/3 165/1/3
f 175/3/3 170/3/3 169/3/3
f 175/1/3 166/1/3 174/1/3
f 175/1/3 156/1/3 166/1/3
f 175/3/3 169/3/3 161/3/3
f 175/3/3 161/3/3 156/3/3
f 176/3/3 170/3/3 175/3/3
f 177/3/3 170/3/3 176/3/3
f 178/3/3 170/3/3 177/3/3
f 179/3/3 171/3/3 86/3/3
f 179/1/3 172/1/3 171/1/3
f 180/3/3 173/3/3 172/3/3
f 180/1/3 172/1/3 179/1/3
f 181/3/3 173/3/3 180/3/3
f 182/3/3 173/3/3 181/3/3
f 183/1/3 174/1/3 173/1/3
f 183/3/3 173/3/3 182/3/3
f 184/3/3 175/3/3 174/3/3
f 184/1/3 174/1/3 183/1/3
f 185/1/3 176/1/3 175/1/3
f 185/3/3 175/3/3 184/3/3
f 186/3/3 177/3/3 176/3/3
f 186/1/3 176/1/3 185/1/3
f 187/3/3 177/3/3 186/3/3
f 188/3/3 177/3/3 187/3/3
f 189/1/3 178/1/3 177/1/3
f 189/3/3 177/3/3 188/3/3
f 190/3/3 170/3/3 178/3/3
f 190/1/3 178/1/3 189/1/3
f 191/3/3 180/3/3 179/3/3
f 191/1/3 181/1/3 180/1/3
f 192/3/3 182/3/3 181/3/3
f 192/1/3 181/1/3 191/1/3
f 193/1/3 183/1/3 182/1/3
f 193/3/3 182/3/3 192/3/3
f 194/3/3 184/3/3 183/3/3
f 194/1/3 183/1/3 193/1/3
f 194/3/3 185/3/3 184/3/3
f 194/3/3 186/3/3 185/3/3
f 195/1/3 187/1/3 186/1/3
f 195/3/3 186/3/3 194/3/3
f 196/3/3 188/3/3 187/3/3
f 196/1/3 187/1/3 195/1/3
f 197/1/3 189/1/3 188/1/3
f 197/3/3 188/3/3 196/3/3
f 198/3/3 190/3/3 189/3/3
f 198/1/3 189/1/3 197/1/3
f 199/1/3 193/1/3 192/1/3
f 200/1/3 193/1/3 199/1/3
f 201/1/3 197/1/3 196/1/3
f 202/1/3 197/1/3 201/1/3
f 203/1/3 199/1/3 192/1/3
f 203/2/3 200/2/3 199/2/3
f 204/1/3 193/1/3 200/1/3
f 204/2/3 200/2/3 203/2/3
f 205/2/3 202/2/3 201/2/3
f 205/1/3 201/1/3 196/1/3
f 206/1/3 197/1/3 202/1/3
f 206/2/3 202/2/3 205/2/3
f 207/3/3 191/3/3 179/3/3
f 207/3/3 192/3/3 191/3/3
f 208/1/3 203/1/3 192/1/3
f 208/3/3 192/3/3 207/3/3
f 208/1/3 204/1/3 203/1/3
f 209/3/3 196/3/3 195/3/3
f 209/1/3 204/1/3 208/1/3
f 209/3/3 195/3/3 194/3/3
f 209/1/3 193/1/3 204/1/3
f 209/3/3 194/3/3 193/3/3
f 210/3/3 196/3/3 209/3/3
f 211/3/3 196/3/3 210/3/3
f 212/1/3 205/1/3 196/1/3
f 212/3/3 196/3/3 211/3/3
f 212/1/3 206/1/3 205/1/3
f 213/1/3 197/1/3 206/1/3
f 213/1/3 206/1/3 212/1/3
f 213/3/3 198/3/3 197/3/3
f 214/3/3 190/3/3 198/3/3
f 214/3/3 198/3/3 213/3/3
f 215/3/3 179/3/3 86/3/3
f 215/3/3 207/3/3 179/3/3
f 216/1/3 208/1/3 207/1/3
f 216/3/3 207/3/3 215/3/3
f 217/3/3 209/3/3 208/3/3
f 217/1/3 208/1/3 216/1/3
f 218/1/3 210/1/3 209/1/3
f 218/3/3 209/3/3 217/3/3
f 219/3/3 211/3/3 210/3/3
f 219/1/3 210/1/3 218/1/3
f 220/3/3 211/3/3 219/3/3
f 221/3/3 211/3/3 220/3/3
f 222/1/3 212/1/3 211/1/3
f 222/3/3 211/3/3 221/3/3
f 223/3/3 213/3/3 212/3/3
f 223/1/3 212/1/3 222/1/3
f 224/1/3 214/1/3 213/1/3
f 224/3/3 213/3/3 223/3/3
f 225/3/3 190/3/3 214/3/3
f 225/1/3 214/1/3 224/1/3
f 226/3/3 170/3/3 190/3/3
f 226/3/3 190/3/3 225/3/3
f 227/3/3 215/3/3 86/3/3
f 227/1/3 216/1/3 215/1/3
f 228/3/3 218/3/3 217/3/3
f 228/1/3 216/1/3 227/1/3
f 228/3/3 217/3/3 216/3/3
f 228/3/3 219/3/3 218/3/3
f 229/1/3 220/1/3 219/1/3
f 229/3/3 219/3/3 228/3/3
f 230/3/3 221/3/3 220/3/3
f 230/1/3 220/1/3 229/1/3
f 231/1/3 222/1/3 221/1/3
f 231/3/3 221/3/3 230/3/3
f 232/3/3 224/3/3 223/3/3
f 232/1/3 222/1/3 231/1/3
f 232/3/3 225/3/3 224/3/3
f 232/3/3 223/3/3 222/3/3
f 233/1/3 226/1/3 225/1/3
f 233/3/3 225/3/3 232/3/3
f 234/3/3 170/3/3 226/3/3
f 234/1/3 226/1/3 233/1/3
f 235/3/3 229/3/3 228/3/3
f 235/3/3 227/3/3 86/3/3
f 235/3/3 86/3/3 57/3/3
f 235/3/3 228/3/3 227/3/3
f 235/3/3 230/3/3 229/3/3
f 236/3/3 230/3/3 235/3/3
f 237/3/3 230/3/3 236/3/3
f 238/3/3 230/3/3 237/3/3
f 239/1/3 231/1/3 230/1/3
f 240/1/3 231/1/3 239/1/3
f 241/1/3 239/1/3 230/1/3
f 241/2/3 240/2/3 239/2/3
f 242/1/3 231/1/3 240/1/3
f 242/2/3 240/2/3 241/2/3
f 243/3/3 235/3/3 57/3/3
f 243/2/3 236/2/3 235/2/3
f 244/3/3 237/3/3 236/3/3
f 244/2/3 236/2/3 243/2/3
f 245/2/3 238/2/3 237/2/3
f 245/3/3 237/3/3 244/3/3
f 246/3/3 230/3/3 238/3/3
f 246/2/3 238/2/3 245/2/3
f 247/3/3 245/3/3 244/3/3
f 247/3/3 244/3/3 243/3/3
f 247/3/3 246/3/3 245/3/3
f 248/3/3 246/3/3 247/3/3
f 249/3/3 230/3/3 246/3/3
f 249/3/3 246/3/3 248/3/3
f 250/1/3 242/1/3 241/1/3
f 250/3/3 230/3/3 249/3/3
f 250/1/3 241/1/3 230/1/3
f 251/3/3 233/3/3 232/3/3
f 251/1/3 242/1/3 250/1/3
f 251/3/3 234/3/3 233/3/3
f 251/3/3 232/3/3 231/3/3
f 251/1/3 231/1/3 242/1/3
f 252/3/3 234/3/3 251/3/3
f 253/3/3 247/3/3 243/3/3
f 253/2/3 248/2/3 247/2/3
f 254/3/3 249/3/3 248/3/3
f 254/2/3 248/2/3 253/2/3
f 255/3/3 249/3/3 254/3/3
f 256/1/3 250/1/3 249/1/3
f 256/3/3 249/3/3 255/3/3
f 257/3/3 251/3/3 250/3/3
f 257/1/3 250/1/3 256/1/3
f 258/1/3 252/1/3 251/1/3
f 258/3/3 251/3/3 257/3/3
f 259/3/3 234/3/3 252/3/3
f 259/1/3 252/1/3 258/1/3
f 260/3/3 234/3/3 259/3/3
f 261/3/3 255/3/3 254/3/3
f 261/1/3 256/1/3 255/1/3
f 261/3/3 254/3/3 253/3/3
f 262/3/3 258/3/3 257/3/3
f 262/1/3 256/1/3 261/1/3
f 262/3/3 257/3/3 256/3/3
f 262/3/3 259/3/3 258/3/3
f 263/3/3 259/3/3 262/3/3
f 264/3/3 259/3/3 263/3/3
f 265/1/3 260/1/3 259/1/3
f 265/3/3 259/3/3 264/3/3
f 266/3/3 234/3/3 260/3/3
f 266/1/3 260/1/3 265/1/3
f 267/2/3 264/2/3 263/2/3
f 267/3/3 262/3/3 261/3/3
f 267/3/3 263/3/3 262/3/3
f 268/3/3 265/3/3 264/3/3
f 268/2/3 264/2/3 267/2/3
f 268/3/3 266/3/3 265/3/3
f 269/3/3 234/3/3 266/3/3
f 269/3/3 266/3/3 268/3/3
f 270/3/3 234/3/3 269/3/3
f 271/3/3 267/3/3 261/3/3
f 271/3/3 261/3/3 253/3/3
f 271/3/3 268/3/3 267/3/3
f 271/3/3 269/3/3 268/3/3
f 271/3/3 253/3/3 243/3/3
f 271/3/3 243/3/3 57/3/3
f 272/3/3 269/3/3 271/3/3
f 273/2/3 270/2/3 269/2/3
f 273/3/3 269/3/3 272/3/3
f 274/3/3 234/3/3 270/3/3
f 274/2/3 270/2/3 273/2/3
f 275/3/3 170/3/3 234/3/3
f 275/3/3 234/3/3 274/3/3
f 275/3/3 274/3/3 273/3/3
f 275/3/3 273/3/3 272/3/3
f 276/3/3 76/3/3 170/3/3
f 276/3/3 170/3/3 275/3/3
f 276/3/3 54/3/3 76/3/3
f 277/3/3 275/3/3 272/3/3
f 278/3/3 275/3/3 277/3/3
f 279/3/3 275/3/3 278/3/3
f 280/3/3 275/3/3 279/3/3
f 281/3/3 277/3/3 272/3/3
f 281/2/3 278/2/3 277/2/3
f 282/3/3 279/3/3 278/3/3
f 282/2/3 278/2/3 281/2/3
f 283/2/3 280/2/3 279/2/3
f 283/3/3 279/3/3 282/3/3
f 284/3/3 275/3/3 280/3/3
f 284/2/3 280/2/3 283/2/3
f 285/2/3 276/2/3 275/2/3
f 285/3/3 275/3/3 284/3/3
f 286/3/3 54/3/3 276/3/3
f 286/2/3 276/2/3 285/2/3
f 287/2/3 272/2/3 271/2/3
f 288/3/3 285/3/3 284/3/3
f 288/2/3 272/2/3 287/2/3
f 288/3/3 284/3/3 283/3/3
f 288/3/3 286/3/3 285/3/3
f 288/3/3 281/3/3 272/3/3
f 288/3/3 282/3/3 281/3/3
f 288/3/3 283/3/3 282/3/3
f 289/3/3 288/3/3 287/3/3
f 290/3/3 54/3/3 286/3/3
f 290/3/3 288/3/3 289/3/3
f 290/3/3 286/3/3 288/3/3
f 293/4/3 292/4/3 291/4/3
f 294/4/3 292/4/3 293/4/3
f 297/4/3 296/4/3 295/4/3
f 298/4/3 296/4/3 297/4/3
f 299/4/4 300/4/4 301/4/4
f 301/4/4 300/4/4 302/4/4
f 303/4/4 304/4/4 305/4/4
f 305/4/4 304/4/4 306/4/4
f 307/4/4 308/4/4 309/4/4
f 309/4/4 308/4/4 310/4/4
f 310/4/4 308/4/4 312/4/4
f 311/4/4 312/4/4 313/4/4
f 312/4/4 308/4/4 314/4/4
f 313/4/4 312/4/4 314/4/4
f 319/4/5 316/4/5 315/4/5
f 320/4/5 316/4/5 319/4/5
f 321/4/5 318/4/5 317/4/5
f 322/4/5 318/4/5 321/4/5
f 327/4/5 324/4/5 323/4/5
f 328/4/5 324/4/5 327/4/5
f 329/4/5 326/4/5 325/4/5
f 330/4/5 326/4/5 329/4/5
f 334/4/5 332/4/5 331/4/5
f 335/4/5 332/4/5 334/4/5
f 337/4/5 334/4/5 333/4/5
f 337/4/5 336/4/5 335/4/5
f 337/4/5 335/4/5 334/4/5
f 338/4/5 336/4/5 337/4/5
f 339/4/5 336/4/5 338/4/5
f 340/4/5 336/4/5 339/4/5
f 341/4/5 339/4/5 338/4/5
f 342/4/5 339/4/5 341/4/5
f 345/4/5 344/4/5 343/4/5
f 346/4/5 344/4/5 345/4/5
f 347/4/6 348/4/6 349/4/6
f 349/4/6 348/4/6 350/4/6
f 350/4/6 348/4/6 351/4/6
f 351/4/6 348/4/6 352/4/6
f 352/4/6 348/4/6 353/4/6
f 353/4/6 348/4/6 354/4/6
f 355/4/6 356/4/6 357/4/6
f 357/4/6 356/4/6 358/4/6
