# MagicaVoxel @ Ephtracy

# group
g platform_1-2

# material
mtllib platform_1-2.mtl
usemtl palette

# normals
vn -1 0 0
vn 1 0 0
vn 0 0 1
vn 0 0 -1
vn 0 -1 0
vn 0 1 0

# texcoords
vt 0.990234 0.5
vt 0.994141 0.5

# verts
v -25 0 25
v -25 0 -25
v -25 1 25
v -25 1 24
v -25 2 24
v -25 2 23
v -25 2 22
v -25 8 24
v -25 8 23
v -25 8 22
v -25 9 25
v -25 9 24
v -25 10 25
v -25 10 -25
v -24 1 25
v -24 1 24
v -24 2 25
v -24 2 24
v -24 3 24
v -24 3 23
v -24 7 24
v -24 7 23
v -24 8 25
v -24 8 24
v -24 9 25
v -24 9 24
v -21 4 24
v -21 4 23
v -21 6 24
v -21 6 23
v -19 3 24
v -19 3 23
v -19 7 24
v -19 7 23
v -16 4 24
v -16 4 23
v -16 6 24
v -16 6 23
v -14 3 24
v -14 3 23
v -14 7 24
v -14 7 23
v -11 4 24
v -11 4 23
v -11 6 24
v -11 6 23
v -9 3 24
v -9 3 23
v -9 7 24
v -9 7 23
v 10 3 24
v 10 3 23
v 10 7 24
v 10 7 23
v 13 4 24
v 13 4 23
v 13 6 24
v 13 6 23
v 15 3 24
v 15 3 23
v 15 7 24
v 15 7 23
v 18 4 24
v 18 4 23
v 18 6 24
v 18 6 23
v 20 3 24
v 20 3 23
v 20 7 24
v 20 7 23
v 23 4 24
v 23 4 23
v 23 6 24
v 23 6 23
v -23 4 24
v -23 4 23
v -23 6 24
v -23 6 23
v -20 3 24
v -20 3 23
v -20 7 24
v -20 7 23
v -18 4 24
v -18 4 23
v -18 6 24
v -18 6 23
v -15 3 24
v -15 3 23
v -15 7 24
v -15 7 23
v -13 4 24
v -13 4 23
v -13 6 24
v -13 6 23
v -10 3 24
v -10 3 23
v -10 7 24
v -10 7 23
v 9 3 24
v 9 3 23
v 9 7 24
v 9 7 23
v 11 4 24
v 11 4 23
v 11 6 24
v 11 6 23
v 14 3 24
v 14 3 23
v 14 7 24
v 14 7 23
v 16 4 24
v 16 4 23
v 16 6 24
v 16 6 23
v 19 3 24
v 19 3 23
v 19 7 24
v 19 7 23
v 21 4 24
v 21 4 23
v 21 6 24
v 21 6 23
v 24 1 25
v 24 1 24
v 24 2 25
v 24 2 24
v 24 3 24
v 24 3 23
v 24 7 24
v 24 7 23
v 24 8 25
v 24 8 24
v 24 9 25
v 24 9 24
v 25 0 25
v 25 0 -25
v 25 1 25
v 25 1 24
v 25 2 24
v 25 2 23
v 25 2 22
v 25 8 24
v 25 8 23
v 25 8 22
v 25 9 25
v 25 9 24
v 25 10 25
v 25 10 -25
v -25 0 25
v -25 1 25
v -25 9 25
v -25 10 25
v -24 1 25
v -24 2 25
v -24 8 25
v -24 9 25
v 24 1 25
v 24 2 25
v 24 8 25
v 24 9 25
v 25 0 25
v 25 1 25
v 25 9 25
v 25 10 25
v -25 1 24
v -25 2 24
v -25 8 24
v -25 9 24
v -24 1 24
v -24 2 24
v -24 3 24
v -24 7 24
v -24 8 24
v -24 9 24
v -23 4 24
v -23 6 24
v -21 4 24
v -21 6 24
v -20 3 24
v -20 7 24
v -19 3 24
v -19 7 24
v -18 4 24
v -18 6 24
v -16 4 24
v -16 6 24
v -15 3 24
v -15 7 24
v -14 3 24
v -14 7 24
v -13 4 24
v -13 6 24
v -11 4 24
v -11 6 24
v -10 3 24
v -10 7 24
v -9 3 24
v -9 7 24
v 9 3 24
v 9 7 24
v 10 3 24
v 10 7 24
v 11 4 24
v 11 6 24
v 13 4 24
v 13 6 24
v 14 3 24
v 14 7 24
v 15 3 24
v 15 7 24
v 16 4 24
v 16 6 24
v 18 4 24
v 18 6 24
v 19 3 24
v 19 7 24
v 20 3 24
v 20 7 24
v 21 4 24
v 21 6 24
v 23 4 24
v 23 6 24
v 24 1 24
v 24 2 24
v 24 3 24
v 24 7 24
v 24 8 24
v 24 9 24
v 25 1 24
v 25 2 24
v 25 8 24
v 25 9 24
v -25 2 23
v -25 8 23
v -24 3 23
v -24 7 23
v -23 4 23
v -23 6 23
v -21 4 23
v -21 6 23
v -20 3 23
v -20 7 23
v -19 3 23
v -19 7 23
v -18 4 23
v -18 6 23
v -16 4 23
v -16 6 23
v -15 3 23
v -15 7 23
v -14 3 23
v -14 7 23
v -13 4 23
v -13 6 23
v -11 4 23
v -11 6 23
v -10 3 23
v -10 7 23
v -9 3 23
v -9 7 23
v 9 3 23
v 9 7 23
v 10 3 23
v 10 7 23
v 11 4 23
v 11 6 23
v 13 4 23
v 13 6 23
v 14 3 23
v 14 7 23
v 15 3 23
v 15 7 23
v 16 4 23
v 16 6 23
v 18 4 23
v 18 6 23
v 19 3 23
v 19 7 23
v 20 3 23
v 20 7 23
v 21 4 23
v 21 6 23
v 23 4 23
v 23 6 23
v 24 3 23
v 24 7 23
v 25 2 23
v 25 8 23
v -25 0 -25
v -25 10 -25
v 25 0 -25
v 25 10 -25
v -25 0 25
v 25 0 25
v -25 0 -25
v 25 0 -25
v -24 3 24
v -20 3 24
v -19 3 24
v -15 3 24
v -14 3 24
v -10 3 24
v -9 3 24
v 9 3 24
v 10 3 24
v 14 3 24
v 15 3 24
v 19 3 24
v 20 3 24
v 24 3 24
v -24 3 23
v -20 3 23
v -19 3 23
v -15 3 23
v -14 3 23
v -10 3 23
v -9 3 23
v 9 3 23
v 10 3 23
v 14 3 23
v 15 3 23
v 19 3 23
v 20 3 23
v 24 3 23
v -23 6 24
v -21 6 24
v -18 6 24
v -16 6 24
v -13 6 24
v -11 6 24
v 11 6 24
v 13 6 24
v 16 6 24
v 18 6 24
v 21 6 24
v 23 6 24
v -23 6 23
v -21 6 23
v -18 6 23
v -16 6 23
v -13 6 23
v -11 6 23
v 11 6 23
v 13 6 23
v 16 6 23
v 18 6 23
v 21 6 23
v 23 6 23
v -24 8 25
v 24 8 25
v -25 8 24
v -24 8 24
v 24 8 24
v 25 8 24
v -25 8 23
v 25 8 23
v -25 9 25
v -24 9 25
v 24 9 25
v 25 9 25
v -25 9 24
v -24 9 24
v 24 9 24
v 25 9 24
v -25 1 25
v -24 1 25
v 24 1 25
v 25 1 25
v -25 1 24
v -24 1 24
v 24 1 24
v 25 1 24
v -24 2 25
v 24 2 25
v -25 2 24
v -24 2 24
v 24 2 24
v 25 2 24
v -25 2 23
v 25 2 23
v -23 4 24
v -21 4 24
v -18 4 24
v -16 4 24
v -13 4 24
v -11 4 24
v 11 4 24
v 13 4 24
v 16 4 24
v 18 4 24
v 21 4 24
v 23 4 24
v -23 4 23
v -21 4 23
v -18 4 23
v -16 4 23
v -13 4 23
v -11 4 23
v 11 4 23
v 13 4 23
v 16 4 23
v 18 4 23
v 21 4 23
v 23 4 23
v -24 7 24
v -20 7 24
v -19 7 24
v -15 7 24
v -14 7 24
v -10 7 24
v -9 7 24
v 9 7 24
v 10 7 24
v 14 7 24
v 15 7 24
v 19 7 24
v 20 7 24
v 24 7 24
v -24 7 23
v -20 7 23
v -19 7 23
v -15 7 23
v -14 7 23
v -10 7 23
v -9 7 23
v 9 7 23
v 10 7 23
v 14 7 23
v 15 7 23
v 19 7 23
v 20 7 23
v 24 7 23
v -25 10 25
v 25 10 25
v -25 10 -25
v 25 10 -25

# faces
f 3/1/1 2/1/1 1/1/1
f 4/1/1 2/1/1 3/1/1
f 5/1/1 2/1/1 4/1/1
f 6/1/1 2/1/1 5/1/1
f 7/1/1 2/1/1 6/1/1
f 9/2/1 7/2/1 6/2/1
f 10/1/1 2/1/1 7/1/1
f 10/2/1 7/2/1 9/2/1
f 12/1/1 9/1/1 8/1/1
f 12/1/1 10/1/1 9/1/1
f 13/1/1 12/1/1 11/1/1
f 14/1/1 2/1/1 10/1/1
f 14/1/1 12/1/1 13/1/1
f 14/1/1 10/1/1 12/1/1
f 17/1/1 16/1/1 15/1/1
f 18/1/1 16/1/1 17/1/1
f 21/1/1 20/1/1 19/1/1
f 22/1/1 20/1/1 21/1/1
f 25/1/1 24/1/1 23/1/1
f 26/1/1 24/1/1 25/1/1
f 29/1/1 28/1/1 27/1/1
f 30/1/1 28/1/1 29/1/1
f 33/1/1 32/1/1 31/1/1
f 34/1/1 32/1/1 33/1/1
f 37/1/1 36/1/1 35/1/1
f 38/1/1 36/1/1 37/1/1
f 41/1/1 40/1/1 39/1/1
f 42/1/1 40/1/1 41/1/1
f 45/1/1 44/1/1 43/1/1
f 46/1/1 44/1/1 45/1/1
f 49/1/1 48/1/1 47/1/1
f 50/1/1 48/1/1 49/1/1
f 53/1/1 52/1/1 51/1/1
f 54/1/1 52/1/1 53/1/1
f 57/1/1 56/1/1 55/1/1
f 58/1/1 56/1/1 57/1/1
f 61/1/1 60/1/1 59/1/1
f 62/1/1 60/1/1 61/1/1
f 65/1/1 64/1/1 63/1/1
f 66/1/1 64/1/1 65/1/1
f 69/1/1 68/1/1 67/1/1
f 70/1/1 68/1/1 69/1/1
f 73/1/1 72/1/1 71/1/1
f 74/1/1 72/1/1 73/1/1
f 75/1/2 76/1/2 77/1/2
f 77/1/2 76/1/2 78/1/2
f 79/1/2 80/1/2 81/1/2
f 81/1/2 80/1/2 82/1/2
f 83/1/2 84/1/2 85/1/2
f 85/1/2 84/1/2 86/1/2
f 87/1/2 88/1/2 89/1/2
f 89/1/2 88/1/2 90/1/2
f 91/1/2 92/1/2 93/1/2
f 93/1/2 92/1/2 94/1/2
f 95/1/2 96/1/2 97/1/2
f 97/1/2 96/1/2 98/1/2
f 99/1/2 100/1/2 101/1/2
f 101/1/2 100/1/2 102/1/2
f 103/1/2 104/1/2 105/1/2
f 105/1/2 104/1/2 106/1/2
f 107/1/2 108/1/2 109/1/2
f 109/1/2 108/1/2 110/1/2
f 111/1/2 112/1/2 113/1/2
f 113/1/2 112/1/2 114/1/2
f 115/1/2 116/1/2 117/1/2
f 117/1/2 116/1/2 118/1/2
f 119/1/2 120/1/2 121/1/2
f 121/1/2 120/1/2 122/1/2
f 123/1/2 124/1/2 125/1/2
f 125/1/2 124/1/2 126/1/2
f 127/1/2 128/1/2 129/1/2
f 129/1/2 128/1/2 130/1/2
f 131/1/2 132/1/2 133/1/2
f 133/1/2 132/1/2 134/1/2
f 135/1/2 136/1/2 137/1/2
f 137/1/2 136/1/2 138/1/2
f 138/1/2 136/1/2 139/1/2
f 139/1/2 136/1/2 140/1/2
f 140/1/2 136/1/2 141/1/2
f 140/2/2 141/2/2 143/2/2
f 141/1/2 136/1/2 144/1/2
f 143/2/2 141/2/2 144/2/2
f 142/1/2 143/1/2 146/1/2
f 143/1/2 144/1/2 146/1/2
f 145/1/2 146/1/2 147/1/2
f 144/1/2 136/1/2 148/1/2
f 147/1/2 146/1/2 148/1/2
f 146/1/2 144/1/2 148/1/2
f 153/1/3 150/1/3 149/1/3
f 156/1/3 152/1/3 151/1/3
f 157/1/3 154/1/3 153/1/3
f 157/1/3 153/1/3 149/1/3
f 158/1/3 154/1/3 157/1/3
f 159/1/3 156/1/3 155/1/3
f 160/1/3 152/1/3 156/1/3
f 160/1/3 156/1/3 159/1/3
f 161/1/3 157/1/3 149/1/3
f 162/1/3 157/1/3 161/1/3
f 163/1/3 152/1/3 160/1/3
f 164/1/3 152/1/3 163/1/3
f 169/1/3 166/1/3 165/1/3
f 170/1/3 166/1/3 169/1/3
f 173/1/3 168/1/3 167/1/3
f 174/1/3 168/1/3 173/1/3
f 175/1/3 172/1/3 171/1/3
f 176/1/3 172/1/3 175/1/3
f 177/1/3 175/1/3 171/1/3
f 178/1/3 172/1/3 176/1/3
f 179/1/3 177/1/3 171/1/3
f 179/1/3 178/1/3 177/1/3
f 180/1/3 172/1/3 178/1/3
f 180/1/3 178/1/3 179/1/3
f 183/1/3 182/1/3 181/1/3
f 184/1/3 182/1/3 183/1/3
f 185/1/3 183/1/3 181/1/3
f 186/1/3 182/1/3 184/1/3
f 187/1/3 185/1/3 181/1/3
f 187/1/3 186/1/3 185/1/3
f 188/1/3 182/1/3 186/1/3
f 188/1/3 186/1/3 187/1/3
f 191/1/3 190/1/3 189/1/3
f 192/1/3 190/1/3 191/1/3
f 193/1/3 191/1/3 189/1/3
f 194/1/3 190/1/3 192/1/3
f 195/1/3 193/1/3 189/1/3
f 195/1/3 194/1/3 193/1/3
f 196/1/3 190/1/3 194/1/3
f 196/1/3 194/1/3 195/1/3
f 199/1/3 198/1/3 197/1/3
f 200/1/3 198/1/3 199/1/3
f 203/1/3 202/1/3 201/1/3
f 204/1/3 202/1/3 203/1/3
f 205/1/3 203/1/3 201/1/3
f 206/1/3 202/1/3 204/1/3
f 207/1/3 205/1/3 201/1/3
f 207/1/3 206/1/3 205/1/3
f 208/1/3 202/1/3 206/1/3
f 208/1/3 206/1/3 207/1/3
f 211/1/3 210/1/3 209/1/3
f 212/1/3 210/1/3 211/1/3
f 213/1/3 211/1/3 209/1/3
f 214/1/3 210/1/3 212/1/3
f 215/1/3 213/1/3 209/1/3
f 215/1/3 214/1/3 213/1/3
f 216/1/3 210/1/3 214/1/3
f 216/1/3 214/1/3 215/1/3
f 219/1/3 218/1/3 217/1/3
f 220/1/3 218/1/3 219/1/3
f 221/1/3 219/1/3 217/1/3
f 222/1/3 218/1/3 220/1/3
f 225/1/3 221/1/3 217/1/3
f 225/1/3 222/1/3 221/1/3
f 226/1/3 218/1/3 222/1/3
f 226/1/3 222/1/3 225/1/3
f 229/1/3 224/1/3 223/1/3
f 230/1/3 224/1/3 229/1/3
f 231/1/3 228/1/3 227/1/3
f 232/1/3 228/1/3 231/1/3
f 235/2/3 234/2/3 233/2/3
f 236/2/3 234/2/3 235/2/3
f 239/2/3 238/2/3 237/2/3
f 240/2/3 238/2/3 239/2/3
f 241/2/3 235/2/3 233/2/3
f 242/2/3 234/2/3 236/2/3
f 243/2/3 241/2/3 233/2/3
f 243/2/3 242/2/3 241/2/3
f 244/2/3 234/2/3 242/2/3
f 244/2/3 242/2/3 243/2/3
f 247/2/3 246/2/3 245/2/3
f 248/2/3 246/2/3 247/2/3
f 249/2/3 243/2/3 233/2/3
f 250/2/3 234/2/3 244/2/3
f 251/2/3 249/2/3 233/2/3
f 251/2/3 250/2/3 249/2/3
f 252/2/3 234/2/3 250/2/3
f 252/2/3 250/2/3 251/2/3
f 255/2/3 254/2/3 253/2/3
f 256/2/3 254/2/3 255/2/3
f 257/2/3 251/2/3 233/2/3
f 258/2/3 234/2/3 252/2/3
f 259/2/3 257/2/3 233/2/3
f 259/2/3 258/2/3 257/2/3
f 260/2/3 234/2/3 258/2/3
f 260/2/3 258/2/3 259/2/3
f 261/2/3 259/2/3 233/2/3
f 262/2/3 234/2/3 260/2/3
f 263/2/3 261/2/3 233/2/3
f 263/2/3 262/2/3 261/2/3
f 264/2/3 234/2/3 262/2/3
f 264/2/3 262/2/3 263/2/3
f 267/2/3 266/2/3 265/2/3
f 268/2/3 266/2/3 267/2/3
f 269/2/3 263/2/3 233/2/3
f 270/2/3 234/2/3 264/2/3
f 271/2/3 269/2/3 233/2/3
f 271/2/3 270/2/3 269/2/3
f 272/2/3 234/2/3 270/2/3
f 272/2/3 270/2/3 271/2/3
f 275/2/3 274/2/3 273/2/3
f 276/2/3 274/2/3 275/2/3
f 277/2/3 271/2/3 233/2/3
f 278/2/3 234/2/3 272/2/3
f 279/2/3 277/2/3 233/2/3
f 279/2/3 278/2/3 277/2/3
f 280/2/3 234/2/3 278/2/3
f 280/2/3 278/2/3 279/2/3
f 283/2/3 282/2/3 281/2/3
f 284/2/3 282/2/3 283/2/3
f 285/2/3 279/2/3 233/2/3
f 286/2/3 234/2/3 280/2/3
f 287/2/3 285/2/3 233/2/3
f 287/2/3 286/2/3 285/2/3
f 288/2/3 234/2/3 286/2/3
f 288/2/3 286/2/3 287/2/3
f 289/1/4 290/1/4 291/1/4
f 291/1/4 290/1/4 292/1/4
f 295/1/5 294/1/5 293/1/5
f 296/1/5 294/1/5 295/1/5
f 311/1/5 298/1/5 297/1/5
f 312/1/5 298/1/5 311/1/5
f 313/1/5 300/1/5 299/1/5
f 314/1/5 300/1/5 313/1/5
f 315/1/5 302/1/5 301/1/5
f 316/1/5 302/1/5 315/1/5
f 317/1/5 304/1/5 303/1/5
f 318/1/5 304/1/5 317/1/5
f 319/1/5 306/1/5 305/1/5
f 320/1/5 306/1/5 319/1/5
f 321/1/5 308/1/5 307/1/5
f 322/1/5 308/1/5 321/1/5
f 323/1/5 310/1/5 309/1/5
f 324/1/5 310/1/5 323/1/5
f 337/1/5 326/1/5 325/1/5
f 338/1/5 326/1/5 337/1/5
f 339/1/5 328/1/5 327/1/5
f 340/1/5 328/1/5 339/1/5
f 341/1/5 330/1/5 329/1/5
f 342/1/5 330/1/5 341/1/5
f 343/1/5 332/1/5 331/1/5
f 344/1/5 332/1/5 343/1/5
f 345/1/5 334/1/5 333/1/5
f 346/1/5 334/1/5 345/1/5
f 347/1/5 336/1/5 335/1/5
f 348/1/5 336/1/5 347/1/5
f 352/1/5 350/1/5 349/1/5
f 353/1/5 350/1/5 352/1/5
f 355/1/5 352/1/5 351/1/5
f 355/1/5 354/1/5 353/1/5
f 355/1/5 353/1/5 352/1/5
f 356/1/5 354/1/5 355/1/5
f 361/1/5 358/1/5 357/1/5
f 362/1/5 358/1/5 361/1/5
f 363/1/5 360/1/5 359/1/5
f 364/1/5 360/1/5 363/1/5
f 365/1/6 366/1/6 369/1/6
f 369/1/6 366/1/6 370/1/6
f 367/1/6 368/1/6 371/1/6
f 371/1/6 368/1/6 372/1/6
f 373/1/6 374/1/6 376/1/6
f 376/1/6 374/1/6 377/1/6
f 375/1/6 376/1/6 379/1/6
f 377/1/6 378/1/6 379/1/6
f 376/1/6 377/1/6 379/1/6
f 379/1/6 378/1/6 380/1/6
f 381/1/6 382/1/6 393/1/6
f 393/1/6 382/1/6 394/1/6
f 383/1/6 384/1/6 395/1/6
f 395/1/6 384/1/6 396/1/6
f 385/1/6 386/1/6 397/1/6
f 397/1/6 386/1/6 398/1/6
f 387/1/6 388/1/6 399/1/6
f 399/1/6 388/1/6 400/1/6
f 389/1/6 390/1/6 401/1/6
f 401/1/6 390/1/6 402/1/6
f 391/1/6 392/1/6 403/1/6
f 403/1/6 392/1/6 404/1/6
f 405/1/6 406/1/6 419/1/6
f 419/1/6 406/1/6 420/1/6
f 407/1/6 408/1/6 421/1/6
f 421/1/6 408/1/6 422/1/6
f 409/1/6 410/1/6 423/1/6
f 423/1/6 410/1/6 424/1/6
f 411/1/6 412/1/6 425/1/6
f 425/1/6 412/1/6 426/1/6
f 413/1/6 414/1/6 427/1/6
f 427/1/6 414/1/6 428/1/6
f 415/1/6 416/1/6 429/1/6
f 429/1/6 416/1/6 430/1/6
f 417/1/6 418/1/6 431/1/6
f 431/1/6 418/1/6 432/1/6
f 433/1/6 434/1/6 435/1/6
f 435/1/6 434/1/6 436/1/6
