# MagicaVoxel @ Ephtracy

# group
g prob-21

# material
mtllib prob-21.mtl
usemtl palette

# normals
vn -1 0 0
vn 1 0 0
vn 0 0 1
vn 0 0 -1
vn 0 -1 0
vn 0 1 0

# texcoords
vt 0.900391 0.5
vt 0.908203 0.5
vt 0.990234 0.5

# verts
v -25 0 2.5
v -25 0 -0.5
v -25 0 -1.5
v -25 2 -0.5
v -25 2 -1.5
v -25 2 -2.5
v -25 5 -0.5
v -25 5 -1.5
v -25 5 -2.5
v -25 7 -0.5
v -25 7 -1.5
v -25 7 -2.5
v -25 10 -0.5
v -25 10 -1.5
v -25 10 -2.5
v -25 12 -0.5
v -25 12 -1.5
v -25 12 -2.5
v -25 15 -0.5
v -25 15 -1.5
v -25 15 -2.5
v -25 17 -0.5
v -25 17 -1.5
v -25 17 -2.5
v -25 20 -0.5
v -25 20 -1.5
v -25 20 -2.5
v -25 22 -0.5
v -25 22 -1.5
v -25 22 -2.5
v -25 25 2.5
v -25 25 -0.5
v -25 25 -2.5
v 25 0 2.5
v 25 0 -0.5
v 25 0 -1.5
v 25 2 -0.5
v 25 2 -1.5
v 25 2 -2.5
v 25 5 -0.5
v 25 5 -1.5
v 25 5 -2.5
v 25 7 -0.5
v 25 7 -1.5
v 25 7 -2.5
v 25 10 -0.5
v 25 10 -1.5
v 25 10 -2.5
v 25 12 -0.5
v 25 12 -1.5
v 25 12 -2.5
v 25 15 -0.5
v 25 15 -1.5
v 25 15 -2.5
v 25 17 -0.5
v 25 17 -1.5
v 25 17 -2.5
v 25 20 -0.5
v 25 20 -1.5
v 25 20 -2.5
v 25 22 -0.5
v 25 22 -1.5
v 25 22 -2.5
v 25 25 2.5
v 25 25 -0.5
v 25 25 -2.5
v -25 0 2.5
v -25 25 2.5
v 25 0 2.5
v 25 25 2.5
v -25 0 -1.5
v -25 2 -1.5
v -25 5 -1.5
v -25 7 -1.5
v -25 10 -1.5
v -25 12 -1.5
v -25 15 -1.5
v -25 17 -1.5
v -25 20 -1.5
v -25 22 -1.5
v 25 0 -1.5
v 25 2 -1.5
v 25 5 -1.5
v 25 7 -1.5
v 25 10 -1.5
v 25 12 -1.5
v 25 15 -1.5
v 25 17 -1.5
v 25 20 -1.5
v 25 22 -1.5
v -25 2 -2.5
v -25 5 -2.5
v -25 7 -2.5
v -25 10 -2.5
v -25 12 -2.5
v -25 15 -2.5
v -25 17 -2.5
v -25 20 -2.5
v -25 22 -2.5
v -25 25 -2.5
v 25 2 -2.5
v 25 5 -2.5
v 25 7 -2.5
v 25 10 -2.5
v 25 12 -2.5
v 25 15 -2.5
v 25 17 -2.5
v 25 20 -2.5
v 25 22 -2.5
v 25 25 -2.5
v -25 0 2.5
v 25 0 2.5
v -25 0 -0.5
v 25 0 -0.5
v -25 0 -1.5
v 25 0 -1.5
v -25 2 -1.5
v 25 2 -1.5
v -25 2 -2.5
v 25 2 -2.5
v -25 7 -1.5
v 25 7 -1.5
v -25 7 -2.5
v 25 7 -2.5
v -25 12 -1.5
v 25 12 -1.5
v -25 12 -2.5
v 25 12 -2.5
v -25 17 -1.5
v 25 17 -1.5
v -25 17 -2.5
v 25 17 -2.5
v -25 22 -1.5
v 25 22 -1.5
v -25 22 -2.5
v 25 22 -2.5
v -25 5 -1.5
v 25 5 -1.5
v -25 5 -2.5
v 25 5 -2.5
v -25 10 -1.5
v 25 10 -1.5
v -25 10 -2.5
v 25 10 -2.5
v -25 15 -1.5
v 25 15 -1.5
v -25 15 -2.5
v 25 15 -2.5
v -25 20 -1.5
v 25 20 -1.5
v -25 20 -2.5
v 25 20 -2.5
v -25 25 2.5
v 25 25 2.5
v -25 25 -0.5
v 25 25 -0.5
v -25 25 -2.5
v 25 25 -2.5

# faces
f 4/3/1 2/3/1 1/3/1
f 4/1/1 3/1/1 2/1/1
f 5/1/1 3/1/1 4/1/1
f 7/3/1 4/3/1 1/3/1
f 7/2/1 6/2/1 5/2/1
f 7/2/1 5/2/1 4/2/1
f 8/2/1 6/2/1 7/2/1
f 9/2/1 6/2/1 8/2/1
f 10/3/1 7/3/1 1/3/1
f 10/1/1 8/1/1 7/1/1
f 11/1/1 8/1/1 10/1/1
f 13/3/1 10/3/1 1/3/1
f 13/2/1 12/2/1 11/2/1
f 13/2/1 11/2/1 10/2/1
f 14/2/1 12/2/1 13/2/1
f 15/2/1 12/2/1 14/2/1
f 16/3/1 13/3/1 1/3/1
f 16/1/1 14/1/1 13/1/1
f 17/1/1 14/1/1 16/1/1
f 19/3/1 16/3/1 1/3/1
f 19/2/1 18/2/1 17/2/1
f 19/2/1 17/2/1 16/2/1
f 20/2/1 18/2/1 19/2/1
f 21/2/1 18/2/1 20/2/1
f 22/3/1 19/3/1 1/3/1
f 22/1/1 20/1/1 19/1/1
f 23/1/1 20/1/1 22/1/1
f 25/3/1 22/3/1 1/3/1
f 25/2/1 24/2/1 23/2/1
f 25/2/1 23/2/1 22/2/1
f 26/2/1 24/2/1 25/2/1
f 27/2/1 24/2/1 26/2/1
f 28/3/1 25/3/1 1/3/1
f 28/1/1 26/1/1 25/1/1
f 29/1/1 26/1/1 28/1/1
f 31/3/1 28/3/1 1/3/1
f 32/2/1 30/2/1 29/2/1
f 32/3/1 28/3/1 31/3/1
f 32/2/1 29/2/1 28/2/1
f 33/2/1 30/2/1 32/2/1
f 34/3/2 35/3/2 37/3/2
f 35/1/2 36/1/2 37/1/2
f 37/1/2 36/1/2 38/1/2
f 34/3/2 37/3/2 40/3/2
f 38/2/2 39/2/2 40/2/2
f 37/2/2 38/2/2 40/2/2
f 40/2/2 39/2/2 41/2/2
f 41/2/2 39/2/2 42/2/2
f 34/3/2 40/3/2 43/3/2
f 40/1/2 41/1/2 43/1/2
f 43/1/2 41/1/2 44/1/2
f 34/3/2 43/3/2 46/3/2
f 44/2/2 45/2/2 46/2/2
f 43/2/2 44/2/2 46/2/2
f 46/2/2 45/2/2 47/2/2
f 47/2/2 45/2/2 48/2/2
f 34/3/2 46/3/2 49/3/2
f 46/1/2 47/1/2 49/1/2
f 49/1/2 47/1/2 50/1/2
f 34/3/2 49/3/2 52/3/2
f 50/2/2 51/2/2 52/2/2
f 49/2/2 50/2/2 52/2/2
f 52/2/2 51/2/2 53/2/2
f 53/2/2 51/2/2 54/2/2
f 34/3/2 52/3/2 55/3/2
f 52/1/2 53/1/2 55/1/2
f 55/1/2 53/1/2 56/1/2
f 34/3/2 55/3/2 58/3/2
f 56/2/2 57/2/2 58/2/2
f 55/2/2 56/2/2 58/2/2
f 58/2/2 57/2/2 59/2/2
f 59/2/2 57/2/2 60/2/2
f 34/3/2 58/3/2 61/3/2
f 58/1/2 59/1/2 61/1/2
f 61/1/2 59/1/2 62/1/2
f 34/3/2 61/3/2 64/3/2
f 62/2/2 63/2/2 65/2/2
f 64/3/2 61/3/2 65/3/2
f 61/2/2 62/2/2 65/2/2
f 65/2/2 63/2/2 66/2/2
f 69/3/3 68/3/3 67/3/3
f 70/3/3 68/3/3 69/3/3
f 71/1/4 72/1/4 81/1/4
f 81/1/4 72/1/4 82/1/4
f 73/1/4 74/1/4 83/1/4
f 83/1/4 74/1/4 84/1/4
f 75/1/4 76/1/4 85/1/4
f 85/1/4 76/1/4 86/1/4
f 77/1/4 78/1/4 87/1/4
f 87/1/4 78/1/4 88/1/4
f 79/1/4 80/1/4 89/1/4
f 89/1/4 80/1/4 90/1/4
f 91/2/4 92/2/4 101/2/4
f 101/2/4 92/2/4 102/2/4
f 93/2/4 94/2/4 103/2/4
f 103/2/4 94/2/4 104/2/4
f 95/2/4 96/2/4 105/2/4
f 105/2/4 96/2/4 106/2/4
f 97/2/4 98/2/4 107/2/4
f 107/2/4 98/2/4 108/2/4
f 99/2/4 100/2/4 109/2/4
f 109/2/4 100/2/4 110/2/4
f 113/3/5 112/3/5 111/3/5
f 114/3/5 112/3/5 113/3/5
f 115/1/5 114/1/5 113/1/5
f 116/1/5 114/1/5 115/1/5
f 119/2/5 118/2/5 117/2/5
f 120/2/5 118/2/5 119/2/5
f 123/2/5 122/2/5 121/2/5
f 124/2/5 122/2/5 123/2/5
f 127/2/5 126/2/5 125/2/5
f 128/2/5 126/2/5 127/2/5
f 131/2/5 130/2/5 129/2/5
f 132/2/5 130/2/5 131/2/5
f 135/2/5 134/2/5 133/2/5
f 136/2/5 134/2/5 135/2/5
f 137/2/6 138/2/6 139/2/6
f 139/2/6 138/2/6 140/2/6
f 141/2/6 142/2/6 143/2/6
f 143/2/6 142/2/6 144/2/6
f 145/2/6 146/2/6 147/2/6
f 147/2/6 146/2/6 148/2/6
f 149/2/6 150/2/6 151/2/6
f 151/2/6 150/2/6 152/2/6
f 153/3/6 154/3/6 155/3/6
f 155/3/6 154/3/6 156/3/6
f 155/2/6 156/2/6 157/2/6
f 157/2/6 156/2/6 158/2/6
