# MagicaVoxel @ Ephtracy

# group
g prob-12

# material
mtllib prob-12.mtl
usemtl palette

# normals
vn -1 0 0
vn 1 0 0
vn 0 0 1
vn 0 0 -1
vn 0 -1 0
vn 0 1 0

# texcoords
vt 0.146484 0.5
vt 0.173828 0.5
vt 0.404297 0.5
vt 0.912109 0.5
vt 0.919922 0.5
vt 0.931641 0.5
vt 0.935547 0.5
vt 0.966797 0.5
vt 0.982422 0.5
vt 0.990234 0.5

# verts
v -25 0 10
v -25 0 -10
v -25 5 10
v -25 5 7
v -25 5 -10
v -25 59 10
v -25 59 7
v -25 70 10
v -25 70 -10
v -23 10 5
v -23 10 4
v -23 12 5
v -23 12 4
v -23 57 5
v -23 57 4
v -12 0 10
v -12 0 9
v -12 4 9
v -12 4 5
v -12 5 10
v -12 5 5
v -12 10 5
v -12 10 4
v -12 12 5
v -12 12 4
v -12 50 5
v -12 50 4
v -12 51 5
v -12 51 4
v -12 57 5
v -12 57 4
v 1 0 10
v 1 0 9
v 1 4 9
v 1 4 5
v 1 5 10
v 1 5 5
v 1 10 5
v 1 10 4
v 1 12 5
v 1 12 4
v 1 27 5
v 1 27 4
v 1 28 5
v 1 28 4
v 1 50 5
v 1 50 4
v 1 51 5
v 1 51 4
v 1 57 5
v 1 57 4
v 13 0 10
v 13 0 9
v 13 4 9
v 13 4 5
v 13 5 10
v 13 5 5
v 13 10 5
v 13 10 4
v 13 12 5
v 13 12 4
v 13 43 5
v 13 43 4
v 13 44 5
v 13 44 4
v 13 57 5
v 13 57 4
v 24 5 7
v 24 5 5
v 24 5 3
v 24 10 4
v 24 10 3
v 24 57 6
v 24 57 4
v 24 59 7
v 24 59 6
v -24 5 7
v -24 5 5
v -24 5 3
v -24 10 4
v -24 10 3
v -24 57 6
v -24 57 4
v -24 59 7
v -24 59 6
v -13 0 10
v -13 0 9
v -13 4 9
v -13 4 5
v -13 5 10
v -13 5 5
v -13 10 5
v -13 10 4
v -13 12 5
v -13 12 4
v -13 57 5
v -13 57 4
v -1 0 10
v -1 0 9
v -1 4 9
v -1 4 5
v -1 5 10
v -1 5 5
v -1 10 5
v -1 10 4
v -1 12 5
v -1 12 4
v -1 50 5
v -1 50 4
v -1 51 5
v -1 51 4
v -1 57 5
v -1 57 4
v 12 0 10
v 12 0 9
v 12 4 9
v 12 4 5
v 12 5 10
v 12 5 5
v 12 10 5
v 12 10 4
v 12 12 5
v 12 12 4
v 12 27 5
v 12 27 4
v 12 28 5
v 12 28 4
v 12 50 5
v 12 50 4
v 12 51 5
v 12 51 4
v 12 57 5
v 12 57 4
v 23 10 5
v 23 10 4
v 23 12 5
v 23 12 4
v 23 43 5
v 23 43 4
v 23 44 5
v 23 44 4
v 23 57 5
v 23 57 4
v 25 0 10
v 25 0 -10
v 25 5 10
v 25 5 7
v 25 5 -10
v 25 59 10
v 25 59 7
v 25 70 10
v 25 70 -10
v -25 0 10
v -25 5 10
v -25 59 10
v -25 70 10
v -13 0 10
v -13 5 10
v -13 60 10
v -13 69 10
v -12 0 10
v -12 5 10
v -7 60 10
v -7 69 10
v -6 60 10
v -6 69 10
v -3 61 10
v -3 68 10
v -1 0 10
v -1 5 10
v -1 60 10
v -1 61 10
v -1 68 10
v -1 69 10
v 1 0 10
v 1 5 10
v 2 60 10
v 2 61 10
v 2 68 10
v 2 69 10
v 5 61 10
v 5 68 10
v 8 60 10
v 8 69 10
v 9 60 10
v 9 69 10
v 12 0 10
v 12 5 10
v 13 0 10
v 13 5 10
v 15 60 10
v 15 69 10
v 25 0 10
v 25 5 10
v 25 59 10
v 25 70 10
v -13 0 9
v -13 4 9
v -12 0 9
v -12 4 9
v -1 0 9
v -1 4 9
v 1 0 9
v 1 4 9
v 12 0 9
v 12 4 9
v 13 0 9
v 13 4 9
v -25 5 7
v -25 59 7
v -24 5 7
v -24 59 7
v 24 5 7
v 24 59 7
v 25 5 7
v 25 59 7
v -24 57 6
v -24 59 6
v 24 57 6
v 24 59 6
v -23 10 5
v -23 12 5
v -23 57 5
v -22 54 5
v -22 56 5
v -21 54 5
v -21 56 5
v -20 41 5
v -20 44 5
v -20 53 5
v -16 41 5
v -16 44 5
v -16 53 5
v -13 4 5
v -13 5 5
v -13 10 5
v -13 12 5
v -13 57 5
v -12 4 5
v -12 5 5
v -12 10 5
v -12 12 5
v -12 50 5
v -12 51 5
v -12 57 5
v -11 54 5
v -11 56 5
v -10 54 5
v -10 56 5
v -9 39 5
v -9 41 5
v -9 42 5
v -9 49 5
v -4 39 5
v -4 41 5
v -4 42 5
v -4 49 5
v -1 4 5
v -1 5 5
v -1 10 5
v -1 12 5
v -1 50 5
v -1 51 5
v -1 57 5
v 1 4 5
v 1 5 5
v 1 10 5
v 1 12 5
v 1 27 5
v 1 28 5
v 1 50 5
v 1 51 5
v 1 57 5
v 2 54 5
v 2 56 5
v 3 54 5
v 3 56 5
v 4 36 5
v 4 39 5
v 4 49 5
v 9 36 5
v 9 39 5
v 9 49 5
v 12 4 5
v 12 5 5
v 12 10 5
v 12 12 5
v 12 27 5
v 12 28 5
v 12 50 5
v 12 51 5
v 12 57 5
v 13 4 5
v 13 5 5
v 13 10 5
v 13 12 5
v 13 43 5
v 13 44 5
v 13 57 5
v 14 54 5
v 14 56 5
v 15 33 5
v 15 36 5
v 15 42 5
v 15 45 5
v 15 50 5
v 15 54 5
v 15 56 5
v 21 33 5
v 21 36 5
v 21 42 5
v 21 45 5
v 21 50 5
v 23 10 5
v 23 12 5
v 23 43 5
v 23 44 5
v 23 57 5
v -24 10 4
v -24 57 4
v -23 10 4
v -23 12 4
v -23 57 4
v -13 10 4
v -13 12 4
v -13 57 4
v -12 10 4
v -12 12 4
v -12 50 4
v -12 51 4
v -12 57 4
v -1 10 4
v -1 12 4
v -1 50 4
v -1 51 4
v -1 57 4
v 1 10 4
v 1 12 4
v 1 27 4
v 1 28 4
v 1 50 4
v 1 51 4
v 1 57 4
v 12 10 4
v 12 12 4
v 12 27 4
v 12 28 4
v 12 50 4
v 12 51 4
v 12 57 4
v 13 10 4
v 13 12 4
v 13 43 4
v 13 44 4
v 13 57 4
v 23 10 4
v 23 12 4
v 23 43 4
v 23 44 4
v 23 57 4
v 24 10 4
v 24 57 4
v -24 5 3
v -24 10 3
v -23 10 3
v -14 10 3
v -12 10 3
v -1 10 3
v 1 10 3
v 11 10 3
v 13 10 3
v 23 10 3
v 24 5 3
v 24 10 3
v -25 0 -10
v -25 5 -10
v -25 70 -10
v -24 5 -10
v -24 70 -10
v 24 5 -10
v 24 70 -10
v 25 0 -10
v 25 5 -10
v 25 70 -10
v -25 0 10
v -13 0 10
v -12 0 10
v -1 0 10
v 1 0 10
v 12 0 10
v 13 0 10
v 25 0 10
v -13 0 9
v -12 0 9
v -1 0 9
v 1 0 9
v 12 0 9
v 13 0 9
v -13 0 8
v -12 0 8
v -1 0 8
v 1 0 8
v 12 0 8
v 13 0 8
v -25 0 -10
v 25 0 -10
v -23 10 5
v -13 10 5
v -12 10 5
v -1 10 5
v 1 10 5
v 12 10 5
v 13 10 5
v 23 10 5
v -24 10 4
v -23 10 4
v -14 10 4
v -13 10 4
v -12 10 4
v -1 10 4
v 1 10 4
v 11 10 4
v 12 10 4
v 13 10 4
v 23 10 4
v 24 10 4
v -24 10 3
v -23 10 3
v -14 10 3
v -12 10 3
v -1 10 3
v 1 10 3
v 11 10 3
v 13 10 3
v 23 10 3
v 24 10 3
v -24 57 6
v 24 57 6
v -23 57 5
v -13 57 5
v -12 57 5
v -1 57 5
v 1 57 5
v 12 57 5
v 13 57 5
v 23 57 5
v -24 57 4
v -23 57 4
v -13 57 4
v -12 57 4
v -1 57 4
v 1 57 4
v 12 57 4
v 13 57 4
v 23 57 4
v 24 57 4
v -25 59 10
v 25 59 10
v -25 59 7
v -24 59 7
v 24 59 7
v 25 59 7
v -24 59 6
v 24 59 6
v -13 4 9
v -12 4 9
v -1 4 9
v 1 4 9
v 12 4 9
v 13 4 9
v -13 4 5
v -12 4 5
v -1 4 5
v 1 4 5
v 12 4 5
v 13 4 5
v -25 5 10
v -13 5 10
v -12 5 10
v -1 5 10
v 1 5 10
v 12 5 10
v 13 5 10
v 25 5 10
v -25 5 7
v -24 5 7
v 24 5 7
v 25 5 7
v -24 5 5
v -13 5 5
v -12 5 5
v -1 5 5
v 1 5 5
v 12 5 5
v 13 5 5
v 24 5 5
v -24 5 3
v 24 5 3
v -25 70 10
v 25 70 10
v -24 70 9
v 15 70 9
v 19 70 9
v 24 70 9
v 15 70 4
v 19 70 4
v -24 70 -9
v 24 70 -9
v -25 70 -10
v -24 70 -10
v 24 70 -10
v 25 70 -10

# faces
f 3/6/1 2/6/1 1/6/1
f 4/6/1 2/6/1 3/6/1
f 5/6/1 2/6/1 4/6/1
f 7/1/1 5/1/1 4/1/1
f 8/1/1 7/1/1 6/1/1
f 9/1/1 5/1/1 7/1/1
f 9/1/1 7/1/1 8/1/1
f 12/9/1 11/9/1 10/9/1
f 13/9/1 11/9/1 12/9/1
f 14/7/1 13/7/1 12/7/1
f 15/7/1 13/7/1 14/7/1
f 18/6/1 17/6/1 16/6/1
f 20/6/1 18/6/1 16/6/1
f 20/6/1 19/6/1 18/6/1
f 21/6/1 19/6/1 20/6/1
f 24/9/1 23/9/1 22/9/1
f 25/9/1 23/9/1 24/9/1
f 26/7/1 25/7/1 24/7/1
f 27/7/1 25/7/1 26/7/1
f 28/5/1 27/5/1 26/5/1
f 29/5/1 27/5/1 28/5/1
f 30/7/1 29/7/1 28/7/1
f 31/7/1 29/7/1 30/7/1
f 34/6/1 33/6/1 32/6/1
f 36/6/1 34/6/1 32/6/1
f 36/6/1 35/6/1 34/6/1
f 37/6/1 35/6/1 36/6/1
f 40/9/1 39/9/1 38/9/1
f 41/9/1 39/9/1 40/9/1
f 42/7/1 41/7/1 40/7/1
f 43/7/1 41/7/1 42/7/1
f 44/5/1 43/5/1 42/5/1
f 45/5/1 43/5/1 44/5/1
f 46/7/1 45/7/1 44/7/1
f 47/7/1 45/7/1 46/7/1
f 48/5/1 47/5/1 46/5/1
f 49/5/1 47/5/1 48/5/1
f 50/7/1 49/7/1 48/7/1
f 51/7/1 49/7/1 50/7/1
f 54/6/1 53/6/1 52/6/1
f 56/6/1 54/6/1 52/6/1
f 56/6/1 55/6/1 54/6/1
f 57/6/1 55/6/1 56/6/1
f 60/9/1 59/9/1 58/9/1
f 61/9/1 59/9/1 60/9/1
f 62/7/1 61/7/1 60/7/1
f 63/7/1 61/7/1 62/7/1
f 64/5/1 63/5/1 62/5/1
f 65/5/1 63/5/1 64/5/1
f 66/7/1 65/7/1 64/7/1
f 67/7/1 65/7/1 66/7/1
f 71/1/1 69/1/1 68/1/1
f 71/1/1 70/1/1 69/1/1
f 72/1/1 70/1/1 71/1/1
f 73/1/1 71/1/1 68/1/1
f 74/1/1 71/1/1 73/1/1
f 75/1/1 73/1/1 68/1/1
f 76/1/1 73/1/1 75/1/1
f 77/1/2 78/1/2 80/1/2
f 78/1/2 79/1/2 80/1/2
f 80/1/2 79/1/2 81/1/2
f 77/1/2 80/1/2 82/1/2
f 82/1/2 80/1/2 83/1/2
f 77/1/2 82/1/2 84/1/2
f 84/1/2 82/1/2 85/1/2
f 86/6/2 87/6/2 88/6/2
f 86/6/2 88/6/2 90/6/2
f 88/6/2 89/6/2 90/6/2
f 90/6/2 89/6/2 91/6/2
f 92/9/2 93/9/2 94/9/2
f 94/9/2 93/9/2 95/9/2
f 94/7/2 95/7/2 96/7/2
f 96/7/2 95/7/2 97/7/2
f 98/6/2 99/6/2 100/6/2
f 98/6/2 100/6/2 102/6/2
f 100/6/2 101/6/2 102/6/2
f 102/6/2 101/6/2 103/6/2
f 104/9/2 105/9/2 106/9/2
f 106/9/2 105/9/2 107/9/2
f 106/7/2 107/7/2 108/7/2
f 108/7/2 107/7/2 109/7/2
f 108/5/2 109/5/2 110/5/2
f 110/5/2 109/5/2 111/5/2
f 110/7/2 111/7/2 112/7/2
f 112/7/2 111/7/2 113/7/2
f 114/6/2 115/6/2 116/6/2
f 114/6/2 116/6/2 118/6/2
f 116/6/2 117/6/2 118/6/2
f 118/6/2 117/6/2 119/6/2
f 120/9/2 121/9/2 122/9/2
f 122/9/2 121/9/2 123/9/2
f 122/7/2 123/7/2 124/7/2
f 124/7/2 123/7/2 125/7/2
f 124/5/2 125/5/2 126/5/2
f 126/5/2 125/5/2 127/5/2
f 126/7/2 127/7/2 128/7/2
f 128/7/2 127/7/2 129/7/2
f 128/5/2 129/5/2 130/5/2
f 130/5/2 129/5/2 131/5/2
f 130/7/2 131/7/2 132/7/2
f 132/7/2 131/7/2 133/7/2
f 134/9/2 135/9/2 136/9/2
f 136/9/2 135/9/2 137/9/2
f 136/7/2 137/7/2 138/7/2
f 138/7/2 137/7/2 139/7/2
f 138/5/2 139/5/2 140/5/2
f 140/5/2 139/5/2 141/5/2
f 140/7/2 141/7/2 142/7/2
f 142/7/2 141/7/2 143/7/2
f 144/6/2 145/6/2 146/6/2
f 146/6/2 145/6/2 147/6/2
f 147/6/2 145/6/2 148/6/2
f 147/1/2 148/1/2 150/1/2
f 149/1/2 150/1/2 151/1/2
f 150/1/2 148/1/2 152/1/2
f 151/1/2 150/1/2 152/1/2
f 157/6/3 154/6/3 153/6/3
f 158/6/3 154/6/3 157/6/3
f 159/1/3 156/1/3 155/1/3
f 160/1/3 156/1/3 159/1/3
f 163/1/3 159/1/3 155/1/3
f 163/2/3 160/2/3 159/2/3
f 164/1/3 156/1/3 160/1/3
f 164/2/3 160/2/3 163/2/3
f 165/1/3 163/1/3 155/1/3
f 165/1/3 164/1/3 163/1/3
f 166/1/3 156/1/3 164/1/3
f 166/1/3 164/1/3 165/1/3
f 167/2/3 166/2/3 165/2/3
f 168/2/3 166/2/3 167/2/3
f 169/6/3 162/6/3 161/6/3
f 170/6/3 162/6/3 169/6/3
f 171/1/3 165/1/3 155/1/3
f 171/2/3 167/2/3 165/2/3
f 172/3/3 168/3/3 167/3/3
f 172/2/3 167/2/3 171/2/3
f 173/2/3 166/2/3 168/2/3
f 173/3/3 168/3/3 172/3/3
f 174/1/3 156/1/3 166/1/3
f 174/2/3 166/2/3 173/2/3
f 177/1/3 172/1/3 171/1/3
f 177/1/3 173/1/3 172/1/3
f 177/1/3 174/1/3 173/1/3
f 177/1/3 171/1/3 155/1/3
f 178/1/3 174/1/3 177/1/3
f 179/1/3 174/1/3 178/1/3
f 180/1/3 156/1/3 174/1/3
f 180/1/3 174/1/3 179/1/3
f 181/3/3 179/3/3 178/3/3
f 181/2/3 178/2/3 177/2/3
f 182/2/3 180/2/3 179/2/3
f 182/3/3 179/3/3 181/3/3
f 183/1/3 177/1/3 155/1/3
f 183/2/3 181/2/3 177/2/3
f 183/2/3 182/2/3 181/2/3
f 184/1/3 156/1/3 180/1/3
f 184/2/3 182/2/3 183/2/3
f 184/2/3 180/2/3 182/2/3
f 185/1/3 183/1/3 155/1/3
f 185/1/3 184/1/3 183/1/3
f 186/1/3 156/1/3 184/1/3
f 186/1/3 184/1/3 185/1/3
f 187/6/3 176/6/3 175/6/3
f 188/6/3 176/6/3 187/6/3
f 191/1/3 185/1/3 155/1/3
f 191/2/3 186/2/3 185/2/3
f 192/1/3 156/1/3 186/1/3
f 192/2/3 186/2/3 191/2/3
f 193/6/3 190/6/3 189/6/3
f 194/6/3 190/6/3 193/6/3
f 195/1/3 191/1/3 155/1/3
f 195/1/3 192/1/3 191/1/3
f 196/1/3 156/1/3 192/1/3
f 196/1/3 192/1/3 195/1/3
f 199/7/3 198/7/3 197/7/3
f 200/7/3 198/7/3 199/7/3
f 203/7/3 202/7/3 201/7/3
f 204/7/3 202/7/3 203/7/3
f 207/7/3 206/7/3 205/7/3
f 208/7/3 206/7/3 207/7/3
f 211/1/3 210/1/3 209/1/3
f 212/1/3 210/1/3 211/1/3
f 215/1/3 214/1/3 213/1/3
f 216/1/3 214/1/3 215/1/3
f 219/5/3 218/5/3 217/5/3
f 220/5/3 218/5/3 219/5/3
f 224/7/3 223/7/3 222/7/3
f 225/7/3 223/7/3 224/7/3
f 226/7/3 224/7/3 222/7/3
f 226/5/3 225/5/3 224/5/3
f 227/7/3 223/7/3 225/7/3
f 227/5/3 225/5/3 226/5/3
f 228/7/3 226/7/3 222/7/3
f 228/7/3 227/7/3 226/7/3
f 229/7/3 227/7/3 228/7/3
f 230/7/3 227/7/3 229/7/3
f 231/7/3 228/7/3 222/7/3
f 231/3/3 229/3/3 228/3/3
f 232/4/3 230/4/3 229/4/3
f 232/3/3 229/3/3 231/3/3
f 233/7/3 227/7/3 230/7/3
f 233/4/3 230/4/3 232/4/3
f 236/9/3 222/9/3 221/9/3
f 237/7/3 232/7/3 231/7/3
f 237/9/3 222/9/3 236/9/3
f 237/7/3 231/7/3 222/7/3
f 237/7/3 233/7/3 232/7/3
f 238/7/3 223/7/3 227/7/3
f 238/7/3 233/7/3 237/7/3
f 238/7/3 227/7/3 233/7/3
f 239/10/3 235/10/3 234/10/3
f 240/10/3 235/10/3 239/10/3
f 246/7/3 245/7/3 244/7/3
f 247/7/3 245/7/3 246/7/3
f 248/7/3 246/7/3 244/7/3
f 248/5/3 247/5/3 246/5/3
f 249/7/3 245/7/3 247/7/3
f 249/5/3 247/5/3 248/5/3
f 250/7/3 243/7/3 242/7/3
f 251/7/3 243/7/3 250/7/3
f 252/7/3 243/7/3 251/7/3
f 253/7/3 243/7/3 252/7/3
f 254/7/3 250/7/3 242/7/3
f 254/4/3 251/4/3 250/4/3
f 255/7/3 252/7/3 251/7/3
f 255/4/3 251/4/3 254/4/3
f 256/4/3 253/4/3 252/4/3
f 256/7/3 252/7/3 255/7/3
f 257/7/3 243/7/3 253/7/3
f 257/4/3 253/4/3 256/4/3
f 260/9/3 242/9/3 241/9/3
f 261/7/3 256/7/3 255/7/3
f 261/9/3 242/9/3 260/9/3
f 261/7/3 255/7/3 254/7/3
f 261/7/3 254/7/3 242/7/3
f 261/7/3 257/7/3 256/7/3
f 262/5/3 244/5/3 243/5/3
f 262/7/3 257/7/3 261/7/3
f 262/7/3 243/7/3 257/7/3
f 263/7/3 248/7/3 244/7/3
f 263/5/3 244/5/3 262/5/3
f 263/7/3 249/7/3 248/7/3
f 264/7/3 245/7/3 249/7/3
f 264/7/3 249/7/3 263/7/3
f 265/10/3 259/10/3 258/10/3
f 266/10/3 259/10/3 265/10/3
f 274/7/3 273/7/3 272/7/3
f 275/7/3 273/7/3 274/7/3
f 276/7/3 274/7/3 272/7/3
f 276/5/3 275/5/3 274/5/3
f 277/7/3 273/7/3 275/7/3
f 277/5/3 275/5/3 276/5/3
f 278/7/3 271/7/3 270/7/3
f 279/7/3 271/7/3 278/7/3
f 280/7/3 271/7/3 279/7/3
f 281/7/3 278/7/3 270/7/3
f 281/3/3 279/3/3 278/3/3
f 282/4/3 280/4/3 279/4/3
f 282/3/3 279/3/3 281/3/3
f 283/7/3 271/7/3 280/7/3
f 283/4/3 280/4/3 282/4/3
f 286/9/3 268/9/3 267/9/3
f 287/7/3 269/7/3 268/7/3
f 287/9/3 268/9/3 286/9/3
f 288/5/3 270/5/3 269/5/3
f 288/7/3 269/7/3 287/7/3
f 289/7/3 282/7/3 281/7/3
f 289/5/3 270/5/3 288/5/3
f 289/7/3 281/7/3 270/7/3
f 289/7/3 283/7/3 282/7/3
f 290/5/3 272/5/3 271/5/3
f 290/7/3 283/7/3 289/7/3
f 290/7/3 271/7/3 283/7/3
f 291/7/3 276/7/3 272/7/3
f 291/5/3 272/5/3 290/5/3
f 291/7/3 277/7/3 276/7/3
f 292/7/3 273/7/3 277/7/3
f 292/7/3 277/7/3 291/7/3
f 293/10/3 285/10/3 284/10/3
f 294/10/3 285/10/3 293/10/3
f 300/7/3 299/7/3 298/7/3
f 301/7/3 299/7/3 300/7/3
f 302/7/3 297/7/3 296/7/3
f 303/7/3 297/7/3 302/7/3
f 304/7/3 297/7/3 303/7/3
f 305/7/3 300/7/3 298/7/3
f 306/7/3 300/7/3 305/7/3
f 307/5/3 301/5/3 300/5/3
f 307/7/3 300/7/3 306/7/3
f 308/7/3 299/7/3 301/7/3
f 308/5/3 301/5/3 307/5/3
f 309/7/3 302/7/3 296/7/3
f 309/3/3 303/3/3 302/3/3
f 310/4/3 304/4/3 303/4/3
f 310/3/3 303/3/3 309/3/3
f 311/7/3 297/7/3 304/7/3
f 311/4/3 304/4/3 310/4/3
f 312/4/3 306/4/3 305/4/3
f 312/7/3 305/7/3 298/7/3
f 313/7/3 307/7/3 306/7/3
f 313/4/3 306/4/3 312/4/3
f 313/7/3 308/7/3 307/7/3
f 314/9/3 296/9/3 295/9/3
f 315/7/3 310/7/3 309/7/3
f 315/9/3 296/9/3 314/9/3
f 315/7/3 311/7/3 310/7/3
f 315/7/3 309/7/3 296/7/3
f 316/5/3 298/5/3 297/5/3
f 316/7/3 311/7/3 315/7/3
f 316/7/3 297/7/3 311/7/3
f 317/7/3 312/7/3 298/7/3
f 317/5/3 298/5/3 316/5/3
f 317/7/3 313/7/3 312/7/3
f 318/7/3 308/7/3 313/7/3
f 318/7/3 313/7/3 317/7/3
f 318/7/3 299/7/3 308/7/3
f 321/10/3 320/10/3 319/10/3
f 322/10/3 320/10/3 321/10/3
f 323/10/3 320/10/3 322/10/3
f 327/10/3 325/10/3 324/10/3
f 327/10/3 326/10/3 325/10/3
f 328/10/3 326/10/3 327/10/3
f 329/10/3 326/10/3 328/10/3
f 330/10/3 326/10/3 329/10/3
f 331/10/3 326/10/3 330/10/3
f 337/10/3 333/10/3 332/10/3
f 337/10/3 336/10/3 335/10/3
f 337/10/3 335/10/3 334/10/3
f 337/10/3 334/10/3 333/10/3
f 338/10/3 336/10/3 337/10/3
f 339/10/3 336/10/3 338/10/3
f 340/10/3 336/10/3 339/10/3
f 341/10/3 336/10/3 340/10/3
f 342/10/3 336/10/3 341/10/3
f 343/10/3 336/10/3 342/10/3
f 351/10/3 345/10/3 344/10/3
f 351/10/3 350/10/3 349/10/3
f 351/10/3 349/10/3 348/10/3
f 351/10/3 348/10/3 347/10/3
f 351/10/3 347/10/3 346/10/3
f 351/10/3 346/10/3 345/10/3
f 352/10/3 350/10/3 351/10/3
f 353/10/3 350/10/3 352/10/3
f 354/10/3 350/10/3 353/10/3
f 355/10/3 350/10/3 354/10/3
f 361/10/3 357/10/3 356/10/3
f 361/10/3 360/10/3 359/10/3
f 361/10/3 359/10/3 358/10/3
f 361/10/3 358/10/3 357/10/3
f 362/10/3 360/10/3 361/10/3
f 365/10/3 364/10/3 363/10/3
f 366/10/3 365/10/3 363/10/3
f 367/10/3 366/10/3 363/10/3
f 368/10/3 367/10/3 363/10/3
f 369/10/3 368/10/3 363/10/3
f 370/10/3 369/10/3 363/10/3
f 371/10/3 370/10/3 363/10/3
f 372/10/3 371/10/3 363/10/3
f 373/10/3 372/10/3 363/10/3
f 374/10/3 372/10/3 373/10/3
f 375/6/4 376/6/4 378/6/4
f 376/1/4 377/1/4 378/1/4
f 378/1/4 377/1/4 379/1/4
f 375/6/4 378/6/4 380/6/4
f 378/6/4 379/6/4 380/6/4
f 380/6/4 379/6/4 381/6/4
f 375/6/4 380/6/4 382/6/4
f 380/1/4 381/1/4 383/1/4
f 382/6/4 380/6/4 383/6/4
f 383/1/4 381/1/4 384/1/4
f 393/6/5 386/6/5 385/6/5
f 394/6/5 388/6/5 387/6/5
f 395/6/5 388/6/5 394/6/5
f 396/6/5 390/6/5 389/6/5
f 397/6/5 390/6/5 396/6/5
f 398/6/5 392/6/5 391/6/5
f 399/6/5 393/6/5 385/6/5
f 399/7/5 394/7/5 393/7/5
f 400/6/5 395/6/5 394/6/5
f 400/7/5 394/7/5 399/7/5
f 401/7/5 396/7/5 395/7/5
f 401/6/5 395/6/5 400/6/5
f 402/6/5 397/6/5 396/6/5
f 402/7/5 396/7/5 401/7/5
f 403/7/5 398/7/5 397/7/5
f 403/6/5 397/6/5 402/6/5
f 404/6/5 392/6/5 398/6/5
f 404/7/5 398/7/5 403/7/5
f 405/6/5 401/6/5 400/6/5
f 405/6/5 402/6/5 401/6/5
f 405/6/5 404/6/5 403/6/5
f 405/6/5 399/6/5 385/6/5
f 405/6/5 400/6/5 399/6/5
f 405/6/5 403/6/5 402/6/5
f 406/6/5 392/6/5 404/6/5
f 406/6/5 404/6/5 405/6/5
f 416/9/5 408/9/5 407/9/5
f 417/9/5 408/9/5 416/9/5
f 418/9/5 408/9/5 417/9/5
f 419/9/5 410/9/5 409/9/5
f 420/9/5 410/9/5 419/9/5
f 421/9/5 412/9/5 411/9/5
f 422/9/5 412/9/5 421/9/5
f 423/9/5 412/9/5 422/9/5
f 424/9/5 414/9/5 413/9/5
f 425/9/5 414/9/5 424/9/5
f 427/10/5 416/10/5 415/10/5
f 428/8/5 417/8/5 416/8/5
f 428/10/5 416/10/5 427/10/5
f 429/10/5 418/10/5 417/10/5
f 429/8/5 417/8/5 428/8/5
f 429/10/5 419/10/5 418/10/5
f 430/8/5 420/8/5 419/8/5
f 430/10/5 419/10/5 429/10/5
f 431/10/5 421/10/5 420/10/5
f 431/8/5 420/8/5 430/8/5
f 432/8/5 422/8/5 421/8/5
f 432/10/5 421/10/5 431/10/5
f 433/10/5 423/10/5 422/10/5
f 433/8/5 422/8/5 432/8/5
f 433/10/5 424/10/5 423/10/5
f 434/8/5 425/8/5 424/8/5
f 434/10/5 424/10/5 433/10/5
f 435/10/5 426/10/5 425/10/5
f 435/8/5 425/8/5 434/8/5
f 436/10/5 426/10/5 435/10/5
f 439/5/5 438/5/5 437/5/5
f 440/5/5 438/5/5 439/5/5
f 441/5/5 438/5/5 440/5/5
f 442/5/5 438/5/5 441/5/5
f 443/5/5 438/5/5 442/5/5
f 444/5/5 438/5/5 443/5/5
f 445/5/5 438/5/5 444/5/5
f 446/5/5 438/5/5 445/5/5
f 447/5/5 439/5/5 437/5/5
f 448/5/5 439/5/5 447/5/5
f 449/5/5 441/5/5 440/5/5
f 450/5/5 441/5/5 449/5/5
f 451/5/5 443/5/5 442/5/5
f 452/5/5 443/5/5 451/5/5
f 453/5/5 445/5/5 444/5/5
f 454/5/5 445/5/5 453/5/5
f 455/5/5 438/5/5 446/5/5
f 456/5/5 438/5/5 455/5/5
f 459/1/5 458/1/5 457/1/5
f 460/1/5 458/1/5 459/1/5
f 461/1/5 458/1/5 460/1/5
f 462/1/5 458/1/5 461/1/5
f 463/1/5 461/1/5 460/1/5
f 464/1/5 461/1/5 463/1/5
f 465/7/6 466/7/6 471/7/6
f 471/7/6 466/7/6 472/7/6
f 467/7/6 468/7/6 473/7/6
f 473/7/6 468/7/6 474/7/6
f 469/7/6 470/7/6 475/7/6
f 475/7/6 470/7/6 476/7/6
f 477/6/6 478/6/6 485/6/6
f 485/6/6 478/6/6 486/6/6
f 483/6/6 484/6/6 487/6/6
f 487/6/6 484/6/6 488/6/6
f 486/6/6 478/6/6 489/6/6
f 489/6/6 478/6/6 490/6/6
f 479/6/6 480/6/6 491/6/6
f 491/6/6 480/6/6 492/6/6
f 481/6/6 482/6/6 493/6/6
f 493/6/6 482/6/6 494/6/6
f 483/6/6 487/6/6 495/6/6
f 495/6/6 487/6/6 496/6/6
f 489/10/6 490/10/6 497/10/6
f 491/10/6 492/10/6 497/10/6
f 495/10/6 496/10/6 497/10/6
f 494/10/6 495/10/6 497/10/6
f 493/10/6 494/10/6 497/10/6
f 492/10/6 493/10/6 497/10/6
f 490/10/6 491/10/6 497/10/6
f 497/10/6 496/10/6 498/10/6
f 499/1/6 500/1/6 501/1/6
f 501/1/6 500/1/6 502/1/6
f 502/1/6 500/1/6 503/1/6
f 503/1/6 500/1/6 504/1/6
f 501/8/6 502/8/6 505/8/6
f 502/1/6 503/1/6 505/1/6
f 503/8/6 504/8/6 506/8/6
f 505/1/6 503/1/6 506/1/6
f 499/1/6 501/1/6 507/1/6
f 501/8/6 505/8/6 507/8/6
f 505/8/6 506/8/6 507/8/6
f 506/8/6 504/8/6 508/8/6
f 507/8/6 506/8/6 508/8/6
f 504/1/6 500/1/6 508/1/6
f 499/1/6 507/1/6 509/1/6
f 507/6/6 508/6/6 510/6/6
f 509/1/6 507/1/6 510/1/6
f 508/1/6 500/1/6 511/1/6
f 510/6/6 508/6/6 511/6/6
f 511/1/6 500/1/6 512/1/6
