# MagicaVoxel @ Ephtracy

# group
g prob-16

# material
mtllib prob-16.mtl
usemtl palette

# normals
vn -1 0 0
vn 1 0 0
vn 0 0 1
vn 0 0 -1
vn 0 -1 0
vn 0 1 0

# texcoords
vt 0.923828 0.5
vt 0.951172 0.5
vt 0.986328 0.5
vt 0.990234 0.5

# verts
v -25 0 25
v -25 0 22
v -25 30 25
v -25 30 22
v -23 0 22
v -23 0 -23
v -23 2 -18
v -23 2 -19
v -23 3 -18
v -23 3 -19
v -23 4 -6
v -23 4 -7
v -23 5 -6
v -23 5 -7
v -23 8 -14
v -23 8 -16
v -23 13 -5
v -23 13 -7
v -23 14 -5
v -23 14 -7
v -23 14 -14
v -23 14 -16
v -23 18 2
v -23 18 1
v -23 18 -4
v -23 18 -7
v -23 18 -16
v -23 18 -18
v -23 19 2
v -23 19 1
v -23 21 -16
v -23 21 -18
v -23 22 -4
v -23 22 -7
v -23 28 22
v -23 28 -23
v -22 18 2
v -22 18 1
v -22 18 -16
v -22 18 -18
v -22 19 2
v -22 19 1
v -22 21 -16
v -22 21 -18
v -16 15 3
v -16 15 2
v -16 17 3
v -16 17 2
v -15 14 -22
v -15 14 -23
v -15 15 -22
v -15 15 -23
v -15 27 -18
v -15 27 -19
v -15 28 -18
v -15 28 -19
v -4 16 -22
v -4 16 -23
v -4 17 -22
v -4 17 -23
v -2 12 3
v -2 12 2
v -2 13 3
v -2 13 2
v 1 27 -5
v 1 27 -6
v 1 28 -5
v 1 28 -6
v 6 15 -22
v 6 15 -23
v 6 17 -22
v 6 17 -23
v 13 27 -5
v 13 27 -8
v 13 28 -5
v 13 28 -8
v 15 23 3
v 15 23 2
v 15 24 3
v 15 24 2
v 23 0 5
v 23 0 3
v 23 0 -23
v 23 0 -25
v 23 28 3
v 23 28 -13
v 23 28 -19
v 23 28 -23
v 23 30 5
v 23 30 -25
v -18 15 3
v -18 15 2
v -18 17 3
v -18 17 2
v -16 14 -22
v -16 14 -23
v -16 15 -22
v -16 15 -23
v -16 27 -18
v -16 27 -19
v -16 28 -18
v -16 28 -19
v -5 16 -22
v -5 16 -23
v -5 17 -22
v -5 17 -23
v -3 12 3
v -3 12 2
v -3 13 3
v -3 13 2
v 0 27 -5
v 0 27 -6
v 0 28 -5
v 0 28 -6
v 3 0 22
v 3 0 3
v 3 28 22
v 3 28 3
v 5 0 25
v 5 0 22
v 5 15 -22
v 5 15 -23
v 5 17 -22
v 5 17 -23
v 5 30 25
v 5 30 22
v 11 27 -5
v 11 27 -8
v 11 28 -5
v 11 28 -8
v 14 23 3
v 14 23 2
v 14 24 3
v 14 24 2
v 25 0 5
v 25 0 3
v 25 0 -23
v 25 0 -25
v 25 1 3
v 25 1 -23
v 25 28 3
v 25 28 -23
v 25 30 5
v 25 30 -25
v -25 0 25
v -25 30 25
v -23 0 25
v -23 28 25
v 3 0 25
v 3 28 25
v 5 0 25
v 5 30 25
v 23 0 5
v 23 30 5
v 25 0 5
v 25 30 5
v 3 0 3
v 3 28 3
v 10 9 3
v 10 13 3
v 14 9 3
v 14 13 3
v 14 23 3
v 14 24 3
v 15 23 3
v 15 24 3
v 17 0 3
v 17 3 3
v 20 0 3
v 20 3 3
v 23 0 3
v 23 28 3
v -18 15 2
v -18 17 2
v -16 15 2
v -16 17 2
v -3 12 2
v -3 13 2
v -2 12 2
v -2 13 2
v 14 23 2
v 14 24 2
v 15 23 2
v 15 24 2
v -23 18 1
v -23 19 1
v -22 18 1
v -22 19 1
v 0 27 -6
v 0 28 -6
v 1 27 -6
v 1 28 -6
v 11 27 -8
v 11 28 -8
v 13 27 -8
v 13 28 -8
v -23 18 -18
v -23 21 -18
v -22 18 -18
v -22 21 -18
v -16 27 -19
v -16 28 -19
v -15 27 -19
v -15 28 -19
v -25 0 22
v -25 30 22
v -23 0 22
v -23 28 22
v 3 0 22
v 3 28 22
v 5 0 22
v 5 30 22
v -18 15 3
v -18 17 3
v -16 15 3
v -16 17 3
v -3 12 3
v -3 13 3
v -2 12 3
v -2 13 3
v -23 18 2
v -23 19 2
v -22 18 2
v -22 19 2
v 0 27 -5
v 0 28 -5
v 1 27 -5
v 1 28 -5
v 11 27 -5
v 11 28 -5
v 13 27 -5
v 13 28 -5
v -23 18 -16
v -23 21 -16
v -22 18 -16
v -22 21 -16
v -16 27 -18
v -16 28 -18
v -15 27 -18
v -15 28 -18
v -16 14 -22
v -16 15 -22
v -15 14 -22
v -15 15 -22
v -5 16 -22
v -5 17 -22
v -4 16 -22
v -4 17 -22
v 5 15 -22
v 5 17 -22
v 6 15 -22
v 6 17 -22
v -23 0 -23
v -23 28 -23
v -20 17 -23
v -20 18 -23
v -19 3 -23
v -19 6 -23
v -19 17 -23
v -19 18 -23
v -16 3 -23
v -16 6 -23
v -16 14 -23
v -16 15 -23
v -15 14 -23
v -15 15 -23
v -15 21 -23
v -15 23 -23
v -14 21 -23
v -14 23 -23
v -8 8 -23
v -8 9 -23
v -7 8 -23
v -7 9 -23
v -5 16 -23
v -5 17 -23
v -4 16 -23
v -4 17 -23
v 4 9 -23
v 4 10 -23
v 5 9 -23
v 5 10 -23
v 5 15 -23
v 5 17 -23
v 6 15 -23
v 6 17 -23
v 10 2 -23
v 10 6 -23
v 11 24 -23
v 11 26 -23
v 14 2 -23
v 14 6 -23
v 14 24 -23
v 14 26 -23
v 23 0 -23
v 23 28 -23
v 23 0 -25
v 23 30 -25
v 25 0 -25
v 25 30 -25
v -25 0 25
v -23 0 25
v 3 0 25
v 5 0 25
v -25 0 22
v -23 0 22
v 3 0 22
v 5 0 22
v 23 0 5
v 25 0 5
v -22 0 3
v -19 0 3
v 3 0 3
v 17 0 3
v 20 0 3
v 23 0 3
v 25 0 3
v -22 0 2
v -19 0 2
v 17 0 2
v 20 0 2
v -23 0 -23
v 23 0 -23
v 25 0 -23
v 23 0 -25
v 25 0 -25
v -3 13 3
v -2 13 3
v -3 13 2
v -2 13 2
v -16 15 -22
v -15 15 -22
v -16 15 -23
v -15 15 -23
v -18 17 3
v -16 17 3
v -18 17 2
v -16 17 2
v -5 17 -22
v -4 17 -22
v 5 17 -22
v 6 17 -22
v -5 17 -23
v -4 17 -23
v 5 17 -23
v 6 17 -23
v -23 19 2
v -22 19 2
v -23 19 1
v -22 19 1
v -23 21 -16
v -22 21 -16
v -23 21 -18
v -22 21 -18
v 14 24 3
v 15 24 3
v 14 24 2
v 15 24 2
v -3 12 3
v -2 12 3
v -3 12 2
v -2 12 2
v -16 14 -22
v -15 14 -22
v -16 14 -23
v -15 14 -23
v -18 15 3
v -16 15 3
v -18 15 2
v -16 15 2
v 5 15 -22
v 6 15 -22
v 5 15 -23
v 6 15 -23
v -5 16 -22
v -4 16 -22
v -5 16 -23
v -4 16 -23
v -23 18 2
v -22 18 2
v -23 18 1
v -22 18 1
v -23 18 -16
v -22 18 -16
v -23 18 -18
v -22 18 -18
v 14 23 3
v 15 23 3
v 14 23 2
v 15 23 2
v 0 27 -5
v 1 27 -5
v 11 27 -5
v 13 27 -5
v 0 27 -6
v 1 27 -6
v 11 27 -8
v 13 27 -8
v -16 27 -18
v -15 27 -18
v -16 27 -19
v -15 27 -19
v -23 28 22
v 3 28 22
v 3 28 3
v 23 28 3
v 0 28 -5
v 1 28 -5
v 11 28 -5
v 13 28 -5
v -14 28 -6
v -11 28 -6
v 0 28 -6
v 1 28 -6
v 11 28 -8
v 13 28 -8
v -14 28 -9
v -11 28 -9
v 18 28 -13
v 23 28 -13
v -16 28 -18
v -15 28 -18
v -16 28 -19
v -15 28 -19
v 18 28 -19
v 23 28 -19
v -23 28 -23
v 23 28 -23
v -25 30 25
v 5 30 25
v -25 30 22
v 5 30 22
v 23 30 5
v 25 30 5
v 23 30 -25
v 25 30 -25

# faces
f 3/4/1 2/4/1 1/4/1
f 4/4/1 2/4/1 3/4/1
f 7/2/1 6/2/1 5/2/1
f 8/2/1 6/2/1 7/2/1
f 9/2/1 7/2/1 5/2/1
f 9/4/1 8/4/1 7/4/1
f 10/2/1 6/2/1 8/2/1
f 10/4/1 8/4/1 9/4/1
f 11/2/1 9/2/1 5/2/1
f 11/2/1 10/2/1 9/2/1
f 12/2/1 10/2/1 11/2/1
f 13/2/1 11/2/1 5/2/1
f 13/4/1 12/4/1 11/4/1
f 14/2/1 10/2/1 12/2/1
f 14/4/1 12/4/1 13/4/1
f 15/2/1 14/2/1 13/2/1
f 15/2/1 10/2/1 14/2/1
f 16/2/1 10/2/1 15/2/1
f 17/2/1 13/2/1 5/2/1
f 17/2/1 15/2/1 13/2/1
f 18/2/1 15/2/1 17/2/1
f 19/2/1 17/2/1 5/2/1
f 19/4/1 18/4/1 17/4/1
f 20/2/1 15/2/1 18/2/1
f 20/4/1 18/4/1 19/4/1
f 21/4/1 16/4/1 15/4/1
f 21/2/1 15/2/1 20/2/1
f 22/2/1 10/2/1 16/2/1
f 22/4/1 16/4/1 21/4/1
f 23/2/1 21/2/1 20/2/1
f 23/2/1 20/2/1 19/2/1
f 23/2/1 22/2/1 21/2/1
f 23/2/1 19/2/1 5/2/1
f 24/2/1 22/2/1 23/2/1
f 25/2/1 22/2/1 24/2/1
f 26/2/1 22/2/1 25/2/1
f 27/2/1 10/2/1 22/2/1
f 27/2/1 22/2/1 26/2/1
f 28/2/1 10/2/1 27/2/1
f 29/2/1 23/2/1 5/2/1
f 30/2/1 25/2/1 24/2/1
f 31/2/1 27/2/1 26/2/1
f 32/2/1 10/2/1 28/2/1
f 33/4/1 26/4/1 25/4/1
f 33/2/1 30/2/1 29/2/1
f 33/2/1 25/2/1 30/2/1
f 34/2/1 32/2/1 31/2/1
f 34/4/1 26/4/1 33/4/1
f 34/2/1 31/2/1 26/2/1
f 35/2/1 33/2/1 29/2/1
f 35/2/1 29/2/1 5/2/1
f 35/2/1 34/2/1 33/2/1
f 36/2/1 6/2/1 10/2/1
f 36/2/1 34/2/1 35/2/1
f 36/2/1 32/2/1 34/2/1
f 36/2/1 10/2/1 32/2/1
f 41/2/1 38/2/1 37/2/1
f 42/2/1 38/2/1 41/2/1
f 43/2/1 40/2/1 39/2/1
f 44/2/1 40/2/1 43/2/1
f 47/2/1 46/2/1 45/2/1
f 48/2/1 46/2/1 47/2/1
f 51/2/1 50/2/1 49/2/1
f 52/2/1 50/2/1 51/2/1
f 55/2/1 54/2/1 53/2/1
f 56/2/1 54/2/1 55/2/1
f 59/2/1 58/2/1 57/2/1
f 60/2/1 58/2/1 59/2/1
f 63/2/1 62/2/1 61/2/1
f 64/2/1 62/2/1 63/2/1
f 67/2/1 66/2/1 65/2/1
f 68/2/1 66/2/1 67/2/1
f 71/2/1 70/2/1 69/2/1
f 72/2/1 70/2/1 71/2/1
f 75/2/1 74/2/1 73/2/1
f 76/2/1 74/2/1 75/2/1
f 79/2/1 78/2/1 77/2/1
f 80/2/1 78/2/1 79/2/1
f 85/4/1 82/4/1 81/4/1
f 88/4/1 84/4/1 83/4/1
f 89/4/1 87/4/1 86/4/1
f 89/4/1 88/4/1 87/4/1
f 89/4/1 85/4/1 81/4/1
f 89/4/1 86/4/1 85/4/1
f 90/4/1 84/4/1 88/4/1
f 90/4/1 88/4/1 89/4/1
f 91/2/2 92/2/2 93/2/2
f 93/2/2 92/2/2 94/2/2
f 95/2/2 96/2/2 97/2/2
f 97/2/2 96/2/2 98/2/2
f 99/2/2 100/2/2 101/2/2
f 101/2/2 100/2/2 102/2/2
f 103/2/2 104/2/2 105/2/2
f 105/2/2 104/2/2 106/2/2
f 107/2/2 108/2/2 109/2/2
f 109/2/2 108/2/2 110/2/2
f 111/2/2 112/2/2 113/2/2
f 113/2/2 112/2/2 114/2/2
f 115/2/2 116/2/2 117/2/2
f 117/2/2 116/2/2 118/2/2
f 121/2/2 122/2/2 123/2/2
f 123/2/2 122/2/2 124/2/2
f 119/4/2 120/4/2 125/4/2
f 125/4/2 120/4/2 126/4/2
f 127/2/2 128/2/2 129/2/2
f 129/2/2 128/2/2 130/2/2
f 131/2/2 132/2/2 133/2/2
f 133/2/2 132/2/2 134/2/2
f 135/4/2 136/4/2 139/4/2
f 136/2/2 137/2/2 139/2/2
f 137/4/2 138/4/2 140/4/2
f 139/2/2 137/2/2 140/2/2
f 135/4/2 139/4/2 141/4/2
f 139/1/2 140/1/2 141/1/2
f 140/4/2 138/4/2 142/4/2
f 141/1/2 140/1/2 142/1/2
f 135/4/2 141/4/2 143/4/2
f 141/4/2 142/4/2 143/4/2
f 142/4/2 138/4/2 144/4/2
f 143/4/2 142/4/2 144/4/2
f 147/4/3 146/4/3 145/4/3
f 148/4/3 146/4/3 147/4/3
f 149/2/3 148/2/3 147/2/3
f 150/4/3 146/4/3 148/4/3
f 150/2/3 148/2/3 149/2/3
f 151/4/3 150/4/3 149/4/3
f 152/4/3 146/4/3 150/4/3
f 152/4/3 150/4/3 151/4/3
f 155/4/3 154/4/3 153/4/3
f 156/4/3 154/4/3 155/4/3
f 159/2/3 158/2/3 157/2/3
f 160/2/3 158/2/3 159/2/3
f 161/2/3 159/2/3 157/2/3
f 161/4/3 160/4/3 159/4/3
f 162/2/3 158/2/3 160/2/3
f 162/4/3 160/4/3 161/4/3
f 163/2/3 158/2/3 162/2/3
f 164/2/3 158/2/3 163/2/3
f 165/2/3 162/2/3 161/2/3
f 165/2/3 163/2/3 162/2/3
f 166/2/3 158/2/3 164/2/3
f 167/2/3 161/2/3 157/2/3
f 167/2/3 166/2/3 165/2/3
f 167/2/3 165/2/3 161/2/3
f 168/2/3 166/2/3 167/2/3
f 169/4/3 168/4/3 167/4/3
f 170/2/3 166/2/3 168/2/3
f 170/4/3 168/4/3 169/4/3
f 171/2/3 170/2/3 169/2/3
f 172/2/3 158/2/3 166/2/3
f 172/2/3 170/2/3 171/2/3
f 172/2/3 166/2/3 170/2/3
f 175/4/3 174/4/3 173/4/3
f 176/4/3 174/4/3 175/4/3
f 179/4/3 178/4/3 177/4/3
f 180/4/3 178/4/3 179/4/3
f 183/4/3 182/4/3 181/4/3
f 184/4/3 182/4/3 183/4/3
f 187/2/3 186/2/3 185/2/3
f 188/2/3 186/2/3 187/2/3
f 191/2/3 190/2/3 189/2/3
f 192/2/3 190/2/3 191/2/3
f 195/2/3 194/2/3 193/2/3
f 196/2/3 194/2/3 195/2/3
f 199/2/3 198/2/3 197/2/3
f 200/2/3 198/2/3 199/2/3
f 203/2/3 202/2/3 201/2/3
f 204/2/3 202/2/3 203/2/3
f 205/4/4 206/4/4 207/4/4
f 207/4/4 206/4/4 208/4/4
f 208/4/4 206/4/4 210/4/4
f 209/4/4 210/4/4 211/4/4
f 210/4/4 206/4/4 212/4/4
f 211/4/4 210/4/4 212/4/4
f 213/1/4 214/1/4 215/1/4
f 215/1/4 214/1/4 216/1/4
f 217/1/4 218/1/4 219/1/4
f 219/1/4 218/1/4 220/1/4
f 221/2/4 222/2/4 223/2/4
f 223/2/4 222/2/4 224/2/4
f 225/2/4 226/2/4 227/2/4
f 227/2/4 226/2/4 228/2/4
f 229/2/4 230/2/4 231/2/4
f 231/2/4 230/2/4 232/2/4
f 233/2/4 234/2/4 235/2/4
f 235/2/4 234/2/4 236/2/4
f 237/2/4 238/2/4 239/2/4
f 239/2/4 238/2/4 240/2/4
f 241/4/4 242/4/4 243/4/4
f 243/4/4 242/4/4 244/4/4
f 245/4/4 246/4/4 247/4/4
f 247/4/4 246/4/4 248/4/4
f 249/4/4 250/4/4 251/4/4
f 251/4/4 250/4/4 252/4/4
f 253/2/4 254/2/4 255/2/4
f 255/2/4 254/2/4 256/2/4
f 253/2/4 255/2/4 257/2/4
f 257/2/4 255/2/4 258/2/4
f 255/3/4 256/3/4 259/3/4
f 258/2/4 255/2/4 259/2/4
f 256/2/4 254/2/4 260/2/4
f 259/3/4 256/3/4 260/3/4
f 257/4/4 258/4/4 261/4/4
f 253/2/4 257/2/4 261/2/4
f 258/2/4 259/2/4 262/2/4
f 261/4/4 258/4/4 262/4/4
f 259/2/4 260/2/4 262/2/4
f 262/2/4 260/2/4 263/2/4
f 263/2/4 260/2/4 264/2/4
f 261/2/4 262/2/4 265/2/4
f 262/2/4 263/2/4 265/2/4
f 264/2/4 260/2/4 266/2/4
f 260/2/4 254/2/4 267/2/4
f 266/2/4 260/2/4 267/2/4
f 267/2/4 254/2/4 268/2/4
f 265/2/4 266/2/4 269/2/4
f 266/2/4 267/2/4 269/2/4
f 267/4/4 268/4/4 269/4/4
f 268/2/4 254/2/4 270/2/4
f 269/4/4 268/4/4 270/4/4
f 265/2/4 269/2/4 271/2/4
f 261/2/4 265/2/4 271/2/4
f 269/2/4 270/2/4 271/2/4
f 271/2/4 270/2/4 272/2/4
f 261/2/4 271/2/4 273/2/4
f 271/3/4 272/3/4 273/3/4
f 272/2/4 270/2/4 274/2/4
f 273/3/4 272/3/4 274/3/4
f 273/2/4 274/2/4 275/2/4
f 274/2/4 270/2/4 275/2/4
f 275/2/4 270/2/4 276/2/4
f 273/2/4 275/2/4 277/2/4
f 276/2/4 270/2/4 278/2/4
f 273/2/4 277/2/4 279/2/4
f 277/2/4 278/2/4 279/2/4
f 279/2/4 278/2/4 280/2/4
f 273/2/4 279/2/4 281/2/4
f 279/3/4 280/3/4 281/3/4
f 280/2/4 278/2/4 282/2/4
f 281/3/4 280/3/4 282/3/4
f 282/2/4 278/2/4 283/2/4
f 278/2/4 270/2/4 284/2/4
f 283/2/4 278/2/4 284/2/4
f 282/2/4 283/2/4 285/2/4
f 281/2/4 282/2/4 285/2/4
f 284/2/4 270/2/4 286/2/4
f 253/2/4 261/2/4 287/2/4
f 285/2/4 286/2/4 287/2/4
f 261/2/4 273/2/4 287/2/4
f 281/2/4 285/2/4 287/2/4
f 273/2/4 281/2/4 287/2/4
f 287/2/4 286/2/4 288/2/4
f 286/2/4 270/2/4 289/2/4
f 288/2/4 286/2/4 289/2/4
f 270/2/4 254/2/4 289/2/4
f 289/2/4 254/2/4 290/2/4
f 287/4/4 288/4/4 291/4/4
f 253/2/4 287/2/4 291/2/4
f 288/2/4 289/2/4 292/2/4
f 291/4/4 288/4/4 292/4/4
f 289/4/4 290/4/4 293/4/4
f 292/2/4 289/2/4 293/2/4
f 290/2/4 254/2/4 294/2/4
f 293/4/4 290/4/4 294/4/4
f 292/2/4 293/2/4 295/2/4
f 291/2/4 292/2/4 295/2/4
f 293/2/4 294/2/4 295/2/4
f 253/2/4 291/2/4 295/2/4
f 294/2/4 254/2/4 296/2/4
f 295/2/4 294/2/4 296/2/4
f 297/4/4 298/4/4 299/4/4
f 299/4/4 298/4/4 300/4/4
f 305/4/5 302/4/5 301/4/5
f 306/2/5 303/2/5 302/2/5
f 306/4/5 302/4/5 305/4/5
f 307/4/5 304/4/5 303/4/5
f 307/2/5 303/2/5 306/2/5
f 308/4/5 304/4/5 307/4/5
f 311/2/5 307/2/5 306/2/5
f 312/2/5 307/2/5 311/2/5
f 313/2/5 307/2/5 312/2/5
f 316/4/5 310/4/5 309/4/5
f 317/4/5 310/4/5 316/4/5
f 318/2/5 311/2/5 306/2/5
f 318/4/5 312/4/5 311/4/5
f 319/2/5 313/2/5 312/2/5
f 319/4/5 312/4/5 318/4/5
f 319/2/5 314/2/5 313/2/5
f 320/4/5 315/4/5 314/4/5
f 320/2/5 314/2/5 319/2/5
f 321/2/5 317/2/5 316/2/5
f 321/4/5 315/4/5 320/4/5
f 321/2/5 316/2/5 315/2/5
f 322/2/5 319/2/5 318/2/5
f 322/2/5 320/2/5 319/2/5
f 322/2/5 321/2/5 320/2/5
f 322/2/5 318/2/5 306/2/5
f 323/2/5 317/2/5 321/2/5
f 323/2/5 321/2/5 322/2/5
f 324/2/5 317/2/5 323/2/5
f 325/4/5 324/4/5 323/4/5
f 326/4/5 324/4/5 325/4/5
f 329/2/5 328/2/5 327/2/5
f 330/2/5 328/2/5 329/2/5
f 333/2/5 332/2/5 331/2/5
f 334/2/5 332/2/5 333/2/5
f 337/2/5 336/2/5 335/2/5
f 338/2/5 336/2/5 337/2/5
f 343/2/5 340/2/5 339/2/5
f 344/2/5 340/2/5 343/2/5
f 345/2/5 342/2/5 341/2/5
f 346/2/5 342/2/5 345/2/5
f 349/2/5 348/2/5 347/2/5
f 350/2/5 348/2/5 349/2/5
f 353/2/5 352/2/5 351/2/5
f 354/2/5 352/2/5 353/2/5
f 357/2/5 356/2/5 355/2/5
f 358/2/5 356/2/5 357/2/5
f 359/2/6 360/2/6 361/2/6
f 361/2/6 360/2/6 362/2/6
f 363/2/6 364/2/6 365/2/6
f 365/2/6 364/2/6 366/2/6
f 367/2/6 368/2/6 369/2/6
f 369/2/6 368/2/6 370/2/6
f 371/2/6 372/2/6 373/2/6
f 373/2/6 372/2/6 374/2/6
f 375/2/6 376/2/6 377/2/6
f 377/2/6 376/2/6 378/2/6
f 379/2/6 380/2/6 381/2/6
f 381/2/6 380/2/6 382/2/6
f 383/2/6 384/2/6 385/2/6
f 385/2/6 384/2/6 386/2/6
f 387/2/6 388/2/6 389/2/6
f 389/2/6 388/2/6 390/2/6
f 391/4/6 392/4/6 395/4/6
f 395/4/6 392/4/6 396/4/6
f 393/4/6 394/4/6 397/4/6
f 397/4/6 394/4/6 398/4/6
f 399/4/6 400/4/6 401/4/6
f 401/4/6 400/4/6 402/4/6
f 403/2/6 404/2/6 405/2/6
f 403/2/6 405/2/6 407/2/6
f 405/2/6 406/2/6 407/2/6
f 407/2/6 406/2/6 408/2/6
f 408/2/6 406/2/6 409/2/6
f 409/2/6 406/2/6 410/2/6
f 403/2/6 407/2/6 411/2/6
f 411/2/6 407/2/6 412/2/6
f 412/2/6 407/2/6 413/2/6
f 408/2/6 409/2/6 414/2/6
f 412/2/6 413/2/6 415/2/6
f 413/2/6 414/2/6 415/2/6
f 414/2/6 409/2/6 415/2/6
f 410/2/6 406/2/6 416/2/6
f 403/2/6 411/2/6 417/2/6
f 411/4/6 412/4/6 417/4/6
f 412/2/6 415/2/6 418/2/6
f 417/4/6 412/4/6 418/4/6
f 415/2/6 416/2/6 418/2/6
f 416/2/6 406/2/6 419/2/6
f 418/2/6 416/2/6 419/2/6
f 417/2/6 418/2/6 419/2/6
f 419/2/6 406/2/6 420/2/6
f 403/2/6 417/2/6 421/2/6
f 417/2/6 419/2/6 421/2/6
f 421/2/6 419/2/6 422/2/6
f 403/2/6 421/2/6 423/2/6
f 422/2/6 419/2/6 424/2/6
f 419/4/6 420/4/6 425/4/6
f 424/2/6 419/2/6 425/2/6
f 425/4/6 420/4/6 426/4/6
f 423/2/6 424/2/6 427/2/6
f 403/2/6 423/2/6 427/2/6
f 425/2/6 426/2/6 427/2/6
f 424/2/6 425/2/6 427/2/6
f 427/2/6 426/2/6 428/2/6
f 429/4/6 430/4/6 431/4/6
f 431/4/6 430/4/6 432/4/6
f 433/4/6 434/4/6 435/4/6
f 435/4/6 434/4/6 436/4/6
