# MagicaVoxel @ Ephtracy

# group
g prob-09

# material
mtllib prob-09.mtl
usemtl palette

# normals
vn -1 0 0
vn 1 0 0
vn 0 0 1
vn 0 0 -1
vn 0 -1 0
vn 0 1 0

# texcoords
vt 0.986328 0.5
vt 0.990234 0.5

# verts
v -20 0 1.5
v -20 0 -1.5
v -20 20 1.5
v -20 20 -1.5
v -1 1 1.5
v -1 1 0.5
v -1 19 1.5
v -1 19 0.5
v 19 1 0.5
v 19 1 -0.5
v 19 19 0.5
v 19 19 -0.5
v -19 1 1.5
v -19 1 0.5
v -19 19 1.5
v -19 19 0.5
v 0 0 1.5
v 0 0 0.5
v 0 1 0.5
v 0 1 -0.5
v 0 19 0.5
v 0 19 -0.5
v 0 20 1.5
v 0 20 0.5
v 20 0 0.5
v 20 0 -1.5
v 20 20 0.5
v 20 20 -1.5
v -20 0 1.5
v -20 20 1.5
v -19 1 1.5
v -19 19 1.5
v -1 1 1.5
v -1 19 1.5
v 0 0 1.5
v 0 20 1.5
v -19 1 0.5
v -19 19 0.5
v -1 1 0.5
v -1 19 0.5
v 0 0 0.5
v 0 1 0.5
v 0 19 0.5
v 0 20 0.5
v 19 1 0.5
v 19 19 0.5
v 20 0 0.5
v 20 20 0.5
v 0 1 -0.5
v 0 19 -0.5
v 19 1 -0.5
v 19 19 -0.5
v -20 0 -1.5
v -20 20 -1.5
v 0 1 -1.5
v 0 19 -1.5
v 19 1 -1.5
v 19 19 -1.5
v 20 0 -1.5
v 20 20 -1.5
v -20 0 1.5
v 0 0 1.5
v 0 0 0.5
v 20 0 0.5
v -20 0 -1.5
v 20 0 -1.5
v -19 19 1.5
v -1 19 1.5
v -19 19 0.5
v -1 19 0.5
v 0 19 0.5
v 19 19 0.5
v 0 19 -0.5
v 19 19 -0.5
v -19 1 1.5
v -1 1 1.5
v -19 1 0.5
v -1 1 0.5
v 0 1 0.5
v 19 1 0.5
v 0 1 -0.5
v 19 1 -0.5
v -20 20 1.5
v 0 20 1.5
v 0 20 0.5
v 20 20 0.5
v -20 20 -1.5
v 20 20 -1.5

# faces
f 3/2/1 2/2/1 1/2/1
f 4/2/1 2/2/1 3/2/1
f 7/2/1 6/2/1 5/2/1
f 8/2/1 6/2/1 7/2/1
f 11/2/1 10/2/1 9/2/1
f 12/2/1 10/2/1 11/2/1
f 13/2/2 14/2/2 15/2/2
f 15/2/2 14/2/2 16/2/2
f 17/2/2 18/2/2 19/2/2
f 17/2/2 19/2/2 21/2/2
f 19/2/2 20/2/2 21/2/2
f 21/2/2 20/2/2 22/2/2
f 17/2/2 21/2/2 23/2/2
f 23/2/2 21/2/2 24/2/2
f 25/2/2 26/2/2 27/2/2
f 27/2/2 26/2/2 28/2/2
f 31/2/3 30/2/3 29/2/3
f 32/2/3 30/2/3 31/2/3
f 33/2/3 31/2/3 29/2/3
f 34/2/3 30/2/3 32/2/3
f 35/2/3 33/2/3 29/2/3
f 35/2/3 34/2/3 33/2/3
f 36/2/3 30/2/3 34/2/3
f 36/2/3 34/2/3 35/2/3
f 39/1/3 38/1/3 37/1/3
f 40/1/3 38/1/3 39/1/3
f 45/2/3 42/2/3 41/2/3
f 46/2/3 44/2/3 43/2/3
f 47/2/3 45/2/3 41/2/3
f 47/2/3 46/2/3 45/2/3
f 48/2/3 44/2/3 46/2/3
f 48/2/3 46/2/3 47/2/3
f 51/1/3 50/1/3 49/1/3
f 52/1/3 50/1/3 51/1/3
f 53/2/4 54/2/4 55/2/4
f 55/2/4 54/2/4 56/2/4
f 53/2/4 55/2/4 57/2/4
f 55/1/4 56/1/4 57/1/4
f 56/2/4 54/2/4 58/2/4
f 57/1/4 56/1/4 58/1/4
f 53/2/4 57/2/4 59/2/4
f 57/2/4 58/2/4 59/2/4
f 58/2/4 54/2/4 60/2/4
f 59/2/4 58/2/4 60/2/4
f 63/2/5 62/2/5 61/2/5
f 65/2/5 63/2/5 61/2/5
f 65/2/5 64/2/5 63/2/5
f 66/2/5 64/2/5 65/2/5
f 69/2/5 68/2/5 67/2/5
f 70/2/5 68/2/5 69/2/5
f 73/2/5 72/2/5 71/2/5
f 74/2/5 72/2/5 73/2/5
f 75/2/6 76/2/6 77/2/6
f 77/2/6 76/2/6 78/2/6
f 79/2/6 80/2/6 81/2/6
f 81/2/6 80/2/6 82/2/6
f 83/2/6 84/2/6 85/2/6
f 83/2/6 85/2/6 87/2/6
f 85/2/6 86/2/6 87/2/6
f 87/2/6 86/2/6 88/2/6
