# MagicaVoxel @ Ephtracy

# group
g prob-19

# material
mtllib prob-19.mtl
usemtl palette

# normals
vn -1 0 0
vn 1 0 0
vn 0 0 1
vn 0 0 -1
vn 0 -1 0
vn 0 1 0

# texcoords
vt 0.923828 0.5
vt 0.935547 0.5
vt 0.955078 0.5
vt 0.990234 0.5

# verts
v -25 0 9
v -25 0 -10
v -25 13 8
v -25 13 7
v -25 13 -10
v -25 14 8
v -25 14 7
v -25 14 -9
v -25 14 -10
v -25 28 8
v -25 28 7
v -25 28 -9
v -25 28 -10
v -25 29 8
v -25 29 7
v -25 29 -9
v -25 29 -10
v -25 39 7
v -25 39 -9
v -25 40 9
v -25 40 -10
v -23 13 10
v -23 13 9
v -23 14 10
v -23 14 9
v -23 28 10
v -23 28 9
v -23 29 10
v -23 29 9
v 23 14 9
v 23 14 7
v 23 28 9
v 23 28 7
v 23 29 9
v 23 29 7
v 23 40 9
v 23 40 7
v 24 14 -9
v 24 14 -10
v 24 28 -9
v 24 28 -10
v 24 29 -9
v 24 29 -10
v 24 39 7
v 24 39 -9
v 24 40 7
v 24 40 -10
v -24 14 -9
v -24 14 -10
v -24 28 -9
v -24 28 -10
v -24 29 -9
v -24 29 -10
v -24 39 7
v -24 39 -9
v -24 40 7
v -24 40 -10
v -23 14 9
v -23 14 7
v -23 28 9
v -23 28 7
v -23 29 9
v -23 29 8
v -23 29 7
v -23 40 9
v -23 40 8
v -23 40 7
v 23 13 10
v 23 13 9
v 23 14 10
v 23 14 9
v 23 28 10
v 23 28 9
v 23 29 10
v 23 29 9
v 25 0 9
v 25 0 -10
v 25 13 8
v 25 13 7
v 25 13 -10
v 25 14 8
v 25 14 7
v 25 14 -9
v 25 14 -10
v 25 28 8
v 25 28 7
v 25 28 -9
v 25 28 -10
v 25 29 8
v 25 29 7
v 25 29 -9
v 25 29 -10
v 25 39 7
v 25 39 -9
v 25 40 9
v 25 40 -10
v -23 13 10
v -23 14 10
v -23 28 10
v -23 29 10
v 23 13 10
v 23 14 10
v 23 28 10
v 23 29 10
v -25 0 9
v -25 40 9
v -23 13 9
v -23 14 9
v -23 28 9
v -23 29 9
v -23 40 9
v 23 13 9
v 23 14 9
v 23 28 9
v 23 29 9
v 23 40 9
v 25 0 9
v 25 40 9
v -25 14 -9
v -25 28 -9
v -25 29 -9
v -25 39 -9
v -24 14 -9
v -24 28 -9
v -24 29 -9
v -24 39 -9
v 24 14 -9
v 24 28 -9
v 24 29 -9
v 24 39 -9
v 25 14 -9
v 25 28 -9
v 25 29 -9
v 25 39 -9
v -25 14 7
v -25 28 7
v -25 29 7
v -25 39 7
v -24 29 7
v -24 39 7
v -24 40 7
v -23 14 7
v -23 28 7
v -23 29 7
v -23 40 7
v 23 14 7
v 23 28 7
v 23 29 7
v 23 40 7
v 24 39 7
v 24 40 7
v 25 14 7
v 25 28 7
v 25 29 7
v 25 39 7
v -25 0 -10
v -25 13 -10
v -25 14 -10
v -25 28 -10
v -25 29 -10
v -25 40 -10
v -24 14 -10
v -24 28 -10
v -24 29 -10
v -24 40 -10
v 24 14 -10
v 24 28 -10
v 24 29 -10
v 24 40 -10
v 25 0 -10
v 25 13 -10
v 25 14 -10
v 25 28 -10
v 25 29 -10
v 25 40 -10
v -25 0 9
v 25 0 9
v -24 0 8
v 24 0 8
v -24 0 -9
v 24 0 -9
v -25 0 -10
v 25 0 -10
v -23 13 10
v 23 13 10
v -23 13 9
v 23 13 9
v -23 28 10
v 23 28 10
v -23 28 9
v 23 28 9
v -25 28 7
v -23 28 7
v 23 28 7
v 25 28 7
v -25 28 -9
v -24 28 -9
v 24 28 -9
v 25 28 -9
v -24 28 -10
v 24 28 -10
v -25 39 7
v -24 39 7
v 24 39 7
v 25 39 7
v -25 39 -9
v -24 39 -9
v 24 39 -9
v 25 39 -9
v -23 14 10
v 23 14 10
v -23 14 9
v 23 14 9
v -25 14 7
v -23 14 7
v 23 14 7
v 25 14 7
v -25 14 -9
v -24 14 -9
v 24 14 -9
v 25 14 -9
v -24 14 -10
v 24 14 -10
v -23 29 10
v 23 29 10
v -23 29 9
v 23 29 9
v -23 29 8
v -25 29 7
v -24 29 7
v -23 29 7
v 23 29 7
v 25 29 7
v -25 29 -9
v -24 29 -9
v 24 29 -9
v 25 29 -9
v -24 29 -10
v 24 29 -10
v -25 40 9
v -23 40 9
v 23 40 9
v 25 40 9
v -24 40 8
v -23 40 8
v -24 40 7
v -23 40 7
v 23 40 7
v 24 40 7
v -25 40 -10
v -24 40 -10
v 24 40 -10
v 25 40 -10

# faces
f 3/3/1 2/3/1 1/3/1
f 4/3/1 2/3/1 3/3/1
f 5/3/1 2/3/1 4/3/1
f 6/3/1 3/3/1 1/3/1
f 6/1/1 4/1/1 3/1/1
f 7/2/1 5/2/1 4/2/1
f 7/1/1 4/1/1 6/1/1
f 8/2/1 5/2/1 7/2/1
f 9/2/1 5/2/1 8/2/1
f 10/3/1 6/3/1 1/3/1
f 10/3/1 7/3/1 6/3/1
f 11/3/1 7/3/1 10/3/1
f 12/3/1 9/3/1 8/3/1
f 13/3/1 9/3/1 12/3/1
f 14/1/1 11/1/1 10/1/1
f 14/3/1 10/3/1 1/3/1
f 15/2/1 13/2/1 12/2/1
f 15/1/1 11/1/1 14/1/1
f 15/2/1 12/2/1 11/2/1
f 16/2/1 13/2/1 15/2/1
f 17/2/1 13/2/1 16/2/1
f 18/3/1 15/3/1 14/3/1
f 19/3/1 17/3/1 16/3/1
f 20/3/1 14/3/1 1/3/1
f 20/3/1 19/3/1 18/3/1
f 20/3/1 18/3/1 14/3/1
f 21/3/1 17/3/1 19/3/1
f 21/3/1 19/3/1 20/3/1
f 24/2/1 23/2/1 22/2/1
f 25/2/1 23/2/1 24/2/1
f 28/2/1 27/2/1 26/2/1
f 29/2/1 27/2/1 28/2/1
f 32/3/1 31/3/1 30/3/1
f 33/3/1 31/3/1 32/3/1
f 36/3/1 35/3/1 34/3/1
f 37/3/1 35/3/1 36/3/1
f 40/3/1 39/3/1 38/3/1
f 41/3/1 39/3/1 40/3/1
f 45/3/1 43/3/1 42/3/1
f 46/3/1 45/3/1 44/3/1
f 47/3/1 43/3/1 45/3/1
f 47/3/1 45/3/1 46/3/1
f 48/3/2 49/3/2 50/3/2
f 50/3/2 49/3/2 51/3/2
f 52/3/2 53/3/2 55/3/2
f 54/3/2 55/3/2 56/3/2
f 55/3/2 53/3/2 57/3/2
f 56/3/2 55/3/2 57/3/2
f 58/3/2 59/3/2 60/3/2
f 60/3/2 59/3/2 61/3/2
f 62/3/2 63/3/2 65/3/2
f 63/4/2 64/4/2 66/4/2
f 65/3/2 63/3/2 66/3/2
f 66/4/2 64/4/2 67/4/2
f 68/2/2 69/2/2 70/2/2
f 70/2/2 69/2/2 71/2/2
f 72/2/2 73/2/2 74/2/2
f 74/2/2 73/2/2 75/2/2
f 76/3/2 77/3/2 78/3/2
f 78/3/2 77/3/2 79/3/2
f 79/3/2 77/3/2 80/3/2
f 76/3/2 78/3/2 81/3/2
f 78/1/2 79/1/2 81/1/2
f 79/2/2 80/2/2 82/2/2
f 81/1/2 79/1/2 82/1/2
f 82/2/2 80/2/2 83/2/2
f 83/2/2 80/2/2 84/2/2
f 76/3/2 81/3/2 85/3/2
f 81/3/2 82/3/2 85/3/2
f 85/3/2 82/3/2 86/3/2
f 83/3/2 84/3/2 87/3/2
f 87/3/2 84/3/2 88/3/2
f 85/1/2 86/1/2 89/1/2
f 76/3/2 85/3/2 89/3/2
f 87/2/2 88/2/2 90/2/2
f 89/1/2 86/1/2 90/1/2
f 86/2/2 87/2/2 90/2/2
f 90/2/2 88/2/2 91/2/2
f 91/2/2 88/2/2 92/2/2
f 89/3/2 90/3/2 93/3/2
f 91/3/2 92/3/2 94/3/2
f 76/3/2 89/3/2 95/3/2
f 93/3/2 94/3/2 95/3/2
f 89/3/2 93/3/2 95/3/2
f 94/3/2 92/3/2 96/3/2
f 95/3/2 94/3/2 96/3/2
f 101/2/3 98/2/3 97/2/3
f 102/2/3 98/2/3 101/2/3
f 103/2/3 100/2/3 99/2/3
f 104/2/3 100/2/3 103/2/3
f 107/3/3 106/3/3 105/3/3
f 108/3/3 106/3/3 107/3/3
f 109/3/3 106/3/3 108/3/3
f 110/3/3 106/3/3 109/3/3
f 111/3/3 106/3/3 110/3/3
f 112/3/3 107/3/3 105/3/3
f 117/3/3 112/3/3 105/3/3
f 117/3/3 116/3/3 115/3/3
f 117/3/3 115/3/3 114/3/3
f 117/3/3 114/3/3 113/3/3
f 117/3/3 113/3/3 112/3/3
f 118/3/3 116/3/3 117/3/3
f 123/3/3 120/3/3 119/3/3
f 124/3/3 120/3/3 123/3/3
f 125/3/3 122/3/3 121/3/3
f 126/3/3 122/3/3 125/3/3
f 131/3/3 128/3/3 127/3/3
f 132/3/3 128/3/3 131/3/3
f 133/3/3 130/3/3 129/3/3
f 134/3/3 130/3/3 133/3/3
f 137/3/4 138/3/4 139/3/4
f 139/3/4 138/3/4 140/3/4
f 135/3/4 136/3/4 142/3/4
f 142/3/4 136/3/4 143/3/4
f 140/4/4 141/4/4 144/4/4
f 139/4/4 140/4/4 144/4/4
f 144/4/4 141/4/4 145/4/4
f 148/3/4 149/3/4 150/3/4
f 150/3/4 149/3/4 151/3/4
f 146/3/4 147/3/4 152/3/4
f 152/3/4 147/3/4 153/3/4
f 148/3/4 150/3/4 154/3/4
f 154/3/4 150/3/4 155/3/4
f 157/2/4 158/2/4 162/2/4
f 158/3/4 159/3/4 162/3/4
f 159/2/4 160/2/4 163/2/4
f 162/3/4 159/3/4 163/3/4
f 160/3/4 161/3/4 164/3/4
f 163/2/4 160/2/4 164/2/4
f 164/3/4 161/3/4 165/3/4
f 157/2/4 162/2/4 166/2/4
f 163/2/4 164/2/4 167/2/4
f 167/2/4 164/2/4 168/2/4
f 156/3/4 157/3/4 170/3/4
f 157/2/4 166/2/4 171/2/4
f 170/3/4 157/3/4 171/3/4
f 166/3/4 167/3/4 172/3/4
f 171/2/4 166/2/4 172/2/4
f 167/2/4 168/2/4 173/2/4
f 172/3/4 167/3/4 173/3/4
f 168/3/4 169/3/4 174/3/4
f 173/2/4 168/2/4 174/2/4
f 174/3/4 169/3/4 175/3/4
f 178/3/5 177/3/5 176/3/5
f 179/3/5 177/3/5 178/3/5
f 180/3/5 178/3/5 176/3/5
f 180/4/5 179/4/5 178/4/5
f 181/3/5 177/3/5 179/3/5
f 181/4/5 179/4/5 180/4/5
f 182/3/5 180/3/5 176/3/5
f 182/3/5 181/3/5 180/3/5
f 183/3/5 177/3/5 181/3/5
f 183/3/5 181/3/5 182/3/5
f 186/2/5 185/2/5 184/2/5
f 187/2/5 185/2/5 186/2/5
f 190/2/5 189/2/5 188/2/5
f 191/2/5 189/2/5 190/2/5
f 193/2/5 191/2/5 190/2/5
f 194/2/5 191/2/5 193/2/5
f 196/2/5 194/2/5 193/2/5
f 196/2/5 195/2/5 194/2/5
f 196/2/5 193/2/5 192/2/5
f 197/2/5 195/2/5 196/2/5
f 198/2/5 195/2/5 197/2/5
f 199/2/5 195/2/5 198/2/5
f 200/2/5 198/2/5 197/2/5
f 201/2/5 198/2/5 200/2/5
f 206/3/5 203/3/5 202/3/5
f 207/3/5 203/3/5 206/3/5
f 208/3/5 205/3/5 204/3/5
f 209/3/5 205/3/5 208/3/5
f 210/2/6 211/2/6 212/2/6
f 212/2/6 211/2/6 213/2/6
f 212/2/6 213/2/6 215/2/6
f 215/2/6 213/2/6 216/2/6
f 215/2/6 216/2/6 218/2/6
f 216/2/6 217/2/6 218/2/6
f 214/2/6 215/2/6 218/2/6
f 218/2/6 217/2/6 219/2/6
f 219/2/6 217/2/6 220/2/6
f 220/2/6 217/2/6 221/2/6
f 219/2/6 220/2/6 222/2/6
f 222/2/6 220/2/6 223/2/6
f 224/2/6 225/2/6 226/2/6
f 226/2/6 225/2/6 227/2/6
f 226/2/6 227/2/6 228/2/6
f 228/2/6 227/2/6 231/2/6
f 231/2/6 227/2/6 232/2/6
f 231/2/6 232/2/6 234/2/6
f 232/2/6 233/2/6 234/2/6
f 230/2/6 231/2/6 234/2/6
f 229/2/6 230/2/6 234/2/6
f 234/2/6 233/2/6 235/2/6
f 235/2/6 233/2/6 236/2/6
f 236/2/6 233/2/6 237/2/6
f 235/2/6 236/2/6 238/2/6
f 238/2/6 236/2/6 239/2/6
f 240/3/6 241/3/6 244/3/6
f 244/3/6 241/3/6 245/3/6
f 240/3/6 244/3/6 246/3/6
f 244/4/6 245/4/6 246/4/6
f 246/4/6 245/4/6 247/4/6
f 242/3/6 243/3/6 248/3/6
f 248/3/6 243/3/6 249/3/6
f 240/3/6 246/3/6 250/3/6
f 250/3/6 246/3/6 251/3/6
f 249/3/6 243/3/6 252/3/6
f 252/3/6 243/3/6 253/3/6
