# MagicaVoxel @ Ephtracy

# group
g vendingmachine-01-0

# material
mtllib vendingmachine-01-0.mtl
usemtl palette

# normals
vn -1 0 0
vn 1 0 0
vn 0 0 1
vn 0 0 -1
vn 0 -1 0
vn 0 1 0

# texcoords
vt 0.0996094 0.5
vt 0.146484 0.5
vt 0.431641 0.5
vt 0.916016 0.5
vt 0.919922 0.5
vt 0.923828 0.5
vt 0.939453 0.5
vt 0.943359 0.5
vt 0.951172 0.5
vt 0.986328 0.5
vt 0.990234 0.5
vt 0.994141 0.5

# verts
v -21 0 11.5
v -21 0 10.5
v -21 0 2.5
v -21 0 -12.5
v -21 1 11.5
v -21 1 10.5
v -21 2 11.5
v -21 2 10.5
v -21 4 6.5
v -21 4 4.5
v -21 5 11.5
v -21 5 10.5
v -21 6 6.5
v -21 6 4.5
v -21 30 2.5
v -21 30 -12.5
v -21 42 -3.5
v -21 42 -4.5
v -21 43 -3.5
v -21 43 -4.5
v -21 48 3.5
v -21 48 -0.5
v -21 53 3.5
v -21 53 -0.5
v -21 56 6.5
v -21 56 5.5
v -21 57 6.5
v -21 57 5.5
v -21 59 11.5
v -21 59 10.5
v -21 60 10.5
v -21 60 -12.5
v -19 25 12.5
v -19 25 11.5
v -19 58 12.5
v -19 58 11.5
v 11 20 12.5
v 11 20 11.5
v 11 24 11.5
v 11 25 12.5
v 11 25 11.5
v 12 19 12.5
v 12 19 11.5
v 12 20 12.5
v 12 20 11.5
v 13 7 11.5
v 13 7 10.5
v 13 8 10.5
v 13 8 9.5
v 13 12 11.5
v 13 12 10.5
v 13 12 9.5
v 17 5 11.5
v 17 5 10.5
v 17 6 11.5
v 17 6 10.5
v 17 7 11.5
v 17 7 10.5
v 17 10 11.5
v 17 10 10.5
v 17 57 12.5
v 17 57 11.5
v 17 58 12.5
v 17 58 11.5
v 18 26 12.5
v 18 26 11.5
v 18 26 10.5
v 18 57 12.5
v 18 57 11.5
v 18 57 10.5
v -18 26 12.5
v -18 26 11.5
v -18 26 10.5
v -18 57 12.5
v -18 57 11.5
v -18 57 10.5
v -17 57 12.5
v -17 57 11.5
v -17 58 12.5
v -17 58 11.5
v -13 7 11.5
v -13 7 10.5
v -13 8 10.5
v -13 8 9.5
v -13 12 11.5
v -13 12 10.5
v -13 12 9.5
v 15 5 11.5
v 15 5 10.5
v 15 6 11.5
v 15 6 10.5
v 15 7 11.5
v 15 7 10.5
v 15 10 11.5
v 15 10 10.5
v 16 19 12.5
v 16 19 11.5
v 16 20 12.5
v 16 20 11.5
v 17 20 12.5
v 17 20 11.5
v 17 22 11.5
v 17 23 12.5
v 17 23 11.5
v 17 24 12.5
v 17 24 11.5
v 17 25 12.5
v 17 25 11.5
v 19 25 12.5
v 19 25 11.5
v 19 58 12.5
v 19 58 11.5
v 21 0 11.5
v 21 0 5.5
v 21 0 -0.5
v 21 0 -12.5
v 21 1 -1.5
v 21 1 -12.5
v 21 2 -1.5
v 21 2 -12.5
v 21 3 -0.5
v 21 3 -12.5
v 21 7 5.5
v 21 7 -0.5
v 21 17 5.5
v 21 17 4.5
v 21 18 5.5
v 21 18 4.5
v 21 22 11.5
v 21 22 10.5
v 21 23 11.5
v 21 23 10.5
v 21 24 11.5
v 21 24 10.5
v 21 25 -0.5
v 21 25 -12.5
v 21 32 2.5
v 21 32 -1.5
v 21 35 2.5
v 21 35 -1.5
v 21 41 0.5
v 21 41 -0.5
v 21 42 0.5
v 21 42 -0.5
v 21 49 -1.5
v 21 49 -5.5
v 21 54 -1.5
v 21 54 -5.5
v 21 59 11.5
v 21 59 10.5
v 21 59 -2.5
v 21 60 10.5
v 21 60 -2.5
v 21 60 -12.5
v 22 23 12.5
v 22 23 10.5
v 22 24 12.5
v 22 24 10.5
v -19 25 12.5
v -19 58 12.5
v -18 26 12.5
v -18 57 12.5
v -17 57 12.5
v -17 58 12.5
v 11 20 12.5
v 11 25 12.5
v 11 26 12.5
v 12 19 12.5
v 12 20 12.5
v 16 19 12.5
v 16 20 12.5
v 16 23 12.5
v 16 24 12.5
v 17 20 12.5
v 17 23 12.5
v 17 24 12.5
v 17 25 12.5
v 17 26 12.5
v 17 57 12.5
v 17 58 12.5
v 18 26 12.5
v 18 57 12.5
v 19 25 12.5
v 19 58 12.5
v 22 23 12.5
v 22 24 12.5
v -21 0 11.5
v -21 1 11.5
v -21 2 11.5
v -21 5 11.5
v -21 59 11.5
v -20 2 11.5
v -20 5 11.5
v -19 24 11.5
v -19 25 11.5
v -19 58 11.5
v -17 0 11.5
v -17 1 11.5
v -17 3 11.5
v -17 4 11.5
v -17 15 11.5
v -17 16 11.5
v -17 23 11.5
v -17 57 11.5
v -17 58 11.5
v -16 3 11.5
v -16 4 11.5
v -16 17 11.5
v -16 21 11.5
v -14 17 11.5
v -14 21 11.5
v -13 7 11.5
v -13 12 11.5
v -13 17 11.5
v -13 18 11.5
v -12 17 11.5
v -12 18 11.5
v -9 17 11.5
v -9 18 11.5
v -8 17 11.5
v -8 18 11.5
v -7 0 11.5
v -7 1 11.5
v -7 6 11.5
v -7 15 11.5
v -7 16 11.5
v -7 23 11.5
v 5 13 11.5
v 5 14 11.5
v 5 17 11.5
v 8 0 11.5
v 8 1 11.5
v 8 6 11.5
v 9 13 11.5
v 9 14 11.5
v 9 17 11.5
v 9 21 11.5
v 9 23 11.5
v 10 21 11.5
v 10 23 11.5
v 11 19 11.5
v 11 20 11.5
v 11 24 11.5
v 11 25 11.5
v 12 18 11.5
v 12 19 11.5
v 12 20 11.5
v 13 7 11.5
v 13 12 11.5
v 14 15 11.5
v 14 17 11.5
v 15 4 11.5
v 15 5 11.5
v 15 6 11.5
v 15 7 11.5
v 15 10 11.5
v 16 15 11.5
v 16 17 11.5
v 16 18 11.5
v 16 19 11.5
v 16 20 11.5
v 17 4 11.5
v 17 5 11.5
v 17 6 11.5
v 17 7 11.5
v 17 10 11.5
v 17 19 11.5
v 17 20 11.5
v 17 22 11.5
v 17 23 11.5
v 17 24 11.5
v 17 25 11.5
v 17 57 11.5
v 17 58 11.5
v 19 24 11.5
v 19 25 11.5
v 19 58 11.5
v 21 0 11.5
v 21 22 11.5
v 21 23 11.5
v 21 24 11.5
v 21 59 11.5
v -21 59 10.5
v -21 60 10.5
v -20 59 10.5
v -20 60 10.5
v -18 26 10.5
v -18 57 10.5
v -13 7 10.5
v -13 8 10.5
v 11 26 10.5
v 12 26 10.5
v 13 7 10.5
v 13 8 10.5
v 15 5 10.5
v 15 6 10.5
v 15 7 10.5
v 15 10 10.5
v 17 5 10.5
v 17 6 10.5
v 17 7 10.5
v 17 10 10.5
v 18 26 10.5
v 18 57 10.5
v 21 59 10.5
v 21 60 10.5
v -13 8 9.5
v -13 12 9.5
v 13 8 9.5
v 13 12 9.5
v 21 23 10.5
v 21 24 10.5
v 22 23 10.5
v 22 24 10.5
v -21 0 -12.5
v -21 30 -12.5
v -21 60 -12.5
v -20 0 -12.5
v -20 30 -12.5
v 20 1 -12.5
v 20 2 -12.5
v 20 3 -12.5
v 20 25 -12.5
v 21 0 -12.5
v 21 1 -12.5
v 21 2 -12.5
v 21 3 -12.5
v 21 25 -12.5
v 21 60 -12.5
v -21 0 11.5
v -17 0 11.5
v -7 0 11.5
v 8 0 11.5
v 21 0 11.5
v -21 0 10.5
v -17 0 10.5
v -7 0 10.5
v 8 0 10.5
v 20 0 5.5
v 21 0 5.5
v -21 0 2.5
v -20 0 2.5
v 20 0 -0.5
v 21 0 -0.5
v -21 0 -12.5
v -20 0 -12.5
v 21 0 -12.5
v 15 6 11.5
v 17 6 11.5
v 15 6 10.5
v 17 6 10.5
v 15 10 11.5
v 17 10 11.5
v 15 10 10.5
v 17 10 10.5
v -13 12 11.5
v 13 12 11.5
v -13 12 10.5
v 13 12 10.5
v -13 12 9.5
v 13 12 9.5
v 12 19 12.5
v 16 19 12.5
v 12 19 11.5
v 16 19 11.5
v 11 20 12.5
v 12 20 12.5
v 16 20 12.5
v 17 20 12.5
v 11 20 11.5
v 12 20 11.5
v 16 20 11.5
v 17 20 11.5
v 17 23 12.5
v 22 23 12.5
v 17 23 11.5
v 21 23 11.5
v 21 23 10.5
v 22 23 10.5
v -19 25 12.5
v 11 25 12.5
v 17 25 12.5
v 19 25 12.5
v -19 25 11.5
v 11 25 11.5
v 17 25 11.5
v 19 25 11.5
v -18 57 12.5
v -17 57 12.5
v 17 57 12.5
v 18 57 12.5
v -18 57 11.5
v -17 57 11.5
v 17 57 11.5
v 18 57 11.5
v -18 57 10.5
v 18 57 10.5
v 15 5 11.5
v 17 5 11.5
v 15 5 10.5
v 17 5 10.5
v -13 7 11.5
v 13 7 11.5
v 15 7 11.5
v 17 7 11.5
v -13 7 10.5
v 13 7 10.5
v 15 7 10.5
v 17 7 10.5
v -13 8 10.5
v 13 8 10.5
v -13 8 9.5
v 13 8 9.5
v 17 24 12.5
v 22 24 12.5
v 17 24 11.5
v 19 24 11.5
v 21 24 11.5
v 21 24 10.5
v 22 24 10.5
v -18 26 12.5
v 11 26 12.5
v 17 26 12.5
v 18 26 12.5
v -18 26 11.5
v 11 26 11.5
v 12 26 11.5
v 17 26 11.5
v 18 26 11.5
v -18 26 10.5
v 11 26 10.5
v 12 26 10.5
v 18 26 10.5
v -19 58 12.5
v -17 58 12.5
v 17 58 12.5
v 19 58 12.5
v -19 58 11.5
v -17 58 11.5
v 17 58 11.5
v 19 58 11.5
v -21 59 11.5
v 21 59 11.5
v -21 59 10.5
v -20 59 10.5
v 21 59 10.5
v -21 60 10.5
v -20 60 10.5
v 21 60 10.5
v -20 60 -0.5
v -18 60 -0.5
v -18 60 -2.5
v 21 60 -2.5
v -21 60 -12.5
v 21 60 -12.5

# faces
f 5/1/1 2/1/1 1/1/1
f 6/2/1 3/2/1 2/2/1
f 6/1/1 2/1/1 5/1/1
f 7/2/1 6/2/1 5/2/1
f 8/2/1 3/2/1 6/2/1
f 8/2/1 6/2/1 7/2/1
f 9/2/1 3/2/1 8/2/1
f 10/2/1 3/2/1 9/2/1
f 11/1/1 8/1/1 7/1/1
f 12/2/1 9/2/1 8/2/1
f 12/1/1 8/1/1 11/1/1
f 13/1/1 10/1/1 9/1/1
f 13/2/1 9/2/1 12/2/1
f 13/2/1 12/2/1 11/2/1
f 14/2/1 3/2/1 10/2/1
f 14/1/1 10/1/1 13/1/1
f 15/1/1 4/1/1 3/1/1
f 15/2/1 3/2/1 14/2/1
f 15/2/1 14/2/1 13/2/1
f 16/1/1 4/1/1 15/1/1
f 17/2/1 16/2/1 15/2/1
f 18/2/1 16/2/1 17/2/1
f 19/2/1 17/2/1 15/2/1
f 19/1/1 18/1/1 17/1/1
f 20/2/1 16/2/1 18/2/1
f 20/1/1 18/1/1 19/1/1
f 21/2/1 15/2/1 13/2/1
f 21/2/1 19/2/1 15/2/1
f 21/2/1 20/2/1 19/2/1
f 22/2/1 20/2/1 21/2/1
f 23/2/1 21/2/1 13/2/1
f 23/1/1 22/1/1 21/1/1
f 24/2/1 20/2/1 22/2/1
f 24/1/1 22/1/1 23/1/1
f 25/2/1 13/2/1 11/2/1
f 25/2/1 23/2/1 13/2/1
f 25/2/1 24/2/1 23/2/1
f 26/2/1 24/2/1 25/2/1
f 27/2/1 25/2/1 11/2/1
f 27/1/1 26/1/1 25/1/1
f 28/2/1 24/2/1 26/2/1
f 28/1/1 26/1/1 27/1/1
f 29/2/1 27/2/1 11/2/1
f 29/2/1 28/2/1 27/2/1
f 30/2/1 28/2/1 29/2/1
f 31/2/1 28/2/1 30/2/1
f 32/2/1 20/2/1 24/2/1
f 32/2/1 28/2/1 31/2/1
f 32/2/1 16/2/1 20/2/1
f 32/2/1 24/2/1 28/2/1
f 35/3/1 34/3/1 33/3/1
f 36/3/1 34/3/1 35/3/1
f 39/11/1 38/11/1 37/11/1
f 40/11/1 39/11/1 37/11/1
f 41/11/1 39/11/1 40/11/1
f 44/11/1 43/11/1 42/11/1
f 45/11/1 43/11/1 44/11/1
f 48/2/1 47/2/1 46/2/1
f 50/2/1 48/2/1 46/2/1
f 51/12/1 49/12/1 48/12/1
f 51/2/1 48/2/1 50/2/1
f 52/12/1 49/12/1 51/12/1
f 55/2/1 54/2/1 53/2/1
f 56/2/1 54/2/1 55/2/1
f 59/2/1 58/2/1 57/2/1
f 60/2/1 58/2/1 59/2/1
f 63/3/1 62/3/1 61/3/1
f 64/3/1 62/3/1 63/3/1
f 68/3/1 66/3/1 65/3/1
f 68/3/1 67/3/1 66/3/1
f 69/3/1 67/3/1 68/3/1
f 70/3/1 67/3/1 69/3/1
f 71/3/2 72/3/2 74/3/2
f 72/3/2 73/3/2 74/3/2
f 74/3/2 73/3/2 75/3/2
f 75/3/2 73/3/2 76/3/2
f 77/3/2 78/3/2 79/3/2
f 79/3/2 78/3/2 80/3/2
f 81/2/2 82/2/2 83/2/2
f 81/2/2 83/2/2 85/2/2
f 83/12/2 84/12/2 86/12/2
f 85/2/2 83/2/2 86/2/2
f 86/12/2 84/12/2 87/12/2
f 88/2/2 89/2/2 90/2/2
f 90/2/2 89/2/2 91/2/2
f 92/2/2 93/2/2 94/2/2
f 94/2/2 93/2/2 95/2/2
f 96/11/2 97/11/2 98/11/2
f 98/11/2 97/11/2 99/11/2
f 100/11/2 101/11/2 102/11/2
f 100/11/2 102/11/2 103/11/2
f 103/11/2 102/11/2 104/11/2
f 105/11/2 106/11/2 107/11/2
f 107/11/2 106/11/2 108/11/2
f 109/3/2 110/3/2 111/3/2
f 111/3/2 110/3/2 112/3/2
f 115/2/2 116/2/2 117/2/2
f 117/2/2 116/2/2 118/2/2
f 115/2/2 117/2/2 119/2/2
f 117/1/2 118/1/2 119/1/2
f 119/1/2 118/1/2 120/1/2
f 114/1/2 115/1/2 121/1/2
f 115/2/2 119/2/2 121/2/2
f 119/2/2 120/2/2 121/2/2
f 121/2/2 120/2/2 122/2/2
f 113/2/2 114/2/2 123/2/2
f 114/1/2 121/1/2 123/1/2
f 121/1/2 122/1/2 123/1/2
f 123/1/2 122/1/2 124/1/2
f 113/2/2 123/2/2 125/2/2
f 123/2/2 124/2/2 125/2/2
f 125/2/2 124/2/2 126/2/2
f 113/2/2 125/2/2 127/2/2
f 125/1/2 126/1/2 127/1/2
f 126/2/2 124/2/2 128/2/2
f 127/1/2 126/1/2 128/1/2
f 113/2/2 127/2/2 129/2/2
f 127/2/2 128/2/2 129/2/2
f 129/2/2 128/2/2 130/2/2
f 129/1/2 130/1/2 131/1/2
f 130/2/2 128/2/2 132/2/2
f 131/1/2 130/1/2 132/1/2
f 132/2/2 128/2/2 134/2/2
f 124/1/2 122/1/2 135/1/2
f 133/2/2 134/2/2 135/2/2
f 134/2/2 128/2/2 135/2/2
f 128/2/2 124/2/2 135/2/2
f 135/1/2 122/1/2 136/1/2
f 133/2/2 135/2/2 137/2/2
f 135/2/2 136/2/2 137/2/2
f 137/2/2 136/2/2 138/2/2
f 133/2/2 137/2/2 139/2/2
f 137/1/2 138/1/2 139/1/2
f 138/2/2 136/2/2 140/2/2
f 139/1/2 138/1/2 140/1/2
f 139/2/2 140/2/2 141/2/2
f 141/2/2 140/2/2 142/2/2
f 139/2/2 141/2/2 143/2/2
f 141/1/2 142/1/2 143/1/2
f 142/2/2 140/2/2 144/2/2
f 143/1/2 142/1/2 144/1/2
f 140/2/2 136/2/2 145/2/2
f 144/2/2 140/2/2 145/2/2
f 143/2/2 144/2/2 145/2/2
f 145/2/2 136/2/2 146/2/2
f 143/2/2 145/2/2 147/2/2
f 145/1/2 146/1/2 147/1/2
f 146/2/2 136/2/2 148/2/2
f 147/1/2 146/1/2 148/1/2
f 133/2/2 139/2/2 149/2/2
f 139/2/2 143/2/2 149/2/2
f 147/2/2 148/2/2 149/2/2
f 143/2/2 147/2/2 149/2/2
f 149/2/2 148/2/2 150/2/2
f 150/2/2 148/2/2 151/2/2
f 150/1/2 151/1/2 152/1/2
f 151/2/2 148/2/2 153/2/2
f 152/1/2 151/1/2 153/1/2
f 148/2/2 136/2/2 154/2/2
f 153/2/2 148/2/2 154/2/2
f 155/6/2 156/6/2 157/6/2
f 157/6/2 156/6/2 158/6/2
f 161/3/3 160/3/3 159/3/3
f 162/3/3 160/3/3 161/3/3
f 163/3/3 160/3/3 162/3/3
f 164/3/3 160/3/3 163/3/3
f 166/3/3 161/3/3 159/3/3
f 167/3/3 161/3/3 166/3/3
f 169/11/3 166/11/3 165/11/3
f 169/11/3 167/11/3 166/11/3
f 170/11/3 169/11/3 168/11/3
f 171/11/3 167/11/3 169/11/3
f 171/11/3 169/11/3 170/11/3
f 172/11/3 167/11/3 171/11/3
f 173/11/3 167/11/3 172/11/3
f 174/11/3 172/11/3 171/11/3
f 175/6/3 173/6/3 172/6/3
f 175/11/3 172/11/3 174/11/3
f 176/11/3 167/11/3 173/11/3
f 176/6/3 173/6/3 175/6/3
f 177/11/3 167/11/3 176/11/3
f 178/11/3 167/11/3 177/11/3
f 181/3/3 178/3/3 177/3/3
f 182/3/3 180/3/3 179/3/3
f 183/3/3 181/3/3 177/3/3
f 183/3/3 182/3/3 181/3/3
f 184/3/3 180/3/3 182/3/3
f 184/3/3 182/3/3 183/3/3
f 185/6/3 176/6/3 175/6/3
f 186/6/3 176/6/3 185/6/3
f 192/2/3 189/2/3 188/2/3
f 192/1/3 190/1/3 189/1/3
f 193/2/3 191/2/3 190/2/3
f 193/1/3 190/1/3 192/1/3
f 194/2/3 193/2/3 192/2/3
f 194/2/3 191/2/3 193/2/3
f 195/2/3 191/2/3 194/2/3
f 196/2/3 191/2/3 195/2/3
f 197/1/3 188/1/3 187/1/3
f 198/2/3 192/2/3 188/2/3
f 198/1/3 188/1/3 197/1/3
f 198/2/3 194/2/3 192/2/3
f 199/2/3 194/2/3 198/2/3
f 200/2/3 194/2/3 199/2/3
f 201/2/3 194/2/3 200/2/3
f 202/2/3 194/2/3 201/2/3
f 203/2/3 194/2/3 202/2/3
f 205/2/3 191/2/3 196/2/3
f 206/2/3 198/2/3 197/2/3
f 206/2/3 199/2/3 198/2/3
f 206/1/3 200/1/3 199/1/3
f 207/2/3 201/2/3 200/2/3
f 207/1/3 200/1/3 206/1/3
f 208/4/3 203/4/3 202/4/3
f 209/4/3 203/4/3 208/4/3
f 210/4/3 208/4/3 202/4/3
f 210/5/3 209/5/3 208/5/3
f 211/4/3 203/4/3 209/4/3
f 211/5/3 209/5/3 210/5/3
f 212/2/3 201/2/3 207/2/3
f 212/2/3 207/2/3 206/2/3
f 213/2/3 201/2/3 212/2/3
f 214/4/3 211/4/3 210/4/3
f 214/4/3 210/4/3 202/4/3
f 215/4/3 211/4/3 214/4/3
f 216/4/3 214/4/3 202/4/3
f 216/5/3 215/5/3 214/5/3
f 217/4/3 211/4/3 215/4/3
f 217/5/3 215/5/3 216/5/3
f 218/4/3 216/4/3 202/4/3
f 218/4/3 217/4/3 216/4/3
f 219/4/3 211/4/3 217/4/3
f 219/4/3 217/4/3 218/4/3
f 220/4/3 218/4/3 202/4/3
f 220/5/3 219/5/3 218/5/3
f 221/4/3 211/4/3 219/4/3
f 221/5/3 219/5/3 220/5/3
f 222/2/3 206/2/3 197/2/3
f 222/2/3 212/2/3 206/2/3
f 223/2/3 212/2/3 222/2/3
f 224/2/3 212/2/3 223/2/3
f 225/1/3 202/1/3 201/1/3
f 225/2/3 201/2/3 213/2/3
f 226/4/3 220/4/3 202/4/3
f 226/1/3 202/1/3 225/1/3
f 226/4/3 221/4/3 220/4/3
f 227/2/3 194/2/3 203/2/3
f 227/4/3 221/4/3 226/4/3
f 227/4/3 211/4/3 221/4/3
f 227/4/3 203/4/3 211/4/3
f 228/2/3 226/2/3 225/2/3
f 228/2/3 225/2/3 213/2/3
f 228/2/3 227/2/3 226/2/3
f 229/2/3 227/2/3 228/2/3
f 230/2/3 227/2/3 229/2/3
f 231/1/3 223/1/3 222/1/3
f 232/8/3 224/8/3 223/8/3
f 232/1/3 223/1/3 231/1/3
f 233/2/3 212/2/3 224/2/3
f 233/8/3 224/8/3 232/8/3
f 234/2/3 228/2/3 213/2/3
f 234/1/3 229/1/3 228/1/3
f 235/4/3 230/4/3 229/4/3
f 235/1/3 229/1/3 234/1/3
f 236/2/3 227/2/3 230/2/3
f 236/4/3 230/4/3 235/4/3
f 237/2/3 227/2/3 236/2/3
f 238/2/3 194/2/3 227/2/3
f 238/2/3 227/2/3 237/2/3
f 239/2/3 237/2/3 236/2/3
f 239/2/3 235/2/3 234/2/3
f 239/7/3 238/7/3 237/7/3
f 239/2/3 236/2/3 235/2/3
f 240/2/3 194/2/3 238/2/3
f 240/7/3 238/7/3 239/7/3
f 241/2/3 239/2/3 234/2/3
f 241/2/3 240/2/3 239/2/3
f 242/2/3 240/2/3 241/2/3
f 243/2/3 194/2/3 240/2/3
f 243/2/3 240/2/3 242/2/3
f 243/1/3 195/1/3 194/1/3
f 244/1/3 195/1/3 243/1/3
f 245/2/3 241/2/3 234/2/3
f 246/1/3 242/1/3 241/1/3
f 246/2/3 241/2/3 245/2/3
f 247/1/3 242/1/3 246/1/3
f 248/2/3 232/2/3 231/2/3
f 248/2/3 212/2/3 233/2/3
f 248/2/3 233/2/3 232/2/3
f 249/2/3 245/2/3 234/2/3
f 249/2/3 234/2/3 213/2/3
f 250/2/3 245/2/3 249/2/3
f 250/2/3 249/2/3 248/2/3
f 251/2/3 245/2/3 250/2/3
f 252/2/3 248/2/3 231/2/3
f 252/2/3 250/2/3 248/2/3
f 253/2/3 250/2/3 252/2/3
f 254/2/3 250/2/3 253/2/3
f 255/2/3 250/2/3 254/2/3
f 256/2/3 250/2/3 255/2/3
f 257/5/3 251/5/3 250/5/3
f 257/2/3 250/2/3 256/2/3
f 258/2/3 245/2/3 251/2/3
f 258/5/3 251/5/3 257/5/3
f 259/1/3 246/1/3 245/1/3
f 259/2/3 245/2/3 258/2/3
f 260/1/3 246/1/3 259/1/3
f 262/2/3 252/2/3 231/2/3
f 262/1/3 253/1/3 252/1/3
f 263/1/3 253/1/3 262/1/3
f 264/2/3 255/2/3 254/2/3
f 265/2/3 255/2/3 264/2/3
f 266/2/3 257/2/3 256/2/3
f 266/2/3 258/2/3 257/2/3
f 266/2/3 260/2/3 259/2/3
f 266/2/3 259/2/3 258/2/3
f 267/1/3 261/1/3 260/1/3
f 267/2/3 260/2/3 266/2/3
f 268/1/3 261/1/3 267/1/3
f 273/2/3 205/2/3 204/2/3
f 274/2/3 191/2/3 205/2/3
f 274/2/3 205/2/3 273/2/3
f 275/1/3 272/1/3 271/1/3
f 276/1/3 272/1/3 275/1/3
f 277/2/3 191/2/3 274/2/3
f 278/2/3 265/2/3 264/2/3
f 278/2/3 268/2/3 267/2/3
f 278/2/3 264/2/3 263/2/3
f 278/2/3 263/2/3 262/2/3
f 278/2/3 266/2/3 265/2/3
f 278/2/3 269/2/3 268/2/3
f 278/2/3 267/2/3 266/2/3
f 278/2/3 262/2/3 231/2/3
f 279/1/3 270/1/3 269/1/3
f 279/2/3 269/2/3 278/2/3
f 280/1/3 270/1/3 279/1/3
f 281/2/3 277/2/3 276/2/3
f 281/2/3 276/2/3 275/2/3
f 282/2/3 191/2/3 277/2/3
f 282/2/3 277/2/3 281/2/3
f 285/2/3 284/2/3 283/2/3
f 286/2/3 284/2/3 285/2/3
f 291/10/3 288/10/3 287/10/3
f 292/10/3 288/10/3 291/10/3
f 293/12/3 290/12/3 289/12/3
f 294/12/3 290/12/3 293/12/3
f 299/9/3 296/9/3 295/9/3
f 300/9/3 296/9/3 299/9/3
f 301/9/3 298/9/3 297/9/3
f 302/9/3 298/9/3 301/9/3
f 303/10/3 288/10/3 292/10/3
f 304/10/3 288/10/3 303/10/3
f 305/1/3 286/1/3 285/1/3
f 306/1/3 286/1/3 305/1/3
f 309/10/3 308/10/3 307/10/3
f 310/10/3 308/10/3 309/10/3
f 311/6/4 312/6/4 313/6/4
f 313/6/4 312/6/4 314/6/4
f 315/1/4 316/1/4 318/1/4
f 316/2/4 317/2/4 319/2/4
f 318/1/4 316/1/4 319/1/4
f 318/2/4 319/2/4 320/2/4
f 320/2/4 319/2/4 321/2/4
f 321/2/4 319/2/4 322/2/4
f 322/2/4 319/2/4 323/2/4
f 318/2/4 320/2/4 324/2/4
f 320/1/4 321/1/4 325/1/4
f 324/2/4 320/2/4 325/2/4
f 321/2/4 322/2/4 326/2/4
f 325/1/4 321/1/4 326/1/4
f 322/1/4 323/1/4 327/1/4
f 326/2/4 322/2/4 327/2/4
f 323/2/4 319/2/4 328/2/4
f 327/1/4 323/1/4 328/1/4
f 319/2/4 317/2/4 329/2/4
f 328/2/4 319/2/4 329/2/4
f 335/1/5 331/1/5 330/1/5
f 336/2/5 332/2/5 331/2/5
f 336/1/5 331/1/5 335/1/5
f 337/1/5 333/1/5 332/1/5
f 337/2/5 332/2/5 336/2/5
f 338/2/5 334/2/5 333/2/5
f 338/1/5 333/1/5 337/1/5
f 339/2/5 337/2/5 336/2/5
f 339/2/5 334/2/5 338/2/5
f 339/2/5 338/2/5 337/2/5
f 339/2/5 336/2/5 335/2/5
f 340/2/5 334/2/5 339/2/5
f 341/2/5 339/2/5 335/2/5
f 342/2/5 339/2/5 341/2/5
f 343/1/5 340/1/5 339/1/5
f 343/2/5 339/2/5 342/2/5
f 344/1/5 340/1/5 343/1/5
f 345/1/5 342/1/5 341/1/5
f 346/2/5 343/2/5 342/2/5
f 346/1/5 342/1/5 345/1/5
f 346/2/5 344/2/5 343/2/5
f 347/2/5 344/2/5 346/2/5
f 350/2/5 349/2/5 348/2/5
f 351/2/5 349/2/5 350/2/5
f 354/2/5 353/2/5 352/2/5
f 355/2/5 353/2/5 354/2/5
f 358/2/5 357/2/5 356/2/5
f 359/2/5 357/2/5 358/2/5
f 360/12/5 359/12/5 358/12/5
f 361/12/5 359/12/5 360/12/5
f 364/11/5 363/11/5 362/11/5
f 365/11/5 363/11/5 364/11/5
f 370/11/5 367/11/5 366/11/5
f 371/11/5 367/11/5 370/11/5
f 372/11/5 369/11/5 368/11/5
f 373/11/5 369/11/5 372/11/5
f 376/6/5 375/6/5 374/6/5
f 377/6/5 375/6/5 376/6/5
f 378/6/5 375/6/5 377/6/5
f 379/6/5 375/6/5 378/6/5
f 384/3/5 381/3/5 380/3/5
f 385/3/5 381/3/5 384/3/5
f 386/3/5 383/3/5 382/3/5
f 387/3/5 383/3/5 386/3/5
f 392/3/5 389/3/5 388/3/5
f 393/3/5 389/3/5 392/3/5
f 394/3/5 391/3/5 390/3/5
f 395/3/5 391/3/5 394/3/5
f 396/2/5 393/2/5 392/2/5
f 396/2/5 394/2/5 393/2/5
f 396/2/5 395/2/5 394/2/5
f 397/2/5 395/2/5 396/2/5
f 398/1/6 399/1/6 400/1/6
f 400/1/6 399/1/6 401/1/6
f 402/2/6 403/2/6 406/2/6
f 406/2/6 403/2/6 407/2/6
f 404/2/6 405/2/6 408/2/6
f 408/2/6 405/2/6 409/2/6
f 410/12/6 411/12/6 412/12/6
f 412/12/6 411/12/6 413/12/6
f 414/6/6 415/6/6 416/6/6
f 416/6/6 415/6/6 417/6/6
f 417/6/6 415/6/6 418/6/6
f 418/6/6 415/6/6 419/6/6
f 419/6/6 415/6/6 420/6/6
f 421/3/6 422/3/6 425/3/6
f 422/11/6 423/11/6 426/11/6
f 425/3/6 422/3/6 426/3/6
f 426/11/6 423/11/6 427/11/6
f 423/3/6 424/3/6 428/3/6
f 427/11/6 423/11/6 428/11/6
f 428/3/6 424/3/6 429/3/6
f 425/2/6 426/2/6 430/2/6
f 426/11/6 427/11/6 431/11/6
f 430/2/6 426/2/6 431/2/6
f 427/2/6 428/2/6 432/2/6
f 431/11/6 427/11/6 432/11/6
f 428/2/6 429/2/6 432/2/6
f 432/2/6 429/2/6 433/2/6
f 434/3/6 435/3/6 438/3/6
f 438/3/6 435/3/6 439/3/6
f 436/3/6 437/3/6 440/3/6
f 440/3/6 437/3/6 441/3/6
f 442/2/6 443/2/6 444/2/6
f 444/2/6 443/2/6 445/2/6
f 445/2/6 443/2/6 446/2/6
f 447/2/6 448/2/6 450/2/6
f 448/1/6 449/1/6 450/1/6
f 450/1/6 449/1/6 451/1/6
f 450/2/6 451/2/6 452/2/6
f 451/1/6 449/1/6 452/1/6
f 452/1/6 449/1/6 453/1/6
f 447/2/6 450/2/6 454/2/6
f 450/2/6 452/2/6 454/2/6
f 452/2/6 453/2/6 454/2/6
f 454/2/6 453/2/6 455/2/6
