# MagicaVoxel @ Ephtracy

# group
g wall-03

# material
mtllib wall-03.mtl
usemtl palette

# normals
vn -1 0 0
vn 1 0 0
vn 0 0 1
vn 0 0 -1
vn 0 -1 0
vn 0 1 0

# texcoords
vt 0.482422 0.5
vt 0.919922 0.5
vt 0.927734 0.5
vt 0.935547 0.5
vt 0.939453 0.5
vt 0.943359 0.5
vt 0.955078 0.5
vt 0.986328 0.5

# verts
v -25 0 24
v -25 0 -25
v -25 50 24
v -25 50 -25
v -23 2 25
v -23 2 24
v -23 24 25
v -23 24 24
v -23 26 25
v -23 26 24
v -23 48 25
v -23 48 24
v 1 2 25
v 1 2 24
v 1 23 25
v 1 23 24
v 1 24 25
v 1 24 24
v 1 26 25
v 1 26 24
v 1 37 25
v 1 37 24
v 1 44 25
v 1 44 24
v 1 48 25
v 1 48 24
v -1 2 25
v -1 2 24
v -1 24 25
v -1 24 24
v -1 26 25
v -1 26 24
v -1 28 25
v -1 28 24
v -1 48 25
v -1 48 24
v 23 2 25
v 23 2 24
v 23 24 25
v 23 24 24
v 23 26 25
v 23 26 24
v 23 48 25
v 23 48 24
v 25 0 24
v 25 0 -25
v 25 50 24
v 25 50 -25
v -23 2 25
v -23 24 25
v -23 26 25
v -23 48 25
v -21 2 25
v -21 7 25
v -17 2 25
v -17 6 25
v -17 7 25
v -17 26 25
v -17 28 25
v -16 13 25
v -16 14 25
v -15 13 25
v -15 14 25
v -15 26 25
v -15 28 25
v -13 27 25
v -13 30 25
v -13 37 25
v -13 39 25
v -12 9 25
v -12 10 25
v -11 6 25
v -11 7 25
v -11 9 25
v -11 10 25
v -11 31 25
v -11 32 25
v -11 37 25
v -11 39 25
v -10 2 25
v -10 9 25
v -10 10 25
v -10 27 25
v -10 30 25
v -10 31 25
v -10 32 25
v -9 9 25
v -9 10 25
v -9 19 25
v -9 21 25
v -8 34 25
v -8 36 25
v -7 9 25
v -7 10 25
v -7 19 25
v -7 21 25
v -6 2 25
v -6 4 25
v -6 5 25
v -6 6 25
v -6 7 25
v -6 9 25
v -6 10 25
v -6 28 25
v -6 29 25
v -6 34 25
v -6 36 25
v -5 6 25
v -5 7 25
v -5 8 25
v -5 9 25
v -5 22 25
v -5 24 25
v -5 28 25
v -5 29 25
v -4 4 25
v -4 5 25
v -4 7 25
v -4 8 25
v -4 9 25
v -4 17 25
v -4 18 25
v -4 26 25
v -4 28 25
v -3 17 25
v -3 18 25
v -3 22 25
v -3 24 25
v -1 2 25
v -1 24 25
v -1 26 25
v -1 28 25
v -1 48 25
v 1 2 25
v 1 23 25
v 1 24 25
v 1 26 25
v 1 37 25
v 1 44 25
v 1 48 25
v 2 23 25
v 2 24 25
v 2 28 25
v 2 37 25
v 2 44 25
v 3 2 25
v 3 8 25
v 3 28 25
v 3 29 25
v 4 18 25
v 4 21 25
v 4 26 25
v 4 27 25
v 4 29 25
v 4 42 25
v 6 18 25
v 6 21 25
v 7 2 25
v 7 7 25
v 7 8 25
v 7 9 25
v 7 10 25
v 7 13 25
v 8 7 25
v 8 9 25
v 9 26 25
v 9 27 25
v 10 10 25
v 10 13 25
v 10 26 25
v 10 27 25
v 12 13 25
v 12 14 25
v 13 7 25
v 13 8 25
v 13 13 25
v 13 14 25
v 14 7 25
v 14 8 25
v 14 19 25
v 14 21 25
v 15 29 25
v 15 42 25
v 16 19 25
v 16 21 25
v 19 26 25
v 19 27 25
v 23 2 25
v 23 24 25
v 23 26 25
v 23 48 25
v -25 0 24
v -25 50 24
v -23 2 24
v -23 24 24
v -23 26 24
v -23 48 24
v -21 2 24
v -17 2 24
v -17 26 24
v -15 26 24
v -10 2 24
v -6 2 24
v -5 24 24
v -4 26 24
v -3 24 24
v -1 2 24
v -1 24 24
v -1 26 24
v -1 28 24
v -1 48 24
v 1 2 24
v 1 23 24
v 1 24 24
v 1 26 24
v 1 37 24
v 1 44 24
v 1 48 24
v 2 24 24
v 3 2 24
v 4 26 24
v 7 2 24
v 9 26 24
v 10 26 24
v 19 26 24
v 23 2 24
v 23 24 24
v 23 26 24
v 23 48 24
v 25 0 24
v 25 50 24
v -25 0 -25
v -25 50 -25
v 25 0 -25
v 25 50 -25
v -25 0 24
v 25 0 24
v -25 0 -25
v 25 0 -25
v -23 2 25
v -21 2 25
v -17 2 25
v -10 2 25
v -6 2 25
v -1 2 25
v 1 2 25
v 3 2 25
v 7 2 25
v 23 2 25
v -23 2 24
v -21 2 24
v -17 2 24
v -10 2 24
v -6 2 24
v -1 2 24
v 1 2 24
v 3 2 24
v 7 2 24
v 23 2 24
v -23 26 25
v -17 26 25
v -15 26 25
v -4 26 25
v -1 26 25
v 1 26 25
v 4 26 25
v 9 26 25
v 10 26 25
v 19 26 25
v 23 26 25
v -23 26 24
v -17 26 24
v -15 26 24
v -4 26 24
v -1 26 24
v 1 26 24
v 4 26 24
v 9 26 24
v 10 26 24
v 19 26 24
v 23 26 24
v -23 24 25
v -5 24 25
v -3 24 25
v -1 24 25
v 1 24 25
v 2 24 25
v 23 24 25
v -23 24 24
v -5 24 24
v -3 24 24
v -1 24 24
v 1 24 24
v 2 24 24
v 23 24 24
v -23 48 25
v -1 48 25
v 1 48 25
v 23 48 25
v -23 48 24
v -1 48 24
v 1 48 24
v 23 48 24
v -25 50 24
v 25 50 24
v -25 50 -25
v 25 50 -25

# faces
f 3/7/1 2/7/1 1/7/1
f 4/7/1 2/7/1 3/7/1
f 7/6/1 6/6/1 5/6/1
f 8/6/1 6/6/1 7/6/1
f 11/6/1 10/6/1 9/6/1
f 12/6/1 10/6/1 11/6/1
f 15/6/1 14/6/1 13/6/1
f 16/6/1 14/6/1 15/6/1
f 17/5/1 16/5/1 15/5/1
f 18/5/1 16/5/1 17/5/1
f 21/4/1 20/4/1 19/4/1
f 22/4/1 20/4/1 21/4/1
f 23/8/1 22/8/1 21/8/1
f 24/8/1 22/8/1 23/8/1
f 25/6/1 24/6/1 23/6/1
f 26/6/1 24/6/1 25/6/1
f 27/6/2 28/6/2 29/6/2
f 29/6/2 28/6/2 30/6/2
f 31/4/2 32/4/2 33/4/2
f 33/4/2 32/4/2 34/4/2
f 33/6/2 34/6/2 35/6/2
f 35/6/2 34/6/2 36/6/2
f 37/6/2 38/6/2 39/6/2
f 39/6/2 38/6/2 40/6/2
f 41/6/2 42/6/2 43/6/2
f 43/6/2 42/6/2 44/6/2
f 45/7/2 46/7/2 47/7/2
f 47/7/2 46/7/2 48/7/2
f 53/6/3 50/6/3 49/6/3
f 54/6/3 50/6/3 53/6/3
f 55/4/3 54/4/3 53/4/3
f 56/4/3 54/4/3 55/4/3
f 57/6/3 50/6/3 54/6/3
f 57/4/3 54/4/3 56/4/3
f 58/6/3 52/6/3 51/6/3
f 59/6/3 52/6/3 58/6/3
f 60/6/3 50/6/3 57/6/3
f 61/6/3 50/6/3 60/6/3
f 62/6/3 60/6/3 57/6/3
f 62/8/3 61/8/3 60/8/3
f 63/6/3 50/6/3 61/6/3
f 63/8/3 61/8/3 62/8/3
f 64/4/3 59/4/3 58/4/3
f 65/6/3 52/6/3 59/6/3
f 65/4/3 59/4/3 64/4/3
f 66/6/3 65/6/3 64/6/3
f 67/6/3 52/6/3 65/6/3
f 67/6/3 65/6/3 66/6/3
f 68/6/3 52/6/3 67/6/3
f 69/6/3 52/6/3 68/6/3
f 70/6/3 62/6/3 57/6/3
f 70/6/3 63/6/3 62/6/3
f 71/6/3 63/6/3 70/6/3
f 72/6/3 56/6/3 55/6/3
f 72/5/3 57/5/3 56/5/3
f 73/6/3 70/6/3 57/6/3
f 73/5/3 57/5/3 72/5/3
f 74/8/3 71/8/3 70/8/3
f 74/6/3 70/6/3 73/6/3
f 75/6/3 63/6/3 71/6/3
f 75/8/3 71/8/3 74/8/3
f 76/6/3 68/6/3 67/6/3
f 77/6/3 68/6/3 76/6/3
f 78/8/3 69/8/3 68/8/3
f 78/6/3 68/6/3 77/6/3
f 79/6/3 52/6/3 69/6/3
f 79/8/3 69/8/3 78/8/3
f 80/6/3 74/6/3 73/6/3
f 80/6/3 73/6/3 72/6/3
f 80/6/3 72/6/3 55/6/3
f 80/6/3 75/6/3 74/6/3
f 81/6/3 75/6/3 80/6/3
f 82/6/3 63/6/3 75/6/3
f 82/6/3 75/6/3 81/6/3
f 83/6/3 66/6/3 64/6/3
f 83/8/3 67/8/3 66/8/3
f 84/6/3 76/6/3 67/6/3
f 84/8/3 67/8/3 83/8/3
f 85/8/3 77/8/3 76/8/3
f 85/6/3 76/6/3 84/6/3
f 86/6/3 79/6/3 78/6/3
f 86/8/3 77/8/3 85/8/3
f 86/6/3 78/6/3 77/6/3
f 87/4/3 82/4/3 81/4/3
f 87/5/3 81/5/3 80/5/3
f 88/6/3 63/6/3 82/6/3
f 88/4/3 82/4/3 87/4/3
f 89/6/3 50/6/3 63/6/3
f 89/6/3 63/6/3 88/6/3
f 90/6/3 50/6/3 89/6/3
f 91/6/3 85/6/3 84/6/3
f 91/6/3 84/6/3 83/6/3
f 91/6/3 79/6/3 86/6/3
f 91/6/3 86/6/3 85/6/3
f 92/6/3 79/6/3 91/6/3
f 93/5/3 88/5/3 87/5/3
f 93/5/3 87/5/3 80/5/3
f 94/6/3 89/6/3 88/6/3
f 94/5/3 88/5/3 93/5/3
f 95/8/3 90/8/3 89/8/3
f 95/6/3 89/6/3 94/6/3
f 96/6/3 50/6/3 90/6/3
f 96/8/3 90/8/3 95/8/3
f 97/5/3 93/5/3 80/5/3
f 98/5/3 93/5/3 97/5/3
f 99/5/3 93/5/3 98/5/3
f 100/5/3 93/5/3 99/5/3
f 101/5/3 93/5/3 100/5/3
f 102/8/3 94/8/3 93/8/3
f 102/5/3 93/5/3 101/5/3
f 103/6/3 95/6/3 94/6/3
f 103/8/3 94/8/3 102/8/3
f 103/6/3 96/6/3 95/6/3
f 104/6/3 91/6/3 83/6/3
f 105/6/3 91/6/3 104/6/3
f 106/8/3 92/8/3 91/8/3
f 106/6/3 91/6/3 105/6/3
f 107/6/3 79/6/3 92/6/3
f 107/8/3 92/8/3 106/8/3
f 108/8/3 101/8/3 100/8/3
f 108/6/3 100/6/3 99/6/3
f 109/6/3 102/6/3 101/6/3
f 109/8/3 101/8/3 108/8/3
f 109/6/3 103/6/3 102/6/3
f 110/6/3 103/6/3 109/6/3
f 111/6/3 103/6/3 110/6/3
f 112/6/3 50/6/3 96/6/3
f 112/6/3 103/6/3 111/6/3
f 112/6/3 96/6/3 103/6/3
f 113/6/3 50/6/3 112/6/3
f 114/8/3 105/8/3 104/8/3
f 114/6/3 104/6/3 83/6/3
f 115/6/3 106/6/3 105/6/3
f 115/8/3 105/8/3 114/8/3
f 115/6/3 107/6/3 106/6/3
f 116/6/3 98/6/3 97/6/3
f 116/4/3 99/4/3 98/4/3
f 117/6/3 108/6/3 99/6/3
f 117/4/3 99/4/3 116/4/3
f 117/6/3 109/6/3 108/6/3
f 118/4/3 110/4/3 109/4/3
f 118/6/3 109/6/3 117/6/3
f 119/8/3 111/8/3 110/8/3
f 119/4/3 110/4/3 118/4/3
f 120/6/3 112/6/3 111/6/3
f 120/8/3 111/8/3 119/8/3
f 121/6/3 112/6/3 120/6/3
f 122/6/3 112/6/3 121/6/3
f 123/6/3 114/6/3 83/6/3
f 123/6/3 83/6/3 64/6/3
f 123/6/3 115/6/3 114/6/3
f 124/6/3 115/6/3 123/6/3
f 125/6/3 118/6/3 117/6/3
f 125/4/3 122/4/3 121/4/3
f 125/6/3 117/6/3 116/6/3
f 125/6/3 119/6/3 118/6/3
f 125/6/3 120/6/3 119/6/3
f 125/6/3 121/6/3 120/6/3
f 126/6/3 112/6/3 122/6/3
f 126/4/3 122/4/3 125/4/3
f 127/8/3 113/8/3 112/8/3
f 127/6/3 112/6/3 126/6/3
f 128/8/3 113/8/3 127/8/3
f 129/6/3 116/6/3 97/6/3
f 129/6/3 125/6/3 116/6/3
f 129/6/3 128/6/3 127/6/3
f 129/6/3 127/6/3 126/6/3
f 129/6/3 126/6/3 125/6/3
f 130/6/3 128/6/3 129/6/3
f 131/4/3 124/4/3 123/4/3
f 132/6/3 115/6/3 124/6/3
f 132/4/3 124/4/3 131/4/3
f 133/6/3 52/6/3 79/6/3
f 133/6/3 115/6/3 132/6/3
f 133/6/3 79/6/3 107/6/3
f 133/6/3 107/6/3 115/6/3
f 141/6/3 135/6/3 134/6/3
f 141/5/3 136/5/3 135/5/3
f 142/5/3 136/5/3 141/5/3
f 143/4/3 138/4/3 137/4/3
f 144/8/3 139/8/3 138/8/3
f 144/4/3 138/4/3 143/4/3
f 145/6/3 140/6/3 139/6/3
f 145/8/3 139/8/3 144/8/3
f 146/6/3 142/6/3 141/6/3
f 146/6/3 141/6/3 134/6/3
f 147/6/3 142/6/3 146/6/3
f 148/6/3 144/6/3 143/6/3
f 148/4/3 143/4/3 137/4/3
f 148/6/3 145/6/3 144/6/3
f 149/6/3 145/6/3 148/6/3
f 150/6/3 142/6/3 147/6/3
f 151/6/3 142/6/3 150/6/3
f 152/4/3 148/4/3 137/4/3
f 152/4/3 149/4/3 148/4/3
f 153/4/3 149/4/3 152/4/3
f 154/6/3 145/6/3 149/6/3
f 154/4/3 149/4/3 153/4/3
f 155/6/3 145/6/3 154/6/3
f 156/4/3 151/4/3 150/4/3
f 156/6/3 150/6/3 147/6/3
f 157/6/3 142/6/3 151/6/3
f 157/4/3 151/4/3 156/4/3
f 158/5/3 147/5/3 146/5/3
f 159/5/3 147/5/3 158/5/3
f 160/6/3 156/6/3 147/6/3
f 160/5/3 147/5/3 159/5/3
f 160/6/3 157/6/3 156/6/3
f 161/6/3 157/6/3 160/6/3
f 162/6/3 157/6/3 161/6/3
f 163/6/3 157/6/3 162/6/3
f 164/6/3 159/6/3 158/6/3
f 164/5/3 160/5/3 159/5/3
f 164/5/3 161/5/3 160/5/3
f 165/6/3 162/6/3 161/6/3
f 165/5/3 161/5/3 164/5/3
f 166/8/3 153/8/3 152/8/3
f 167/6/3 154/6/3 153/6/3
f 167/8/3 153/8/3 166/8/3
f 168/6/3 162/6/3 165/6/3
f 168/5/3 163/5/3 162/5/3
f 168/6/3 165/6/3 164/6/3
f 169/6/3 157/6/3 163/6/3
f 169/5/3 163/5/3 168/5/3
f 170/4/3 167/4/3 166/4/3
f 171/6/3 154/6/3 167/6/3
f 171/4/3 167/4/3 170/4/3
f 172/6/3 157/6/3 169/6/3
f 172/6/3 169/6/3 168/6/3
f 173/6/3 157/6/3 172/6/3
f 174/6/3 168/6/3 164/6/3
f 174/6/3 164/6/3 158/6/3
f 174/6/3 172/6/3 168/6/3
f 175/6/3 172/6/3 174/6/3
f 176/5/3 173/5/3 172/5/3
f 176/6/3 172/6/3 175/6/3
f 177/6/3 157/6/3 173/6/3
f 177/5/3 173/5/3 176/5/3
f 178/5/3 175/5/3 174/5/3
f 178/6/3 174/6/3 158/6/3
f 179/6/3 176/6/3 175/6/3
f 179/5/3 175/5/3 178/5/3
f 179/6/3 177/6/3 176/6/3
f 180/6/3 157/6/3 177/6/3
f 180/6/3 177/6/3 179/6/3
f 181/6/3 142/6/3 157/6/3
f 181/6/3 157/6/3 180/6/3
f 182/5/3 155/5/3 154/5/3
f 182/6/3 154/6/3 171/6/3
f 183/6/3 145/6/3 155/6/3
f 183/5/3 155/5/3 182/5/3
f 184/6/3 180/6/3 179/6/3
f 184/4/3 181/4/3 180/4/3
f 184/6/3 179/6/3 178/6/3
f 185/6/3 142/6/3 181/6/3
f 185/4/3 181/4/3 184/4/3
f 186/8/3 171/8/3 170/8/3
f 187/6/3 182/6/3 171/6/3
f 187/8/3 171/8/3 186/8/3
f 187/6/3 183/6/3 182/6/3
f 188/6/3 178/6/3 158/6/3
f 188/6/3 184/6/3 178/6/3
f 188/6/3 185/6/3 184/6/3
f 189/6/3 142/6/3 185/6/3
f 189/6/3 185/6/3 188/6/3
f 190/6/3 187/6/3 186/6/3
f 191/6/3 145/6/3 183/6/3
f 191/6/3 187/6/3 190/6/3
f 191/6/3 140/6/3 145/6/3
f 191/6/3 183/6/3 187/6/3
f 194/7/3 193/7/3 192/7/3
f 195/7/3 193/7/3 194/7/3
f 196/7/3 193/7/3 195/7/3
f 197/7/3 193/7/3 196/7/3
f 198/7/3 194/7/3 192/7/3
f 199/7/3 198/7/3 192/7/3
f 200/7/3 196/7/3 195/7/3
f 201/7/3 200/7/3 195/7/3
f 202/7/3 199/7/3 192/7/3
f 203/7/3 202/7/3 192/7/3
f 204/7/3 201/7/3 195/7/3
f 205/7/3 201/7/3 204/7/3
f 206/7/3 205/7/3 204/7/3
f 207/7/3 203/7/3 192/7/3
f 208/7/3 205/7/3 206/7/3
f 209/7/3 205/7/3 208/7/3
f 211/7/3 193/7/3 197/7/3
f 212/7/3 210/7/3 209/7/3
f 212/7/3 211/7/3 210/7/3
f 212/7/3 209/7/3 208/7/3
f 212/7/3 208/7/3 207/7/3
f 212/7/3 207/7/3 192/7/3
f 213/7/3 211/7/3 212/7/3
f 214/7/3 211/7/3 213/7/3
f 215/7/3 211/7/3 214/7/3
f 216/7/3 211/7/3 215/7/3
f 217/7/3 211/7/3 216/7/3
f 218/7/3 193/7/3 211/7/3
f 218/7/3 211/7/3 217/7/3
f 219/7/3 215/7/3 214/7/3
f 220/7/3 212/7/3 192/7/3
f 221/7/3 215/7/3 219/7/3
f 222/7/3 220/7/3 192/7/3
f 223/7/3 221/7/3 219/7/3
f 224/7/3 223/7/3 219/7/3
f 225/7/3 224/7/3 219/7/3
f 226/7/3 222/7/3 192/7/3
f 227/7/3 225/7/3 219/7/3
f 228/7/3 225/7/3 227/7/3
f 229/7/3 193/7/3 218/7/3
f 230/7/3 228/7/3 227/7/3
f 230/7/3 229/7/3 228/7/3
f 230/7/3 227/7/3 226/7/3
f 230/7/3 226/7/3 192/7/3
f 231/7/3 193/7/3 229/7/3
f 231/7/3 229/7/3 230/7/3
f 232/7/4 233/7/4 234/7/4
f 234/7/4 233/7/4 235/7/4
f 238/7/5 237/7/5 236/7/5
f 239/7/5 237/7/5 238/7/5
f 250/6/5 241/6/5 240/6/5
f 251/4/5 242/4/5 241/4/5
f 251/6/5 241/6/5 250/6/5
f 252/6/5 243/6/5 242/6/5
f 252/4/5 242/4/5 251/4/5
f 253/5/5 244/5/5 243/5/5
f 253/6/5 243/6/5 252/6/5
f 254/6/5 245/6/5 244/6/5
f 254/5/5 244/5/5 253/5/5
f 255/6/5 245/6/5 254/6/5
f 256/6/5 247/6/5 246/6/5
f 257/5/5 248/5/5 247/5/5
f 257/6/5 247/6/5 256/6/5
f 258/6/5 249/6/5 248/6/5
f 258/5/5 248/5/5 257/5/5
f 259/6/5 249/6/5 258/6/5
f 271/6/5 261/6/5 260/6/5
f 272/4/5 262/4/5 261/4/5
f 272/6/5 261/6/5 271/6/5
f 273/6/5 263/6/5 262/6/5
f 273/4/5 262/4/5 272/4/5
f 274/4/5 264/4/5 263/4/5
f 274/6/5 263/6/5 273/6/5
f 275/4/5 264/4/5 274/4/5
f 276/4/5 266/4/5 265/4/5
f 277/8/5 267/8/5 266/8/5
f 277/4/5 266/4/5 276/4/5
f 278/4/5 268/4/5 267/4/5
f 278/8/5 267/8/5 277/8/5
f 279/8/5 269/8/5 268/8/5
f 279/4/5 268/4/5 278/4/5
f 280/6/5 270/6/5 269/6/5
f 280/8/5 269/8/5 279/8/5
f 281/6/5 270/6/5 280/6/5
f 282/6/6 283/6/6 289/6/6
f 283/8/6 284/8/6 290/8/6
f 289/6/6 283/6/6 290/6/6
f 284/6/6 285/6/6 291/6/6
f 290/8/6 284/8/6 291/8/6
f 291/6/6 285/6/6 292/6/6
f 286/5/6 287/5/6 293/5/6
f 287/6/6 288/6/6 294/6/6
f 293/5/6 287/5/6 294/5/6
f 294/6/6 288/6/6 295/6/6
f 296/6/6 297/6/6 300/6/6
f 300/6/6 297/6/6 301/6/6
f 298/6/6 299/6/6 302/6/6
f 302/6/6 299/6/6 303/6/6
f 304/7/6 305/7/6 306/7/6
f 306/7/6 305/7/6 307/7/6
