# MagicaVoxel @ Ephtracy

# group
g wall-02

# material
mtllib wall-02.mtl
usemtl palette

# normals
vn -1 0 0
vn 1 0 0
vn 0 0 1
vn 0 0 -1
vn 0 -1 0
vn 0 1 0

# texcoords
vt 0.482422 0.5
vt 0.919922 0.5
vt 0.923828 0.5
vt 0.927734 0.5
vt 0.966797 0.5

# verts
v -25 0 24
v -25 0 -25
v -25 50 24
v -25 50 -25
v -23 2 25
v -23 2 24
v -23 24 25
v -23 24 24
v -23 26 25
v -23 26 24
v -23 48 25
v -23 48 24
v 1 2 25
v 1 2 24
v 1 23 25
v 1 23 24
v 1 24 25
v 1 24 24
v 1 26 25
v 1 26 24
v 1 37 25
v 1 37 24
v 1 44 25
v 1 44 24
v 1 48 25
v 1 48 24
v -1 2 25
v -1 2 24
v -1 24 25
v -1 24 24
v -1 26 25
v -1 26 24
v -1 28 25
v -1 28 24
v -1 48 25
v -1 48 24
v 23 2 25
v 23 2 24
v 23 24 25
v 23 24 24
v 23 26 25
v 23 26 24
v 23 48 25
v 23 48 24
v 25 0 24
v 25 0 -25
v 25 50 24
v 25 50 -25
v -23 2 25
v -23 24 25
v -23 26 25
v -23 48 25
v -22 2 25
v -22 17 25
v -20 26 25
v -20 29 25
v -20 42 25
v -17 2 25
v -17 3 25
v -17 10 25
v -17 17 25
v -16 3 25
v -16 6 25
v -16 7 25
v -16 10 25
v -16 13 25
v -16 14 25
v -16 28 25
v -16 29 25
v -15 13 25
v -15 14 25
v -15 26 25
v -15 28 25
v -14 4 25
v -14 5 25
v -13 4 25
v -13 5 25
v -13 27 25
v -13 29 25
v -13 30 25
v -13 37 25
v -13 39 25
v -13 42 25
v -12 9 25
v -12 10 25
v -11 6 25
v -11 7 25
v -11 9 25
v -11 10 25
v -11 31 25
v -11 32 25
v -11 37 25
v -11 39 25
v -10 6 25
v -10 9 25
v -10 10 25
v -10 27 25
v -10 30 25
v -10 31 25
v -10 32 25
v -9 9 25
v -9 10 25
v -9 19 25
v -9 21 25
v -8 34 25
v -8 36 25
v -7 9 25
v -7 10 25
v -7 19 25
v -7 21 25
v -6 6 25
v -6 7 25
v -6 9 25
v -6 10 25
v -6 28 25
v -6 29 25
v -6 34 25
v -6 36 25
v -5 6 25
v -5 7 25
v -5 8 25
v -5 9 25
v -5 22 25
v -5 24 25
v -5 28 25
v -5 29 25
v -4 7 25
v -4 8 25
v -4 9 25
v -4 17 25
v -4 18 25
v -4 26 25
v -4 28 25
v -3 17 25
v -3 18 25
v -3 22 25
v -3 24 25
v -1 2 25
v -1 24 25
v -1 26 25
v -1 28 25
v -1 48 25
v 1 2 25
v 1 23 25
v 1 24 25
v 1 26 25
v 1 37 25
v 1 44 25
v 1 48 25
v 2 23 25
v 2 24 25
v 2 28 25
v 2 37 25
v 2 44 25
v 3 6 25
v 3 8 25
v 3 12 25
v 3 17 25
v 3 28 25
v 3 29 25
v 4 18 25
v 4 21 25
v 4 26 25
v 4 27 25
v 4 29 25
v 4 42 25
v 6 18 25
v 6 21 25
v 6 27 25
v 6 29 25
v 7 6 25
v 7 7 25
v 7 8 25
v 7 9 25
v 7 10 25
v 7 12 25
v 7 13 25
v 7 17 25
v 8 7 25
v 8 9 25
v 9 26 25
v 9 27 25
v 9 29 25
v 10 10 25
v 10 13 25
v 10 26 25
v 10 27 25
v 12 13 25
v 12 14 25
v 13 7 25
v 13 8 25
v 13 13 25
v 13 14 25
v 13 28 25
v 13 29 25
v 14 2 25
v 14 7 25
v 14 8 25
v 14 12 25
v 14 19 25
v 14 21 25
v 14 28 25
v 14 29 25
v 15 29 25
v 15 42 25
v 16 2 25
v 16 5 25
v 16 19 25
v 16 21 25
v 19 2 25
v 19 5 25
v 19 27 25
v 19 30 25
v 21 2 25
v 21 12 25
v 22 26 25
v 22 30 25
v 23 2 25
v 23 24 25
v 23 26 25
v 23 48 25
v -25 0 24
v -25 50 24
v -23 2 24
v -23 24 24
v -23 26 24
v -23 48 24
v -22 2 24
v -20 26 24
v -17 2 24
v -15 26 24
v -5 24 24
v -4 26 24
v -3 24 24
v -1 2 24
v -1 24 24
v -1 26 24
v -1 28 24
v -1 48 24
v 1 2 24
v 1 23 24
v 1 24 24
v 1 26 24
v 1 37 24
v 1 44 24
v 1 48 24
v 2 24 24
v 4 26 24
v 9 26 24
v 10 26 24
v 14 2 24
v 16 2 24
v 19 2 24
v 21 2 24
v 22 26 24
v 23 2 24
v 23 24 24
v 23 26 24
v 23 48 24
v 25 0 24
v 25 50 24
v -25 0 -25
v -25 50 -25
v 25 0 -25
v 25 50 -25
v -25 0 24
v 25 0 24
v -25 0 -25
v 25 0 -25
v -23 2 25
v -22 2 25
v -17 2 25
v -1 2 25
v 1 2 25
v 14 2 25
v 16 2 25
v 19 2 25
v 21 2 25
v 23 2 25
v -23 2 24
v -22 2 24
v -17 2 24
v -1 2 24
v 1 2 24
v 14 2 24
v 16 2 24
v 19 2 24
v 21 2 24
v 23 2 24
v -23 26 25
v -20 26 25
v -15 26 25
v -4 26 25
v -1 26 25
v 1 26 25
v 4 26 25
v 9 26 25
v 10 26 25
v 22 26 25
v 23 26 25
v -23 26 24
v -20 26 24
v -15 26 24
v -4 26 24
v -1 26 24
v 1 26 24
v 4 26 24
v 9 26 24
v 10 26 24
v 22 26 24
v 23 26 24
v -23 24 25
v -5 24 25
v -3 24 25
v -1 24 25
v 1 24 25
v 2 24 25
v 23 24 25
v -23 24 24
v -5 24 24
v -3 24 24
v -1 24 24
v 1 24 24
v 2 24 24
v 23 24 24
v -23 48 25
v -1 48 25
v 1 48 25
v 23 48 25
v -23 48 24
v -1 48 24
v 1 48 24
v 23 48 24
v -25 50 24
v 25 50 24
v -25 50 -25
v 25 50 -25

# faces
f 3/4/1 2/4/1 1/4/1
f 4/4/1 2/4/1 3/4/1
f 7/2/1 6/2/1 5/2/1
f 8/2/1 6/2/1 7/2/1
f 11/2/1 10/2/1 9/2/1
f 12/2/1 10/2/1 11/2/1
f 15/2/1 14/2/1 13/2/1
f 16/2/1 14/2/1 15/2/1
f 17/3/1 16/3/1 15/3/1
f 18/3/1 16/3/1 17/3/1
f 21/4/1 20/4/1 19/4/1
f 22/4/1 20/4/1 21/4/1
f 23/3/1 22/3/1 21/3/1
f 24/3/1 22/3/1 23/3/1
f 25/2/1 24/2/1 23/2/1
f 26/2/1 24/2/1 25/2/1
f 27/2/2 28/2/2 29/2/2
f 29/2/2 28/2/2 30/2/2
f 31/4/2 32/4/2 33/4/2
f 33/4/2 32/4/2 34/4/2
f 33/2/2 34/2/2 35/2/2
f 35/2/2 34/2/2 36/2/2
f 37/2/2 38/2/2 39/2/2
f 39/2/2 38/2/2 40/2/2
f 41/2/2 42/2/2 43/2/2
f 43/2/2 42/2/2 44/2/2
f 45/4/2 46/4/2 47/4/2
f 47/4/2 46/4/2 48/4/2
f 53/2/3 50/2/3 49/2/3
f 54/2/3 50/2/3 53/2/3
f 55/2/3 52/2/3 51/2/3
f 56/2/3 52/2/3 55/2/3
f 57/2/3 52/2/3 56/2/3
f 58/3/3 54/3/3 53/3/3
f 59/3/3 54/3/3 58/3/3
f 60/3/3 54/3/3 59/3/3
f 61/2/3 50/2/3 54/2/3
f 61/3/3 54/3/3 60/3/3
f 62/3/3 60/3/3 59/3/3
f 62/2/3 59/2/3 58/2/3
f 63/3/3 60/3/3 62/3/3
f 64/3/3 60/3/3 63/3/3
f 65/2/3 61/2/3 60/2/3
f 65/3/3 60/3/3 64/3/3
f 66/2/3 61/2/3 65/2/3
f 67/2/3 61/2/3 66/2/3
f 68/3/3 56/3/3 55/3/3
f 69/5/3 57/5/3 56/5/3
f 69/3/3 56/3/3 68/3/3
f 70/2/3 65/2/3 64/2/3
f 70/2/3 66/2/3 65/2/3
f 70/3/3 67/3/3 66/3/3
f 71/2/3 61/2/3 67/2/3
f 71/3/3 67/3/3 70/3/3
f 72/3/3 68/3/3 55/3/3
f 73/2/3 69/2/3 68/2/3
f 73/3/3 68/3/3 72/3/3
f 74/2/3 63/2/3 62/2/3
f 75/2/3 63/2/3 74/2/3
f 76/2/3 74/2/3 62/2/3
f 76/3/3 75/3/3 74/3/3
f 77/2/3 63/2/3 75/2/3
f 77/3/3 75/3/3 76/3/3
f 78/2/3 73/2/3 72/2/3
f 79/2/3 69/2/3 73/2/3
f 79/2/3 73/2/3 78/2/3
f 79/5/3 57/5/3 69/5/3
f 80/5/3 57/5/3 79/5/3
f 81/5/3 57/5/3 80/5/3
f 82/5/3 57/5/3 81/5/3
f 83/2/3 52/2/3 57/2/3
f 83/5/3 57/5/3 82/5/3
f 84/2/3 70/2/3 64/2/3
f 84/2/3 71/2/3 70/2/3
f 85/2/3 71/2/3 84/2/3
f 86/3/3 64/3/3 63/3/3
f 86/2/3 77/2/3 76/2/3
f 86/2/3 63/2/3 77/2/3
f 87/2/3 84/2/3 64/2/3
f 87/3/3 64/3/3 86/3/3
f 88/3/3 85/3/3 84/3/3
f 88/2/3 84/2/3 87/2/3
f 89/2/3 71/2/3 85/2/3
f 89/3/3 85/3/3 88/3/3
f 90/2/3 81/2/3 80/2/3
f 91/2/3 81/2/3 90/2/3
f 92/5/3 82/5/3 81/5/3
f 92/2/3 81/2/3 91/2/3
f 93/2/3 83/2/3 82/2/3
f 93/5/3 82/5/3 92/5/3
f 94/2/3 88/2/3 87/2/3
f 94/2/3 87/2/3 86/2/3
f 94/2/3 86/2/3 76/2/3
f 94/2/3 89/2/3 88/2/3
f 95/2/3 89/2/3 94/2/3
f 96/2/3 71/2/3 89/2/3
f 96/2/3 89/2/3 95/2/3
f 97/2/3 78/2/3 72/2/3
f 97/4/3 79/4/3 78/4/3
f 97/4/3 80/4/3 79/4/3
f 98/2/3 90/2/3 80/2/3
f 98/4/3 80/4/3 97/4/3
f 99/5/3 91/5/3 90/5/3
f 99/2/3 90/2/3 98/2/3
f 100/2/3 93/2/3 92/2/3
f 100/5/3 91/5/3 99/5/3
f 100/2/3 92/2/3 91/2/3
f 101/3/3 95/3/3 94/3/3
f 101/4/3 96/4/3 95/4/3
f 102/2/3 71/2/3 96/2/3
f 102/4/3 96/4/3 101/4/3
f 103/2/3 50/2/3 61/2/3
f 103/2/3 71/2/3 102/2/3
f 103/2/3 61/2/3 71/2/3
f 104/2/3 50/2/3 103/2/3
f 105/2/3 98/2/3 97/2/3
f 105/2/3 99/2/3 98/2/3
f 105/2/3 93/2/3 100/2/3
f 105/2/3 100/2/3 99/2/3
f 106/2/3 93/2/3 105/2/3
f 107/3/3 102/3/3 101/3/3
f 107/3/3 101/3/3 94/3/3
f 108/2/3 103/2/3 102/2/3
f 108/3/3 102/3/3 107/3/3
f 109/4/3 104/4/3 103/4/3
f 109/2/3 103/2/3 108/2/3
f 110/2/3 50/2/3 104/2/3
f 110/4/3 104/4/3 109/4/3
f 111/2/3 94/2/3 76/2/3
f 111/3/3 107/3/3 94/3/3
f 112/3/3 107/3/3 111/3/3
f 113/4/3 108/4/3 107/4/3
f 113/3/3 107/3/3 112/3/3
f 114/2/3 109/2/3 108/2/3
f 114/4/3 108/4/3 113/4/3
f 114/2/3 110/2/3 109/2/3
f 115/2/3 105/2/3 97/2/3
f 116/2/3 105/2/3 115/2/3
f 117/4/3 106/4/3 105/4/3
f 117/2/3 105/2/3 116/2/3
f 118/2/3 93/2/3 106/2/3
f 118/4/3 106/4/3 117/4/3
f 119/4/3 112/4/3 111/4/3
f 119/2/3 111/2/3 76/2/3
f 120/2/3 113/2/3 112/2/3
f 120/4/3 112/4/3 119/4/3
f 120/2/3 114/2/3 113/2/3
f 121/2/3 114/2/3 120/2/3
f 122/2/3 114/2/3 121/2/3
f 123/2/3 50/2/3 110/2/3
f 123/2/3 114/2/3 122/2/3
f 123/2/3 110/2/3 114/2/3
f 124/2/3 50/2/3 123/2/3
f 125/4/3 116/4/3 115/4/3
f 125/2/3 115/2/3 97/2/3
f 126/2/3 117/2/3 116/2/3
f 126/4/3 116/4/3 125/4/3
f 126/2/3 118/2/3 117/2/3
f 127/2/3 120/2/3 119/2/3
f 127/4/3 121/4/3 120/4/3
f 128/3/3 122/3/3 121/3/3
f 128/4/3 121/4/3 127/4/3
f 129/2/3 123/2/3 122/2/3
f 129/3/3 122/3/3 128/3/3
f 130/2/3 123/2/3 129/2/3
f 131/2/3 123/2/3 130/2/3
f 132/2/3 125/2/3 97/2/3
f 132/2/3 97/2/3 72/2/3
f 132/2/3 126/2/3 125/2/3
f 133/2/3 126/2/3 132/2/3
f 134/3/3 131/3/3 130/3/3
f 134/2/3 130/2/3 129/2/3
f 134/2/3 128/2/3 127/2/3
f 134/2/3 129/2/3 128/2/3
f 135/2/3 123/2/3 131/2/3
f 135/3/3 131/3/3 134/3/3
f 136/3/3 124/3/3 123/3/3
f 136/2/3 123/2/3 135/2/3
f 137/3/3 124/3/3 136/3/3
f 138/2/3 134/2/3 127/2/3
f 138/2/3 119/2/3 76/2/3
f 138/2/3 137/2/3 136/2/3
f 138/2/3 136/2/3 135/2/3
f 138/2/3 127/2/3 119/2/3
f 138/2/3 62/2/3 58/2/3
f 138/2/3 76/2/3 62/2/3
f 138/2/3 135/2/3 134/2/3
f 139/2/3 137/2/3 138/2/3
f 140/4/3 133/4/3 132/4/3
f 141/2/3 126/2/3 133/2/3
f 141/4/3 133/4/3 140/4/3
f 142/2/3 52/2/3 83/2/3
f 142/2/3 126/2/3 141/2/3
f 142/2/3 83/2/3 93/2/3
f 142/2/3 118/2/3 126/2/3
f 142/2/3 93/2/3 118/2/3
f 150/2/3 144/2/3 143/2/3
f 150/3/3 145/3/3 144/3/3
f 151/3/3 145/3/3 150/3/3
f 152/4/3 147/4/3 146/4/3
f 153/3/3 148/3/3 147/3/3
f 153/4/3 147/4/3 152/4/3
f 154/2/3 149/2/3 148/2/3
f 154/3/3 148/3/3 153/3/3
f 155/2/3 151/2/3 150/2/3
f 155/2/3 150/2/3 143/2/3
f 156/2/3 151/2/3 155/2/3
f 157/2/3 151/2/3 156/2/3
f 158/2/3 151/2/3 157/2/3
f 159/2/3 153/2/3 152/2/3
f 159/4/3 152/4/3 146/4/3
f 159/2/3 154/2/3 153/2/3
f 160/2/3 154/2/3 159/2/3
f 161/2/3 151/2/3 158/2/3
f 162/2/3 151/2/3 161/2/3
f 163/4/3 159/4/3 146/4/3
f 163/4/3 160/4/3 159/4/3
f 164/4/3 160/4/3 163/4/3
f 165/2/3 154/2/3 160/2/3
f 165/4/3 160/4/3 164/4/3
f 166/2/3 154/2/3 165/2/3
f 167/5/3 162/5/3 161/5/3
f 167/2/3 161/2/3 158/2/3
f 168/2/3 151/2/3 162/2/3
f 168/5/3 162/5/3 167/5/3
f 169/3/3 164/3/3 163/3/3
f 169/2/3 165/2/3 164/2/3
f 170/5/3 166/5/3 165/5/3
f 170/2/3 165/2/3 169/2/3
f 171/2/3 155/2/3 143/2/3
f 171/3/3 156/3/3 155/3/3
f 172/3/3 156/3/3 171/3/3
f 173/2/3 157/2/3 156/2/3
f 173/3/3 156/3/3 172/3/3
f 174/2/3 157/2/3 173/2/3
f 175/2/3 157/2/3 174/2/3
f 176/3/3 158/3/3 157/3/3
f 176/2/3 157/2/3 175/2/3
f 177/3/3 158/3/3 176/3/3
f 178/2/3 167/2/3 158/2/3
f 178/3/3 158/3/3 177/3/3
f 178/2/3 168/2/3 167/2/3
f 179/2/3 172/2/3 171/2/3
f 179/3/3 173/3/3 172/3/3
f 179/3/3 174/3/3 173/3/3
f 180/2/3 175/2/3 174/2/3
f 180/3/3 174/3/3 179/3/3
f 181/3/3 170/3/3 169/3/3
f 181/3/3 169/3/3 163/3/3
f 182/3/3 170/3/3 181/3/3
f 183/5/3 166/5/3 170/5/3
f 183/3/3 170/3/3 182/3/3
f 184/2/3 175/2/3 180/2/3
f 184/3/3 177/3/3 176/3/3
f 184/2/3 180/2/3 179/2/3
f 184/3/3 176/3/3 175/3/3
f 185/2/3 178/2/3 177/2/3
f 185/3/3 177/3/3 184/3/3
f 186/4/3 182/4/3 181/4/3
f 187/2/3 183/2/3 182/2/3
f 187/4/3 182/4/3 186/4/3
f 188/2/3 178/2/3 185/2/3
f 188/2/3 185/2/3 184/2/3
f 189/2/3 178/2/3 188/2/3
f 190/2/3 179/2/3 171/2/3
f 190/2/3 184/2/3 179/2/3
f 190/2/3 188/2/3 184/2/3
f 191/2/3 188/2/3 190/2/3
f 192/3/3 189/3/3 188/3/3
f 192/2/3 188/2/3 191/2/3
f 193/2/3 178/2/3 189/2/3
f 193/3/3 189/3/3 192/3/3
f 194/2/3 183/2/3 187/2/3
f 195/5/3 166/5/3 183/5/3
f 195/2/3 183/2/3 194/2/3
f 196/2/3 171/2/3 143/2/3
f 196/2/3 190/2/3 171/2/3
f 197/3/3 191/3/3 190/3/3
f 197/2/3 190/2/3 196/2/3
f 198/2/3 192/2/3 191/2/3
f 198/3/3 191/3/3 197/3/3
f 198/2/3 193/2/3 192/2/3
f 199/2/3 193/2/3 198/2/3
f 200/2/3 168/2/3 178/2/3
f 200/2/3 193/2/3 199/2/3
f 200/2/3 178/2/3 193/2/3
f 201/2/3 151/2/3 168/2/3
f 201/2/3 168/2/3 200/2/3
f 202/2/3 194/2/3 187/2/3
f 202/4/3 195/4/3 194/4/3
f 203/5/3 166/5/3 195/5/3
f 203/4/3 195/4/3 202/4/3
f 204/2/3 203/2/3 202/2/3
f 204/5/3 166/5/3 203/5/3
f 205/2/3 154/2/3 166/2/3
f 205/5/3 166/5/3 204/5/3
f 206/5/3 197/5/3 196/5/3
f 206/5/3 199/5/3 198/5/3
f 206/5/3 198/5/3 197/5/3
f 207/5/3 199/5/3 206/5/3
f 208/2/3 200/2/3 199/2/3
f 208/3/3 201/3/3 200/3/3
f 209/2/3 151/2/3 201/2/3
f 209/3/3 201/3/3 208/3/3
f 210/4/3 207/4/3 206/4/3
f 211/5/3 199/5/3 207/5/3
f 211/4/3 207/4/3 210/4/3
f 212/2/3 205/2/3 204/2/3
f 212/2/3 204/2/3 202/2/3
f 212/2/3 202/2/3 187/2/3
f 212/3/3 187/3/3 186/3/3
f 213/2/3 205/2/3 212/2/3
f 214/5/3 211/5/3 210/5/3
f 215/5/3 199/5/3 211/5/3
f 215/5/3 211/5/3 214/5/3
f 215/2/3 208/2/3 199/2/3
f 215/2/3 209/2/3 208/2/3
f 216/3/3 213/3/3 212/3/3
f 216/3/3 212/3/3 186/3/3
f 217/2/3 205/2/3 213/2/3
f 217/3/3 213/3/3 216/3/3
f 218/2/3 215/2/3 214/2/3
f 219/2/3 151/2/3 209/2/3
f 219/2/3 215/2/3 218/2/3
f 219/2/3 209/2/3 215/2/3
f 220/2/3 217/2/3 216/2/3
f 221/2/3 154/2/3 205/2/3
f 221/2/3 217/2/3 220/2/3
f 221/2/3 149/2/3 154/2/3
f 221/2/3 205/2/3 217/2/3
f 224/4/3 223/4/3 222/4/3
f 225/4/3 223/4/3 224/4/3
f 226/4/3 223/4/3 225/4/3
f 227/4/3 223/4/3 226/4/3
f 228/4/3 224/4/3 222/4/3
f 229/4/3 226/4/3 225/4/3
f 230/4/3 228/4/3 222/4/3
f 231/4/3 229/4/3 225/4/3
f 232/4/3 231/4/3 225/4/3
f 233/4/3 231/4/3 232/4/3
f 234/4/3 233/4/3 232/4/3
f 235/4/3 230/4/3 222/4/3
f 236/4/3 233/4/3 234/4/3
f 237/4/3 233/4/3 236/4/3
f 239/4/3 223/4/3 227/4/3
f 240/4/3 238/4/3 237/4/3
f 240/4/3 239/4/3 238/4/3
f 240/4/3 237/4/3 236/4/3
f 240/4/3 235/4/3 222/4/3
f 240/4/3 236/4/3 235/4/3
f 241/4/3 239/4/3 240/4/3
f 242/4/3 239/4/3 241/4/3
f 243/4/3 239/4/3 242/4/3
f 244/4/3 239/4/3 243/4/3
f 245/4/3 239/4/3 244/4/3
f 246/4/3 223/4/3 239/4/3
f 246/4/3 239/4/3 245/4/3
f 247/4/3 243/4/3 242/4/3
f 248/4/3 243/4/3 247/4/3
f 249/4/3 248/4/3 247/4/3
f 250/4/3 249/4/3 247/4/3
f 251/4/3 240/4/3 222/4/3
f 252/4/3 251/4/3 222/4/3
f 253/4/3 252/4/3 222/4/3
f 254/4/3 253/4/3 222/4/3
f 255/4/3 250/4/3 247/4/3
f 256/4/3 254/4/3 222/4/3
f 257/4/3 255/4/3 247/4/3
f 258/4/3 255/4/3 257/4/3
f 259/4/3 223/4/3 246/4/3
f 260/4/3 258/4/3 257/4/3
f 260/4/3 259/4/3 258/4/3
f 260/4/3 257/4/3 256/4/3
f 260/4/3 256/4/3 222/4/3
f 261/4/3 223/4/3 259/4/3
f 261/4/3 259/4/3 260/4/3
f 262/4/4 263/4/4 264/4/4
f 264/4/4 263/4/4 265/4/4
f 268/4/5 267/4/5 266/4/5
f 269/4/5 267/4/5 268/4/5
f 280/2/5 271/2/5 270/2/5
f 281/3/5 272/3/5 271/3/5
f 281/2/5 271/2/5 280/2/5
f 282/2/5 273/2/5 272/2/5
f 282/3/5 272/3/5 281/3/5
f 283/2/5 273/2/5 282/2/5
f 284/2/5 275/2/5 274/2/5
f 285/5/5 276/5/5 275/5/5
f 285/2/5 275/2/5 284/2/5
f 286/4/5 277/4/5 276/4/5
f 286/5/5 276/5/5 285/5/5
f 287/5/5 278/5/5 277/5/5
f 287/4/5 277/4/5 286/4/5
f 288/2/5 279/2/5 278/2/5
f 288/5/5 278/5/5 287/5/5
f 289/2/5 279/2/5 288/2/5
f 301/2/5 291/2/5 290/2/5
f 302/3/5 292/3/5 291/3/5
f 302/2/5 291/2/5 301/2/5
f 303/2/5 293/2/5 292/2/5
f 303/3/5 292/3/5 302/3/5
f 304/4/5 294/4/5 293/4/5
f 304/2/5 293/2/5 303/2/5
f 305/4/5 294/4/5 304/4/5
f 306/4/5 296/4/5 295/4/5
f 307/3/5 297/3/5 296/3/5
f 307/4/5 296/4/5 306/4/5
f 308/4/5 298/4/5 297/4/5
f 308/3/5 297/3/5 307/3/5
f 309/3/5 299/3/5 298/3/5
f 309/4/5 298/4/5 308/4/5
f 310/2/5 300/2/5 299/2/5
f 310/3/5 299/3/5 309/3/5
f 311/2/5 300/2/5 310/2/5
f 312/2/6 313/2/6 319/2/6
f 313/3/6 314/3/6 320/3/6
f 319/2/6 313/2/6 320/2/6
f 314/2/6 315/2/6 321/2/6
f 320/3/6 314/3/6 321/3/6
f 321/2/6 315/2/6 322/2/6
f 316/3/6 317/3/6 323/3/6
f 317/2/6 318/2/6 324/2/6
f 323/3/6 317/3/6 324/3/6
f 324/2/6 318/2/6 325/2/6
f 326/2/6 327/2/6 330/2/6
f 330/2/6 327/2/6 331/2/6
f 328/2/6 329/2/6 332/2/6
f 332/2/6 329/2/6 333/2/6
f 334/4/6 335/4/6 336/4/6
f 336/4/6 335/4/6 337/4/6
