# MagicaVoxel @ Ephtracy

# group
g wall-09

# material
mtllib wall-09.mtl
usemtl palette

# normals
vn -1 0 0
vn 1 0 0
vn 0 0 1
vn 0 0 -1
vn 0 -1 0
vn 0 1 0

# texcoords
vt 0.919922 0.5
vt 0.923828 0.5

# verts
v -25 0 25
v -25 0 -25
v -25 50 25
v -25 50 -25
v 25 0 25
v 25 0 -25
v 25 50 25
v 25 50 -25
v -25 0 25
v -25 50 25
v -22 40 25
v -22 42 25
v -20 16 25
v -20 17 25
v -20 40 25
v -20 42 25
v -19 16 25
v -19 17 25
v -10 37 25
v -10 39 25
v -8 37 25
v -8 39 25
v 5 35 25
v 5 36 25
v 6 35 25
v 6 36 25
v 7 45 25
v 7 46 25
v 8 45 25
v 8 46 25
v 17 13 25
v 17 14 25
v 18 13 25
v 18 14 25
v 18 23 25
v 18 24 25
v 20 23 25
v 20 24 25
v 25 0 25
v 25 50 25
v -25 0 -25
v -25 50 -25
v 25 0 -25
v 25 50 -25
v -25 0 25
v 25 0 25
v -25 0 -25
v 25 0 -25
v -25 50 25
v 25 50 25
v -25 50 -25
v 25 50 -25

# faces
f 3/1/1 2/1/1 1/1/1
f 4/1/1 2/1/1 3/1/1
f 5/1/2 6/1/2 7/1/2
f 7/1/2 6/1/2 8/1/2
f 11/1/3 10/1/3 9/1/3
f 12/1/3 10/1/3 11/1/3
f 13/1/3 11/1/3 9/1/3
f 14/1/3 11/1/3 13/1/3
f 15/2/3 12/2/3 11/2/3
f 15/1/3 11/1/3 14/1/3
f 16/1/3 10/1/3 12/1/3
f 16/2/3 12/2/3 15/2/3
f 17/2/3 14/2/3 13/2/3
f 17/1/3 13/1/3 9/1/3
f 18/1/3 15/1/3 14/1/3
f 18/2/3 14/2/3 17/2/3
f 18/1/3 16/1/3 15/1/3
f 19/1/3 18/1/3 17/1/3
f 19/1/3 16/1/3 18/1/3
f 20/1/3 16/1/3 19/1/3
f 21/1/3 19/1/3 17/1/3
f 21/2/3 20/2/3 19/2/3
f 22/1/3 16/1/3 20/1/3
f 22/2/3 20/2/3 21/2/3
f 23/1/3 21/1/3 17/1/3
f 23/1/3 22/1/3 21/1/3
f 24/1/3 22/1/3 23/1/3
f 25/1/3 23/1/3 17/1/3
f 25/2/3 24/2/3 23/2/3
f 26/1/3 22/1/3 24/1/3
f 26/2/3 24/2/3 25/2/3
f 27/1/3 10/1/3 16/1/3
f 27/1/3 22/1/3 26/1/3
f 27/1/3 26/1/3 25/1/3
f 27/1/3 16/1/3 22/1/3
f 28/1/3 10/1/3 27/1/3
f 29/1/3 27/1/3 25/1/3
f 29/2/3 28/2/3 27/2/3
f 30/1/3 10/1/3 28/1/3
f 30/2/3 28/2/3 29/2/3
f 31/1/3 17/1/3 9/1/3
f 31/1/3 25/1/3 17/1/3
f 31/1/3 30/1/3 29/1/3
f 31/1/3 29/1/3 25/1/3
f 32/1/3 30/1/3 31/1/3
f 33/1/3 31/1/3 9/1/3
f 33/2/3 32/2/3 31/2/3
f 34/1/3 30/1/3 32/1/3
f 34/2/3 32/2/3 33/2/3
f 35/1/3 30/1/3 34/1/3
f 36/1/3 30/1/3 35/1/3
f 37/1/3 34/1/3 33/1/3
f 37/1/3 35/1/3 34/1/3
f 37/2/3 36/2/3 35/2/3
f 38/1/3 30/1/3 36/1/3
f 38/2/3 36/2/3 37/2/3
f 39/1/3 33/1/3 9/1/3
f 39/1/3 37/1/3 33/1/3
f 39/1/3 38/1/3 37/1/3
f 40/1/3 10/1/3 30/1/3
f 40/1/3 38/1/3 39/1/3
f 40/1/3 30/1/3 38/1/3
f 41/1/4 42/1/4 43/1/4
f 43/1/4 42/1/4 44/1/4
f 47/1/5 46/1/5 45/1/5
f 48/1/5 46/1/5 47/1/5
f 49/1/6 50/1/6 51/1/6
f 51/1/6 50/1/6 52/1/6
